<?xml version="1.0" encoding="utf-8"?>
<!-- Generator: Adobe Illustrator 26.2.1, SVG Export Plug-In . SVG Version: 6.00 Build 0)  -->
<svg version="1.1" id="Layer_1" xmlns="http://www.w3.org/2000/svg" xmlns:xlink="http://www.w3.org/1999/xlink" x="0px" y="0px"
	 viewBox="0 0 240 50" style="enable-background:new 0 0 240 50;" xml:space="preserve">
<style type="text/css">
	.st0{fill:#FFFFFF;}
	.st1{fill:#FEBF10;}
	.st2{fill:none;}
	.st3{fill:#010101;}
	.st4{fill:#482F2F;}
	.st5{fill:#202020;}
</style>
<g>
	<path class="st0" d="M64.1,31.5c3.1,1.1,5.4,1.8,6.9,2.2c1.5,0.4,2.9,0.6,4,0.6c1.1,0,2.3-0.3,3.7-0.8l0.1,0.2
		c-1.8,1.2-3.5,1.8-5.3,1.8c-1.8,0-3.9-0.6-6.3-1.7c-1.8-0.9-2.9-1.4-3.4-1.6c-1.5-0.7-2.8-1-3.8-1.1v-0.2h0.3c0.4,0,0.7-0.1,1-0.4
		c0.3-0.3,0.4-0.6,0.4-1v-12c0-0.4-0.2-0.7-0.4-1c-0.3-0.3-0.6-0.4-1-0.4H60V16h4.7v0.2h-0.3c-0.4,0-0.7,0.1-1,0.4
		c-0.3,0.3-0.4,0.6-0.4,1v12.5c0,0.3,0,0.5,0,0.6c0,0.1,0.1,0.3,0.3,0.5C63.5,31.3,63.8,31.4,64.1,31.5z"/>
	<path class="st0" d="M83.3,16.2h-0.3c-0.3,0-0.6,0.1-0.8,0.3c-0.2,0.2-0.3,0.4-0.4,0.7v8.6c0,1.7-0.5,3.1-1.6,4.1
		c-1.1,1-2.5,1.6-4.3,1.6c-1.8,0-3.2-0.5-4.3-1.5c-1.1-1-1.7-2.4-1.7-4.1v-8.5c0-0.4-0.2-0.8-0.6-1c-0.2-0.1-0.4-0.1-0.6-0.1h-0.3
		V16h4.4v0.2h-0.3c-0.3,0-0.6,0.1-0.8,0.3s-0.3,0.4-0.3,0.7v8.3c0,1.6,0.4,2.8,1.3,3.8c0.8,1,2,1.5,3.4,1.5s2.6-0.5,3.4-1.4
		s1.3-2.1,1.3-3.6v-8.6c0-0.3-0.1-0.6-0.3-0.7s-0.5-0.3-0.8-0.3h-0.3V16h4V16.2z"/>
	<path class="st0" d="M86,30.9c0.4,0,0.7-0.1,1-0.4c0.3-0.3,0.4-0.6,0.4-1v-12c0-0.4-0.2-0.7-0.4-1c-0.3-0.3-0.6-0.4-1-0.4h-0.3V16
		h4.7v0.2h-0.3c-0.4,0-0.7,0.1-1,0.4c-0.3,0.3-0.4,0.6-0.4,1v12c0,0.4,0.1,0.7,0.4,1c0.3,0.3,0.6,0.4,1,0.4h0.3v0.2h-4.7v-0.2H86z"
		/>
	<path class="st0" d="M93,30.2c0-0.2-0.1-0.6-0.1-1.2s0.1-1.2,0.3-1.8h0.2c0,0.2,0,0.3,0,0.5c0,0.9,0.3,1.6,0.8,2.2
		c0.5,0.6,1.2,0.9,2.1,0.9c0.9,0,1.7-0.3,2.2-0.8c0.6-0.5,0.9-1.2,0.9-2.1c0-0.8-0.3-1.5-0.8-2L94.5,22c-0.8-0.7-1.2-1.6-1.2-2.6
		s0.3-1.9,1-2.6c0.7-0.7,1.6-1.1,2.8-1.1c0.5,0,1.2,0.1,1.9,0.2h0.8v2.7h-0.2c0-0.7-0.2-1.2-0.7-1.6c-0.5-0.4-1.1-0.6-1.8-0.6
		c-0.7,0-1.4,0.2-1.9,0.7c-0.5,0.5-0.7,1.1-0.7,1.8s0.3,1.4,0.9,1.9l4.3,3.9c0.7,0.7,1.1,1.6,1.1,2.7c0,1.2-0.4,2.1-1.1,2.9
		c-0.7,0.7-1.7,1.1-2.9,1.1c-0.6,0-1.3-0.1-2-0.3C94,31,93.4,30.7,93,30.2z"/>
	<path class="st1" d="M128,34.8c-0.6,0.2-1.1,0.2-1.6,0.2c-0.5,0-0.9,0-1.2-0.1s-0.7-0.2-1.2-0.3c-0.4-0.2-0.8-0.4-1.2-0.6
		s-0.7-0.5-1.1-0.8c-0.7-0.5-1.3-1.1-1.8-1.7c-0.5-0.6-1.6-1.8-3.1-3.5c-1.5-1.7-2.6-2.9-3.1-3.4c-0.5-0.6-0.9-0.9-1.2-0.9v-0.2
		c0.8,0,1.4,0,1.7-0.1s0.6-0.1,0.9-0.2c0.3-0.1,0.6-0.2,0.8-0.4c0.9-0.5,1.3-1.5,1.3-2.7c0-1.1-0.2-1.9-0.7-2.5c-0.5-0.6-1.1-1-2-1
		h-2.7v12.9c0,0.4,0.1,0.7,0.4,1c0.3,0.3,0.6,0.4,1,0.4h0.3l0,0.2h-4.7v-0.2h0.3c0.4,0,0.7-0.1,1-0.4c0.3-0.3,0.4-0.6,0.4-1v-12
		c0-0.4-0.2-0.7-0.4-1c-0.3-0.3-0.6-0.4-1-0.4h-0.3V16h5.9c1.3,0,2.3,0.4,3.1,1.1c0.8,0.7,1.2,1.7,1.2,2.8c0,1.2-0.4,2.2-1.1,3
		c-0.7,0.8-1.6,1.3-2.6,1.3h0c0.5,0.5,1,1.1,1.7,1.8c2.5,2.8,4.1,4.5,4.8,5.2s1.3,1.3,1.9,1.7c0.5,0.5,1,0.8,1.4,1
		c0.9,0.5,1.7,0.7,2.5,0.7c0.2,0,0.3,0,0.5,0V34.8z"/>
	<path class="st1" d="M124.3,17.8c1.5-1.5,3.6-2.2,6-2.2s4.5,0.7,6,2.2c1.5,1.5,2.3,3.4,2.3,5.7s-0.8,4.3-2.3,5.7
		c-1.5,1.5-3.6,2.2-6,2.2s-4.5-0.7-6-2.2s-2.3-3.4-2.3-5.7S122.8,19.3,124.3,17.8z M125.5,28.8c1.2,1.3,2.8,2,4.8,2s3.6-0.7,4.8-2
		c1.2-1.3,1.8-3.1,1.8-5.2s-0.6-3.9-1.8-5.2s-2.8-2-4.8-2s-3.6,0.7-4.8,2s-1.8,3.1-1.8,5.2S124.3,27.5,125.5,28.8z"/>
	<path class="st1" d="M153.4,18.1c1.4,1.4,2.2,3.2,2.2,5.5s-0.7,4.1-2.2,5.5c-1.4,1.4-3.3,2.1-5.6,2.1h-7.3v-0.2h0.3
		c0.4,0,0.7-0.1,1-0.4c0.3-0.3,0.4-0.6,0.4-1V17.4c0-0.3-0.1-0.6-0.4-0.9c-0.3-0.2-0.6-0.4-1-0.4h-0.3l0-0.2h7.3
		C150,16,151.9,16.7,153.4,18.1z M143.5,16.6v13.9h4.3c1.2,0,2.3-0.3,3.2-0.9c0.9-0.6,1.7-1.4,2.2-2.4c0.5-1,0.8-2.3,0.8-3.6
		c0-2.1-0.6-3.8-1.7-5c-1.1-1.3-2.6-1.9-4.5-1.9H143.5z"/>
	<path class="st1" d="M161.9,16.6h-1.4v12.9c0,0.4,0.1,0.7,0.4,1c0.3,0.3,0.6,0.4,1,0.4h0.3l0,0.2h-4.7v-0.2h0.3
		c0.4,0,0.7-0.1,1-0.4c0.3-0.3,0.4-0.6,0.4-1v-12c0-0.4-0.2-0.7-0.4-1s-0.6-0.4-1-0.4h-0.3V16h5.9c1.3,0,2.3,0.4,3.1,1.1
		c0.8,0.7,1.1,1.7,1.1,2.8c0,1.2-0.4,2.2-1.1,3c-0.7,0.8-1.6,1.3-2.6,1.3c0.2,0.1,0.5,0.3,0.8,0.6c0.3,0.3,0.6,0.6,0.8,0.9
		c1.2,1.8,2.1,2.9,2.4,3.3s0.6,0.7,0.8,0.8s0.3,0.3,0.5,0.4c0.2,0.1,0.4,0.3,0.6,0.3c0.4,0.2,0.9,0.3,1.3,0.3v0.2h-1.2
		c-0.6,0-1.2-0.1-1.7-0.3c-0.5-0.2-0.9-0.5-1.2-0.7c-0.3-0.2-0.5-0.5-0.7-0.7c-0.2-0.2-0.7-1-1.6-2.2c-0.9-1.3-1.4-2-1.5-2.2
		s-0.3-0.4-0.5-0.5c-0.5-0.5-0.9-0.7-1.4-0.7v-0.2c0.1,0,0.3,0,0.5,0c0.2,0,0.4,0,0.7,0c1.8,0,2.9-0.8,3.4-2.3
		c0.1-0.3,0.1-0.6,0.1-0.8c0-0.3,0-0.4,0-0.5c0-1-0.3-1.7-0.8-2.3c-0.5-0.6-1.1-0.9-1.9-1C162.9,16.6,162.4,16.6,161.9,16.6z"/>
	<path class="st1" d="M171.8,30.9c0.4,0,0.7-0.1,1-0.4c0.3-0.3,0.4-0.6,0.4-1v-12c0-0.4-0.2-0.7-0.4-1s-0.6-0.4-1-0.4h-0.3V16h4.7
		v0.2h-0.3c-0.4,0-0.7,0.1-1,0.4s-0.4,0.6-0.4,1v12c0,0.4,0.1,0.7,0.4,1c0.3,0.3,0.6,0.4,1,0.4h0.3v0.2h-4.7v-0.2H171.8z"/>
	<path class="st1" d="M180.5,29.2c-1.4-1.4-2.2-3.3-2.2-5.7s0.7-4.3,2.2-5.7c1.4-1.5,3.3-2.2,5.6-2.2c2,0,3.8,0.5,5.3,1.5l0.4,3.1
		h-0.2c-0.3-1.2-1-2.2-1.9-2.9s-2.2-1-3.6-1c-1.8,0-3.3,0.7-4.5,2s-1.7,3.1-1.7,5.2s0.6,3.9,1.7,5.2c1.1,1.3,2.6,2,4.5,2
		c0.9,0,1.8-0.2,2.7-0.5c0.8-0.3,1.6-0.8,2.2-1.4v-3.8c0-0.3-0.1-0.6-0.3-0.7s-0.5-0.2-0.8-0.2h-0.3v-0.2h4.2v0.2h-0.3
		c-0.4,0-0.6,0.1-0.8,0.2c-0.2,0.2-0.3,0.4-0.3,0.7v3.6c-0.4,0.5-0.8,0.9-1.3,1.3c-0.5,0.4-1.2,0.7-2.1,1s-1.8,0.4-2.9,0.4
		C183.8,31.4,182,30.7,180.5,29.2z"/>
	<path class="st1" d="M210.3,16.2H210c-0.3,0-0.6,0.1-0.8,0.3c-0.2,0.2-0.3,0.4-0.4,0.7v8.6c0,1.7-0.5,3.1-1.6,4.1
		c-1.1,1-2.5,1.6-4.3,1.6c-1.8,0-3.2-0.5-4.3-1.5s-1.7-2.4-1.7-4.1v-8.5c0-0.4-0.2-0.8-0.6-1c-0.2-0.1-0.4-0.1-0.6-0.1h-0.3V16h4.4
		v0.2h-0.3c-0.3,0-0.6,0.1-0.8,0.3s-0.3,0.4-0.3,0.7v8.3c0,1.6,0.4,2.8,1.3,3.8c0.8,1,2,1.5,3.4,1.5s2.6-0.5,3.4-1.4
		c0.9-0.9,1.3-2.1,1.3-3.6v-8.6c0-0.3-0.1-0.6-0.3-0.7s-0.5-0.3-0.8-0.3h-0.3V16h4V16.2z"/>
	<path class="st1" d="M213,30.9c0.4,0,0.7-0.1,1-0.4c0.3-0.3,0.4-0.6,0.4-1V17.4c0-0.3-0.1-0.6-0.4-0.9c-0.3-0.2-0.6-0.4-1-0.4h-0.3
		l0-0.2h6.4c0.4,0,0.9,0,1.5-0.1s0.9-0.2,1.1-0.3v2.7h-0.2v-0.4c0-0.3-0.1-0.6-0.4-0.9c-0.2-0.2-0.5-0.4-0.9-0.4h-4.4v6.7h3.7
		c0.3,0,0.5-0.1,0.7-0.3s0.3-0.5,0.3-0.8v-0.3h0.2v3.4h-0.2V25c0-0.3-0.1-0.5-0.3-0.7c-0.2-0.2-0.4-0.3-0.7-0.3h-3.7v6.5h3.1
		c1.1,0,1.9-0.2,2.5-0.7c0.6-0.5,1-1.2,1.4-2.1h0.2l-1.3,3.5h-9v-0.2H213z"/>
	<path class="st1" d="M225.7,17.9v0.4h-0.2v-2.7c0.2,0.1,0.6,0.2,1.1,0.3s0.9,0.1,1.1,0.1c0.2,0,0.3,0,0.3,0h6c0.7,0,1.2,0,1.6-0.1
		c0.4-0.1,0.6-0.1,0.7-0.2v0.2l-9.3,14.6h6.9c0.8,0,1.4-0.2,1.9-0.7c0.5-0.5,0.9-1.1,1.1-2h0.2l-0.7,3.3h-11.4v-0.2l9.1-14.4H227
		c-0.4,0-0.7,0.1-0.9,0.4C225.8,17.2,225.7,17.5,225.7,17.9z"/>
</g>
<g>
	<g id="Cilueta">
		<path class="st0" d="M45.1,18.2c0,0.3-0.1,0.5-0.2,0.8c-0.1,0.2-0.1,0.4-0.2,0.7c-0.1,0.5-0.2,1-0.3,1.5c-0.2,1-0.4,2-0.6,3
			c0,0.2-0.1,0.5-0.1,0.7c0,1.5-1,2.8-1.9,2.3c-0.7,3.5-2.1,6.5-3.1,7.3c-1.4,1.1-5.1,4.4-7.4,4.5c-2.3,0.1-5.5-2.4-8.1-4.5
			c-1.5-1.2-2.4-4.7-3-7.4c-1.5,0.6-1.9-2-1.9-2c0-1-0.6-2.2-0.6-2.2c-0.5-0.5-0.5-1.6-0.5-1.6c-1.4-3.8-0.3-4.5-0.3-4.5
			c0.4-0.1,0.9,0.3,1.2,0.9c0.3,0.5,0.5,1.1,0.7,1.8c0.3,0.8,0.4,1.5,0.6,2c0-0.7-0.1-1.4-0.1-2c0-0.4,0-0.8,0-0.8
			c0.1-0.2,0.2-1.7,0.2-1.7s0.2-0.8,0.2-1c0-0.2,0.1-1.1,0.1-1.1l0.6-1.3l-0.3-0.3l0.8-1.2l-1.2,0.5l0.8-0.9l0-0.1h0.3l0-0.9
			l0.9-1.1l-0.2-0.2l1-0.6l-0.3-0.2l0.9-0.5l0.8-0.2L24,7.7l1.5,0.1l-0.1-0.4l1.3,0.4l-0.3-0.5l1.5,0.3V6.7c0,0,0.8,1,0.8,0.7
			s2.1,0.7,2.1,0.7s0-1.1,0.1-1.3c0.1-0.2,0.6,1.3,0.6,1.5c0-0.1-0.3-1.3-0.1-0.9c0.2,0.4,2,0.5,1.7,0.4c-0.3-0.1,0.1-1.1,0.1-1.1
			s0.3,0.7,1.1,1c0.8,0.3,3.2,0.1,3.2,0.1L38,7.8l-1.1-1.5l1.5,1.5c1.1-0.4,2.5,2,2.5,2l-0.5-0.1l0.6,0.6l0.1,0.3l-0.5-0.3l0.1,0.7
			l-0.1,0c0,0.2,0.2,0.6,0.5,0.9c0.2,0.3,0.4,0.5,0.6,0.7l-0.5-0.3l0.4,0.7l0.1,0.2l-0.4,0.1l0.3,0.6l-0.4,0.1l0.7,1.2l-0.6-0.5
			l1.1,2.4l-0.1,2.3l-0.1,0l-0.1,0l0,2.1c0.2-0.3,0.2-1.1,0.4-1.7c0-0.1,0.1-0.3,0.1-0.5c0.2-0.6,0.4-1.3,0.5-1.7
			c0-0.2,0.1-0.5,0.2-0.7c0.1-0.2,0.3-0.4,0.5-0.5c0.2-0.1,0.4,0,0.6,0.2c0.3,0.2,0.4,0.5,0.5,0.8c0,0,0,0,0,0.1
			C45.1,17.9,45.1,18,45.1,18.2z"/>
		<path class="st0" d="M31.3,39.1c-2.3,0-5.4-2.3-8.1-4.5c-1.5-1.2-2.4-4.7-3-7.4c-0.3,0.1-0.6,0.1-0.9,0c-0.8-0.4-1-1.9-1-2
			c0-0.9-0.5-2-0.6-2.1c-0.5-0.5-0.5-1.5-0.5-1.6c-1.4-3.8-0.3-4.5-0.2-4.5c0.4-0.1,0.9,0.2,1.3,0.9c0.3,0.5,0.5,1,0.7,1.8
			c0.2,0.5,0.3,1,0.4,1.5c0-0.6,0-1.1-0.1-1.5c0-0.8,0-0.8,0-0.8c0.1-0.1,0.2-1.1,0.2-1.7c0.1-0.2,0.2-0.9,0.2-1
			c0-0.2,0.1-1.1,0.1-1.1l0,0l0.6-1.3l-0.3-0.3l0,0l0.7-1l-1.2,0.5l0.9-1.1l0-0.2H21l0-0.8l0.8-1.1l-0.2-0.2l1-0.6l-0.3-0.2l1-0.5
			l0.7-0.1l-0.2-0.3l1.5,0.1l-0.1-0.4l1.3,0.4l-0.3-0.5l1.5,0.3V6.6l0.1,0.1c0.3,0.3,0.6,0.7,0.7,0.7c0,0,0-0.1,0-0.1
			c0.2-0.1,1.5,0.4,2,0.7c0-0.3,0-1,0.1-1.2c0,0,0.1-0.1,0.1,0c0.1,0,0.2,0.2,0.3,0.6c0-0.1,0-0.1,0-0.1c0.1,0,0.1,0.1,0.1,0.1
			c0.2,0.3,1.3,0.4,1.6,0.4c-0.2-0.2,0.1-1,0.1-1.1l0.1-0.1l0,0.1c0,0,0.3,0.7,1.1,1c0.8,0.3,3.2,0.1,3.2,0.1l0.5,0.1l-1-1.4L37,6.3
			l1.5,1.5c1.1-0.4,2.5,1.9,2.6,2l0.1,0.1l-0.4-0.1l0.5,0.5l0.2,0.4l-0.6-0.3l0.1,0.7l-0.1,0c0,0.1,0.1,0.4,0.5,0.9
			c0.2,0.2,0.4,0.5,0.6,0.7l0.2,0.2l-0.7-0.4l0.4,0.8l-0.4,0.1l0.3,0.5l-0.4,0.1l0.8,1.4l-0.7-0.5l1.1,2.2l-0.1,2.4l-0.1,0.1l0,1.9
			c0.1-0.2,0.1-0.4,0.2-0.7c0-0.3,0.1-0.6,0.2-0.8c0-0.1,0.1-0.3,0.1-0.5l0-0.1c0.2-0.6,0.4-1.3,0.5-1.6c0-0.2,0.1-0.5,0.2-0.7
			c0.1-0.3,0.3-0.5,0.6-0.5c0.2-0.1,0.5,0.1,0.6,0.2c0.3,0.2,0.4,0.4,0.5,0.8c0,0,0,0,0,0.1c0,0.1,0,0.2,0,0.4v0
			c0,0.2-0.1,0.4-0.1,0.5c0,0.1-0.1,0.2-0.1,0.3c-0.1,0.2-0.1,0.4-0.2,0.7c-0.1,0.5-0.2,1-0.3,1.5c-0.2,1-0.4,2-0.6,3
			c0,0.2-0.1,0.5-0.1,0.7c0,1-0.5,1.9-1.1,2.3c-0.3,0.2-0.6,0.2-0.8,0.1c-0.7,3.3-2,6.4-3.1,7.3c-0.1,0.1-0.3,0.3-0.5,0.4
			C36.6,36.4,33.4,39,31.3,39.1C31.3,39.1,31.3,39.1,31.3,39.1z M20.3,27L20.3,27c0.5,2.8,1.4,6.2,2.9,7.5c2.7,2.2,5.7,4.5,8,4.5
			c0,0,0.1,0,0.1,0c2.1,0,5.2-2.6,6.8-4c0.2-0.2,0.4-0.3,0.5-0.4c1.1-0.9,2.4-4,3.1-7.3l0-0.1l0.1,0c0.3,0.1,0.5,0.1,0.8,0
			c0.6-0.3,1-1.2,1-2.2c0-0.3,0-0.5,0.1-0.7c0.1-1,0.3-2,0.6-3c0.1-0.5,0.2-1,0.3-1.5c0.1-0.2,0.1-0.4,0.2-0.7
			c0-0.1,0.1-0.2,0.1-0.3c0.1-0.2,0.1-0.3,0.1-0.5c0-0.1,0-0.2,0-0.3c0,0,0,0,0-0.1c-0.1-0.3-0.2-0.6-0.5-0.7
			c-0.1-0.1-0.3-0.2-0.5-0.1c-0.2,0.1-0.4,0.2-0.5,0.5c-0.1,0.2-0.1,0.4-0.2,0.6c0,0.4-0.3,1.1-0.5,1.7l0,0.1
			c-0.1,0.2-0.1,0.3-0.1,0.4c-0.1,0.2-0.1,0.5-0.2,0.8c-0.1,0.4-0.1,0.8-0.3,1L42.1,22l0-2.3l0.1-0.1l0.1-2.3l-1.2-2.6l0.6,0.5
			l-0.6-1l0.4-0.1l-0.3-0.6l0.4-0.1l-0.5-1l0.4,0.2c-0.1-0.2-0.3-0.3-0.4-0.5c-0.4-0.4-0.5-0.8-0.5-1l0,0l0.1,0l-0.1-0.8l0.5,0.2
			L41,10.4l-0.7-0.7l0.5,0.1c-0.3-0.5-1.5-2.2-2.4-1.9l0,0l-1.1-1.1l0.7,1l-0.7-0.1c-0.1,0-2.4,0.2-3.2-0.1c-0.6-0.2-1-0.7-1.1-0.9
			C33,7.1,32.8,7.6,33,7.7c0,0,0.1,0,0.1,0.1C33,7.8,33,7.8,33,7.8c-0.3,0-1.4-0.1-1.7-0.4c0,0.2,0.1,0.5,0.2,0.8l-0.1,0
			c-0.2-0.7-0.4-1.3-0.5-1.4c-0.1,0.2-0.1,1-0.1,1.2l0,0.1l-0.1,0c-0.8-0.4-1.7-0.7-2-0.7c0,0,0,0,0,0c0,0.1,0,0.1-0.1,0.1
			c-0.1,0-0.5-0.3-0.8-0.6v0.6l-1.4-0.3l0.3,0.5l-1.3-0.4l0.1,0.4l-1.4-0.1L24.3,8l-0.8,0.2l-0.8,0.5l0.2,0.2l-1,0.6L22,9.6
			l-0.9,1.1l0,0.9h-0.2l0,0.1l-0.7,0.8l1.1-0.5l-0.9,1.3l0.3,0.3l0,0l-0.6,1.3c0,0.1-0.1,0.9-0.1,1.1c0,0.2-0.2,1-0.2,1
			c0,0.1-0.1,1.6-0.2,1.7c0,0,0,0.1,0,0.8c0,0.5,0,1.1,0.1,2l-0.1,0c-0.1-0.5-0.3-1.2-0.6-2c-0.2-0.7-0.5-1.3-0.7-1.7
			c-0.4-0.7-0.8-1-1.2-0.9c0,0-1.1,0.7,0.3,4.4l0,0c0,0,0,1.1,0.5,1.6l0,0c0,0,0.6,1.2,0.6,2.2c0,0,0.2,1.5,0.9,1.9
			C19.7,27.1,20,27.2,20.3,27L20.3,27z"/>
	</g>
	<g id="Cabello">
		<path class="st0" d="M43.4,18.8v0.1c-0.1,0.2-0.2,0.4-0.2,0.7c0,0.4-0.3,1.1-0.5,1.7c-0.1,0.2-0.1,0.3-0.1,0.5
			c-0.2,0.6-0.2,1.4-0.4,1.7l0-2.1l0.1,0l0.1,0l0.1-2.3l-1.1-2.4l0.6,0.5l-0.7-1.2l0.4-0.1l-0.3-0.6l0.4-0.1l-0.1-0.2l-0.4-0.7
			l0.5,0.3c-0.2-0.2-0.4-0.5-0.6-0.7c-0.3-0.3-0.5-0.7-0.5-0.9l0.1,0L40.7,12l0.5,0.3l0.2,0.1L41,12l-0.6-0.6l0.5,0.1
			c0,0-1.5-2.4-2.5-2l-1.5-1.5L38,9.4l-0.6-0.1c0,0-2.4,0.2-3.2-0.1s-1.1-1-1.1-1S32.7,9.2,33,9.3c0.3,0.1-1.5,0.1-1.7-0.4
			c-0.2-0.4,0.1,0.8,0.1,0.9c0-0.1-0.5-1.7-0.6-1.5c-0.1,0.2-0.1,1.3-0.1,1.3s-2.1-0.9-2.1-0.7s-0.8-0.7-0.8-0.7v0.7l-1.5-0.3
			l0.3,0.5L25.3,9l0.1,0.4L24,9.3l0.2,0.2l-0.8,0.2l-0.9,0.5l0.3,0.2l-1,0.6l0.2,0.2l-0.9,1.1l0,0.9h-0.3l0,0.1l-0.8,0.9l1.2-0.5
			l-0.8,1.2l0.3,0.3l-0.6,1.3c0,0-0.1,0.9-0.1,1.1c0,0.2-0.2,1-0.2,1s-0.1,1.5-0.2,1.7c0,0,0,0.4,0,0.8c0,0.5,0,1.3,0.1,2
			c-0.1-0.5-0.3-1.2-0.6-2c-0.2-0.6-0.5-1.3-0.7-1.8C18.2,18.3,16.4,5.2,26.7,3l0.2-0.4c0,0,0.1,0.1,0.2,0.2c0.1,0.1,0-0.9,0-0.9
			l0.7,0.5c0,0,0.6-0.8,1.2-0.1c0.6,0.6,0.5-0.4,0.3-0.8c0.3,0.2,0.8,0.7,0.9,0.9c0.2,0.3,0.4-0.6,1.5-0.5c1.1,0.1,1.8,0.3,2.3,0.5
			s1.4,0.6,1.6,0.8s1,0.5,1,0.5l0,0.4C36.5,4.1,43.9,4.3,43.4,18.8z"/>
		<path class="st0" d="M42.2,23.5L42.2,23.5l0-2.2l0.1-0.1l0.1-2.3l-1.2-2.5l0.6,0.5l-0.6-1.1l0.4-0.1l-0.3-0.6l0.4-0.1l-0.1-0.2
			l-0.4-0.8l0.5,0.2c-0.2-0.2-0.4-0.4-0.5-0.6c-0.4-0.4-0.5-0.8-0.5-1l0,0l0.1,0l-0.1-0.8l0.6,0.3l-0.9-1l0.5,0.1
			c-0.2-0.3-1.3-2-2.2-2c-0.1,0-0.2,0-0.2,0l0,0l0,0l-1.3-1.3L38,9.5l-0.6-0.1c-0.1,0-2.4,0.2-3.2-0.1c-0.7-0.2-1-0.8-1.1-1
			c-0.1,0.3-0.3,0.9-0.1,1c0,0,0,0,0,0.1c0,0,0,0-0.1,0c-0.3,0-1.5-0.1-1.7-0.4c0,0,0,0,0,0c0,0.1,0,0.4,0.2,0.9l0,0l-0.1,0
			c-0.2-0.8-0.5-1.5-0.6-1.5c0,0,0,0,0,0c-0.1,0.2-0.1,1.3-0.1,1.3l0,0l0,0C30,9.4,29,9,28.7,9c0,0,0,0-0.1,0c0,0,0,0,0,0
			c0,0,0,0.1,0,0.1c0,0,0,0,0,0c-0.1,0-0.6-0.5-0.8-0.7v0.7l-1.4-0.3l0.3,0.5L25.4,9l0.1,0.4l-1.4-0.1l0.2,0.2l-0.8,0.2l-0.9,0.5
			l0.2,0.2l-1,0.6l0.2,0.2l0,0l-0.9,1.1l0,0.9h-0.2l0,0.1l0,0l-0.7,0.9l1.2-0.5l0,0.1l-0.8,1.1l0.3,0.3l0,0l-0.6,1.3
			c0,0.1-0.1,0.9-0.1,1.1c0,0.2-0.2,1-0.2,1c0,0.1-0.1,1.6-0.2,1.7c0,0,0,0.1,0,0.8c0,0.5,0,1.1,0.1,2l-0.1,0
			c-0.1-0.5-0.3-1.2-0.6-2c-0.2-0.7-0.5-1.3-0.7-1.7l0,0c-0.1-0.7-0.6-4.2,0.2-7.8C19,9.5,19.9,7.7,21,6.3c1.4-1.7,3.3-2.8,5.6-3.3
			l0.2-0.4l0,0c0,0,0.1,0.1,0.2,0.2c0-0.1,0-0.5,0-0.8l0-0.1l0.7,0.5C27.8,2.3,28,2,28.3,2c0,0,0,0,0.1,0c0.2,0,0.4,0.1,0.6,0.3
			c0.1,0.1,0.3,0.2,0.3,0.2c0.1-0.1,0.1-0.6-0.1-0.9l-0.1-0.1l0.2,0.1c0.3,0.2,0.8,0.7,0.9,0.9c0,0,0,0.1,0.1,0.1c0,0,0,0,0,0
			c0,0,0.1-0.1,0.2-0.1c0.2-0.2,0.5-0.5,1.2-0.4c1.1,0.1,1.9,0.3,2.3,0.5c0.2,0.1,0.6,0.3,0.9,0.4c0.3,0.1,0.6,0.3,0.7,0.3
			c0.2,0.1,1,0.5,1,0.5l0,0l0,0.4c0.2,0,2,0.2,3.7,2c1,1.1,1.8,2.6,2.4,4.4c0.7,2.3,1,5.1,0.9,8.4l0,0.1c-0.1,0.2-0.2,0.4-0.2,0.7
			c0,0.4-0.3,1.1-0.5,1.7l0,0.1c-0.1,0.2-0.1,0.3-0.1,0.5c-0.1,0.2-0.1,0.5-0.2,0.8C42.4,22.9,42.4,23.3,42.2,23.5L42.2,23.5z
			 M42.3,21.3l0,2c0.1-0.2,0.2-0.5,0.2-0.9c0-0.3,0.1-0.6,0.2-0.8c0-0.1,0.1-0.3,0.1-0.5l0-0.1c0.2-0.6,0.4-1.3,0.5-1.6
			c0-0.2,0.1-0.5,0.2-0.7v-0.1c0.2-7.5-1.7-11.1-3.3-12.7c-1.8-1.8-3.6-1.9-3.6-1.9l0,0l0-0.4c-0.1,0-0.8-0.3-1-0.5
			c-0.1-0.1-0.4-0.2-0.7-0.3c-0.3-0.1-0.7-0.3-0.9-0.4c-0.4-0.2-1.1-0.4-2.3-0.5c-0.1,0-0.1,0-0.2,0c-0.5,0-0.8,0.3-1,0.4
			c-0.1,0.1-0.1,0.1-0.2,0.1c0,0,0,0,0,0c0,0-0.1,0-0.1-0.1c-0.1-0.2-0.6-0.6-0.8-0.8c0.1,0.3,0.2,0.7,0,0.8c-0.1,0.1-0.2,0-0.4-0.2
			C28.8,2.1,28.6,2,28.4,2c0,0,0,0-0.1,0c-0.4,0-0.6,0.4-0.6,0.4l0,0l0,0l-0.6-0.5c0,0.4,0.1,0.8,0,0.8c0,0,0,0,0,0
			c-0.1,0-0.2-0.1-0.2-0.1L26.7,3l0,0c-4.3,0.9-7,3.8-8,8.6c-0.8,3.6-0.3,7.1-0.2,7.8c0.2,0.4,0.5,1,0.7,1.8
			c0.2,0.6,0.4,1.3,0.5,1.7c0-0.7-0.1-1.3-0.1-1.7c0-0.7,0-0.8,0-0.8c0.1-0.1,0.2-1.3,0.2-1.7c0,0,0.2-0.8,0.2-1
			c0-0.2,0.1-1.1,0.1-1.1l0,0l0.6-1.3l-0.3-0.3l0.7-1.1L20,14.3l0.8-1l0-0.1h0.3l0-0.8l0,0l0.9-1.1L21.7,11l0,0l1-0.6l-0.3-0.2l0,0
			l0.9-0.5l0.7-0.2L24,9.3l1.5,0.1l-0.1-0.4l0,0l1.2,0.3l-0.3-0.5l1.5,0.3V8.3l0,0.1c0.3,0.4,0.7,0.7,0.8,0.7c0,0,0,0,0,0
			c0,0,0,0,0,0c0,0,0,0,0-0.1c0.2-0.1,1.7,0.5,2,0.7c0-0.2,0-1,0.1-1.3c0,0,0,0,0.1,0c0.1,0,0.3,0.5,0.4,0.9c-0.1-0.4,0-0.4,0-0.4
			c0,0,0.1,0,0.1,0.1c0.1,0.1,0.3,0.2,0.7,0.3c0.4,0.1,0.9,0.1,1,0.1c0,0,0,0,0,0c-0.3-0.1,0.1-1,0.1-1.1l0-0.1l0,0.1
			c0,0,0.3,0.7,1.1,1c0.8,0.3,3.2,0.1,3.2,0.1l0.5,0.1l-1-1.4l0,0l1.5,1.5c1.1-0.4,2.5,1.9,2.6,2l0,0.1l-0.5-0.1l0.9,1.1l-0.3-0.2
			L40.7,12l0.1,0.7l-0.1,0c0,0.2,0.1,0.5,0.5,0.9c0.2,0.3,0.4,0.5,0.6,0.7l0.1,0.1l-0.6-0.3l0.3,0.6l0.1,0.3l-0.4,0.1l0.3,0.5
			l-0.4,0.1l0.7,1.3l-0.7-0.5l1.1,2.3l-0.1,2.3L42.3,21.3z"/>
	</g>
	<g id="Labios">
		<path class="st0" d="M35.2,30.5c0,0-3.8,4.4-9,0.1c0.9-0.2,1.9-0.5,2.7-0.8c0.1,0,0.2-0.1,0.3-0.1h0c0.1,0,0.2,0,0.3,0
			c0.2,0,0.3,0,0.5,0.1c0,0,0,0,0,0c0,0,0.1,0.1,0.1,0.1c0.2,0.1,0.4,0.1,0.6,0.1c0.2,0,0.4,0,0.6-0.1c0.1,0,0.1,0,0.2-0.1
			c0,0,0.1,0,0.2,0c0.1,0,0.3,0,0.4,0c0.1,0,0.1,0,0.2,0l0.1,0l0,0c0.1,0,0.2,0.1,0.4,0.1C33.5,30,34.8,30.4,35.2,30.5z"/>
		<path class="st0" d="M30.8,32.5c-1.3,0-2.9-0.4-4.6-1.9l0,0l0.1,0c0.9-0.2,1.9-0.5,2.7-0.8c0.1,0,0.2-0.1,0.3-0.1l0,0
			c0.1,0,0.2,0,0.3,0c0,0,0,0,0,0c0.2,0,0.3,0,0.5,0.1l0,0c0,0,0,0,0,0c0,0,0.1,0.1,0.1,0.1c0.2,0.1,0.4,0.1,0.6,0.1c0,0,0,0,0.1,0
			c0.2,0,0.4,0,0.5-0.1c0.1,0,0.1,0,0.1-0.1l0,0c0.1,0,0.1,0,0.2,0c0.2,0,0.4-0.1,0.6,0l0.1,0c0.1,0,0.2,0.1,0.4,0.1
			c0.6,0.2,1.9,0.6,2.5,0.7l0,0l0,0c0,0-1,1.1-2.6,1.7C32.2,32.3,31.5,32.5,30.8,32.5z M26.3,30.6c2.7,2.2,5,2,6.4,1.5
			c1.4-0.5,2.3-1.4,2.5-1.6c-0.5-0.1-1.9-0.5-2.4-0.7c-0.2-0.1-0.4-0.1-0.4-0.1l-0.1,0c-0.2,0-0.4,0-0.6,0c0,0-0.1,0-0.1,0
			c0,0-0.1,0.1-0.2,0.1c-0.2,0.1-0.4,0.1-0.6,0.1c0,0-0.1,0-0.1,0c-0.2,0-0.4,0-0.6-0.1c-0.1,0-0.1,0-0.1-0.1c0,0,0,0,0,0l0,0
			c-0.1-0.1-0.3-0.1-0.4-0.1c0,0,0,0,0,0c-0.1,0-0.2,0-0.3,0l0,0c-0.1,0-0.2,0.1-0.3,0.1C28.1,30.1,27.2,30.4,26.3,30.6z"/>
	</g>
	<g>
		<path class="st0" d="M26.5,30.6c1.7,0,1.9,0.1,1.9,0.1l1.5-0.1c0,0,1.8,0.1,1.9,0.1s3.1-0.1,3.1-0.1"/>
	</g>
	<g>
		<path class="st0" d="M26.5,30.6c0.3,0,0.6,0,1,0c0.2,0,0.3,0,0.5,0c0.1,0,0.2,0,0.2,0c0,0,0.1,0,0.1,0c0,0,0.1,0,0.1,0h0
			c0.5-0.1,1-0.1,1.5-0.2h0l1.2,0.1l0.6,0l0.6,0l1.2,0l1.2,0l-1.3,0.1l-1.2,0.1l-0.6,0l-0.6,0l-1.2-0.1h0c-0.5,0-1,0.1-1.5,0.1l0,0
			h0c0,0-0.1,0-0.1,0c0,0-0.1,0-0.1,0c-0.1,0-0.2,0-0.2,0c-0.2,0-0.3,0-0.5,0C27.1,30.6,26.8,30.6,26.5,30.6z"/>
	</g>
	<g id="Barba">
		<path class="st0" d="M40.9,30.5c0,0-1.3,8-9.2,9h-0.1l-0.4,0l-0.8,0h-0.1c-7.9-1-9.2-9-9.2-9l4.8,5.1c3.4,2.6,3.7-0.8,3.7-0.8
			s-0.2-1.5,1.4-1.5v0c1.4,0.1,1.2,1.5,1.2,1.5s0.3,3.4,3.7,0.8L40.9,30.5z"/>
		<path class="st0" d="M31.2,39.5l-0.8,0c-1.8-0.2-3.4-0.8-4.8-1.8c-1.1-0.8-2-1.8-2.8-3c-1.3-2.1-1.6-4.1-1.6-4.1l0-0.1l0.1,0.1
			l4.8,5.1c1.1,0.9,2.1,1.1,2.7,0.8c0.9-0.4,1-1.6,1-1.6c0,0-0.1-0.7,0.3-1.1c0.2-0.3,0.6-0.4,1.1-0.4h0v0c0.4,0,0.7,0.2,0.9,0.4
			c0.4,0.4,0.3,1.1,0.3,1.1c0,0,0.1,1.2,1,1.6c0.7,0.3,1.6,0,2.7-0.8l4.9-5.1l0,0.1c0,0-0.3,2-1.6,4.1c-0.8,1.2-1.7,2.3-2.8,3
			c-1.4,1-3,1.6-4.8,1.8h-0.1L31.2,39.5z M30.4,39.4l0.8,0l0.5,0c4.1-0.5,6.4-2.9,7.5-4.8c1.1-1.8,1.5-3.6,1.6-4l-4.7,5
			c-1.2,0.9-2.1,1.2-2.8,0.9c-0.9-0.4-1-1.7-1-1.7c0,0,0.1-0.6-0.3-1.1c-0.2-0.2-0.5-0.4-0.9-0.4l0,0v0c-0.4,0-0.8,0.1-1,0.4
			c-0.4,0.4-0.3,1.1-0.3,1.1c0,0-0.1,1.3-1,1.7c-0.7,0.3-1.6,0-2.8-0.9l-4.7-5c0.1,0.4,0.5,2.2,1.6,4C24,36.5,26.3,38.9,30.4,39.4
			L30.4,39.4z"/>
	</g>
	<g>
		<line class="st2" x1="22.4" y1="39.9" x2="14.6" y2="41.6"/>
	</g>
	<g>
		<path class="st0" d="M22.4,39.9c-0.6,0.2-1.3,0.3-1.9,0.5l-1.9,0.5l-1,0.2c-0.3,0.1-0.6,0.1-1,0.2l-0.5,0.1
			c-0.2,0-0.3,0.1-0.5,0.1c-0.3,0.1-0.7,0.1-1,0.1l0,0c0.3-0.1,0.6-0.2,1-0.3c0.2,0,0.3-0.1,0.5-0.1l0.5-0.1c0.3-0.1,0.6-0.1,1-0.2
			l1-0.2l1.9-0.4C21.1,40.1,21.7,40,22.4,39.9L22.4,39.9z"/>
	</g>
	<g>
		<line class="st2" x1="47" y1="41.2" x2="40.2" y2="39.9"/>
	</g>
	<g>
		<path class="st0" d="M47,41.2c-0.6-0.1-1.1-0.2-1.7-0.3l-1.7-0.3c-0.3,0-0.6-0.1-0.9-0.1s-0.6-0.1-0.8-0.2l-0.4-0.1
			c-0.1,0-0.3-0.1-0.4-0.1c-0.3-0.1-0.6-0.1-0.8-0.2l0,0c0.3,0,0.6,0,0.9,0.1c0.1,0,0.3,0,0.4,0.1l0.4,0.1c0.3,0,0.6,0.1,0.8,0.2
			c0.3,0.1,0.6,0.1,0.8,0.2l1.7,0.4C45.9,41,46.4,41.1,47,41.2L47,41.2z"/>
	</g>
	<g>
		<polygon class="st0" points="22.5,32.6 22.4,39.9 31,48.4 40.3,39.9 40.3,32.1 35.4,37.2 30.1,37.9 26,36.4 		"/>
		<path class="st0" d="M31,48.6L31,48.6L22.3,40l0-0.1l0.1-7.6l3.7,4l4,1.5l5.3-0.7l5.1-5.3l0,8.2l0,0L31,48.6z M22.5,39.8l8.5,8.4
			l9.2-8.4l0-7.4l-4.7,4.9l0,0L30.1,38l0,0l-4.2-1.5L22.6,33L22.5,39.8z"/>
	</g>
	<g>
		<path class="st0" d="M28.8,25.8c0,0,0.5-0.4,1.8,1l0.6,0c0,0,1.2-1.7,1.8-0.7"/>
	</g>
	<g>
		<path class="st0" d="M28.8,25.8c0.1-0.1,0.2-0.1,0.3-0.1c0,0,0.1,0,0.1,0c0,0,0.1,0,0.1,0c0.2,0.1,0.3,0.2,0.5,0.3
			c0.1,0.1,0.2,0.1,0.2,0.2c0.1,0.1,0.1,0.1,0.2,0.2c0.1,0.1,0.3,0.3,0.4,0.4l0,0c0.2,0,0.4,0,0.6,0l0,0c0.1-0.2,0.2-0.3,0.4-0.4
			c0.1-0.1,0.3-0.3,0.4-0.4c0.1-0.1,0.2-0.1,0.3-0.1c0.1,0,0.2-0.1,0.3-0.1c0.1,0,0.2,0,0.3,0.1c0.1,0.1,0.1,0.1,0.2,0.2
			c0-0.1-0.1-0.2-0.2-0.2c-0.1-0.1-0.2-0.1-0.3-0.1c-0.1,0-0.2,0-0.3,0.1c-0.1,0-0.2,0.1-0.2,0.1c-0.1,0.1-0.2,0.1-0.2,0.2
			c-0.1,0.1-0.1,0.1-0.2,0.2c-0.1,0.1-0.3,0.3-0.4,0.4l0,0h0c-0.2,0-0.4,0-0.6,0h0l0,0c-0.1-0.1-0.3-0.3-0.4-0.4
			c-0.1-0.1-0.1-0.1-0.2-0.2c-0.1-0.1-0.1-0.1-0.2-0.2c-0.1-0.1-0.3-0.2-0.5-0.3c0,0-0.1,0-0.1,0c0,0-0.1,0-0.1,0c0,0,0,0-0.1,0
			c0,0,0,0-0.1,0C28.9,25.8,28.8,25.8,28.8,25.8z"/>
	</g>
	<g>
		<path class="st0" d="M33.3,24.2c0,0,1.2,1.3,0,2.5"/>
	</g>
	<g>
		<path class="st0" d="M33.3,24.2c0.2,0.2,0.3,0.4,0.4,0.6c0.1,0.2,0.2,0.4,0.2,0.7c0,0.1,0,0.2,0,0.4c0,0.1-0.1,0.2-0.1,0.3
			c-0.1,0.2-0.2,0.4-0.4,0.6l0,0c0.2-0.2,0.3-0.4,0.4-0.6c0-0.1,0.1-0.2,0.1-0.3c0-0.1,0-0.2,0-0.3c0-0.2-0.1-0.5-0.2-0.7
			C33.6,24.6,33.4,24.4,33.3,24.2L33.3,24.2z"/>
	</g>
	<g>
		<path class="st0" d="M28.7,26.8c0,0-1.5-1.3-0.2-2.6"/>
	</g>
	<g>
		<path class="st0" d="M28.7,26.8c-0.2-0.2-0.3-0.4-0.5-0.6C28.1,26,28,25.8,28,25.5c0-0.1,0-0.3,0-0.4c0-0.1,0.1-0.2,0.1-0.4
			c0.1-0.2,0.3-0.4,0.5-0.6l0,0c-0.2,0.2-0.3,0.4-0.4,0.6c0,0.1-0.1,0.2-0.1,0.3c0,0.1,0,0.2,0,0.4c0,0.2,0.1,0.5,0.2,0.7
			C28.4,26.4,28.5,26.6,28.7,26.8L28.7,26.8z"/>
	</g>
	<g>
		<ellipse class="st0" cx="25.7" cy="19.2" rx="0.5" ry="0.5"/>
		<path class="st0" d="M25.7,19.7c-0.3,0-0.5-0.2-0.5-0.5s0.2-0.5,0.5-0.5s0.5,0.2,0.5,0.5S26,19.7,25.7,19.7z M25.7,18.8
			c-0.2,0-0.4,0.2-0.4,0.4s0.2,0.4,0.4,0.4s0.4-0.2,0.4-0.4S25.9,18.8,25.7,18.8z"/>
	</g>
	<g>
		<path class="st0" d="M28.3,20L28.3,20c-0.5,0.2-1,0.4-1.5,0.5c-1.1,0.3-2.6,0.3-3.2-1.1c0.3-0.2,0.7-0.4,1.1-0.6
			c0,0.1-0.1,0.2-0.1,0.4c0,0.6,0.5,1.1,1.1,1.1c0.6,0,1.1-0.5,1.1-1.1c0-0.1,0-0.2-0.1-0.4C27.3,19.1,27.8,19.4,28.3,20z"/>
	</g>
	<g>
		<path class="st0" d="M28.3,20c-0.2,0.1-0.4,0.2-0.6,0.3c-0.2,0.1-0.4,0.1-0.6,0.2c-0.4,0.1-0.9,0.2-1.3,0.2
			c-0.4,0-0.9-0.1-1.3-0.3c-0.2-0.1-0.4-0.2-0.5-0.4c-0.1-0.2-0.3-0.4-0.3-0.6l0,0l0,0c0.1-0.1,0.2-0.1,0.3-0.2
			c0.1-0.1,0.2-0.1,0.3-0.2c0.2-0.1,0.4-0.2,0.6-0.2l0,0l0,0c-0.1,0.3-0.1,0.7,0.1,1c0.1,0.1,0.2,0.3,0.4,0.3
			c0.2,0.1,0.3,0.1,0.5,0.1c0.2,0,0.3,0,0.5-0.1c0.2-0.1,0.3-0.2,0.4-0.3c0.2-0.3,0.3-0.6,0.1-1l0,0l0,0c0.3,0.1,0.6,0.3,0.8,0.5
			c0.1,0.1,0.2,0.2,0.3,0.3C28.1,19.8,28.2,19.9,28.3,20z M28.3,20c-0.1-0.1-0.2-0.2-0.3-0.4c-0.1-0.1-0.2-0.2-0.3-0.3
			c-0.2-0.2-0.5-0.4-0.8-0.5l0,0c0.2,0.5,0,1.1-0.5,1.4c-0.3,0.2-0.7,0.2-1,0c-0.5-0.3-0.7-0.8-0.6-1.4l0,0
			c-0.2,0.1-0.4,0.1-0.6,0.2c-0.1,0-0.2,0.1-0.3,0.1c-0.1,0.1-0.2,0.1-0.3,0.2l0,0c0.1,0.2,0.2,0.4,0.3,0.6c0.1,0.1,0.1,0.2,0.2,0.2
			c0.1,0.1,0.2,0.1,0.3,0.2c0.4,0.2,0.8,0.3,1.3,0.3c0.4,0,0.9-0.1,1.3-0.2C27.5,20.4,27.9,20.2,28.3,20L28.3,20z"/>
	</g>
	<g>
		<path class="st0" d="M26.9,19.2c0,0.6-0.5,1.1-1.1,1.1c-0.6,0-1.1-0.5-1.1-1.1c0-0.1,0-0.2,0.1-0.4c0.6-0.2,1.3-0.3,2.1,0
			C26.8,19,26.9,19.1,26.9,19.2z"/>
		<path class="st0" d="M25.8,20.3C25.7,20.3,25.7,20.3,25.8,20.3c-0.6,0-1.1-0.5-1.1-1.1c0-0.1,0-0.3,0.1-0.4l0,0l0,0
			c0.7-0.2,1.5-0.3,2.1,0l0,0l0,0c0,0.1,0.1,0.2,0.1,0.4v0c0,0.3-0.1,0.6-0.4,0.8C26.3,20.2,26.1,20.3,25.8,20.3z M24.7,18.9
			c0,0.1-0.1,0.2-0.1,0.3c0,0.6,0.5,1,1.1,1.1c0,0,0,0,0,0c0.3,0,0.5-0.1,0.7-0.3c0.2-0.2,0.3-0.5,0.3-0.8c0-0.1,0-0.2-0.1-0.3
			C26,18.6,25.2,18.7,24.7,18.9z"/>
	</g>
	<g>
		<path class="st0" d="M20.3,26.5c-0.4-1.2-0.5-3.4-0.5-3.4c-0.8-1.2-0.1-1.4-0.1-1.4s-1.3-3.5-0.7,0.1"/>
	</g>
	<g>
		<path class="st0" d="M20.3,26.5c-0.1-0.3-0.2-0.5-0.2-0.8c-0.1-0.3-0.1-0.6-0.2-0.8c0-0.1,0-0.3-0.1-0.4c0-0.1,0-0.3,0-0.4
			c0-0.3,0-0.6-0.1-0.9v0L19.6,23l0,0l0,0l0-0.1c-0.1-0.1-0.1-0.2-0.2-0.4c0-0.1,0-0.3,0-0.4c0-0.1,0.1-0.3,0.2-0.3l0,0
			c-0.1-0.3-0.2-0.5-0.3-0.8c-0.1-0.1-0.1-0.3-0.2-0.4c0-0.1-0.1-0.1-0.1-0.2c0-0.1-0.1-0.1-0.1-0.2c0,0,0,0,0,0c0,0,0,0,0,0
			c0,0,0,0.1,0,0.1c0,0.1,0,0.1,0,0.2c0,0.1,0,0.3,0,0.4c0,0.1,0,0.3,0,0.4s0,0.3,0.1,0.4h0c0-0.1-0.1-0.3-0.1-0.4s0-0.3-0.1-0.4
			s0-0.3,0-0.4c0-0.1,0-0.1,0-0.2c0,0,0-0.1,0-0.1c0,0,0,0,0,0c0,0,0,0,0,0c0,0,0,0,0,0c0,0,0,0,0.1,0c0.1,0,0.1,0.1,0.1,0.2
			c0,0.1,0.1,0.1,0.1,0.2c0.1,0.1,0.1,0.3,0.2,0.4c0.1,0.3,0.2,0.5,0.3,0.8l0,0l0,0c-0.1,0-0.1,0.1-0.1,0.1c0,0,0,0,0,0l0,0l0,0l0,0
			l0,0c0,0.1,0,0.3,0,0.4c0,0.1,0.1,0.3,0.1,0.4l0,0.1l0,0l0,0l0.1,0.2l0,0l0,0c0,0.3,0,0.6,0.1,0.8c0,0.1,0,0.3,0.1,0.4
			c0,0.1,0,0.3,0.1,0.4c0,0.3,0.1,0.6,0.1,0.8c0,0.1,0,0.1,0,0.2c0,0.1,0,0.1,0,0.2c0,0.1,0,0.1,0.1,0.2L20.3,26.5L20.3,26.5z"/>
	</g>
	<g>
		<path class="st0" d="M19.8,23.4c0,0-0.9,0-1-1.2"/>
	</g>
	<g>
		<path class="st0" d="M19.8,23.4c-0.1,0-0.3,0-0.4-0.1c0,0,0,0,0,0l0,0c0,0,0,0,0,0l0,0l0,0c0,0,0,0,0,0c0,0-0.1,0-0.1-0.1
			c0,0,0-0.1-0.1-0.1c0,0,0-0.1-0.1-0.1l0,0c0,0,0,0,0,0c0,0,0-0.1,0-0.1c0-0.1,0-0.1-0.1-0.2c0-0.1,0-0.1,0-0.2h0
			c0,0.1,0,0.1,0.1,0.2c0,0.1,0,0.1,0.1,0.2c0,0.1,0.1,0.3,0.2,0.4c0,0,0,0,0,0c0,0,0,0,0,0c0,0,0,0,0,0l0,0l0,0c0,0,0,0,0,0l0,0
			c0,0,0,0,0,0c0.1,0,0.1,0.1,0.2,0.1C19.6,23.4,19.7,23.4,19.8,23.4L19.8,23.4z"/>
	</g>
	<g>
		<path class="st0" d="M19,23.8c0,0-1,0-0.9-3.7c0,0-0.3-1-0.2-2"/>
	</g>
	<g>
		<path class="st0" d="M19,23.8c-0.1,0-0.2,0-0.2-0.1c0,0-0.1-0.1-0.1-0.1c0,0-0.1-0.1-0.1-0.1c-0.1-0.1-0.2-0.3-0.2-0.4
			c0-0.1-0.1-0.2-0.1-0.2c0-0.1,0-0.2-0.1-0.2l0-0.2c0,0,0-0.1,0-0.1l0-0.1c0-0.1,0-0.2,0-0.2s0-0.2,0-0.2l0-0.2c0-0.1,0-0.2,0-0.2
			c0-0.3,0-0.7,0-1v0c-0.1-0.2-0.1-0.3-0.1-0.5c0-0.2-0.1-0.3-0.1-0.5c0-0.2,0-0.3,0-0.5c0-0.2,0-0.3,0-0.5h0c0,0.2,0,0.3,0,0.5
			c0,0.2,0,0.3,0,0.5c0,0.2,0,0.3,0.1,0.5c0,0.2,0.1,0.3,0.1,0.5v0v0c0,0.3,0,0.7,0,1c0,0.1,0,0.2,0,0.2l0,0.2c0,0.1,0,0.2,0,0.2
			s0,0.2,0,0.2c0,0.2,0.1,0.3,0.1,0.5c0,0.2,0.1,0.3,0.1,0.5c0.1,0.2,0.1,0.3,0.2,0.4c0,0,0,0.1,0.1,0.1s0.1,0.1,0.1,0.1
			C18.8,23.7,18.9,23.8,19,23.8L19,23.8z"/>
	</g>
	<g>
		<path class="st0" d="M17.7,20.1c0,0-1.5-5.8,1-0.6"/>
	</g>
	<g>
		<path class="st0" d="M17.7,20.1c-0.1-0.4-0.2-0.9-0.3-1.3c0-0.2-0.1-0.5-0.1-0.7c0-0.1,0-0.2,0-0.3c0-0.1,0-0.2,0-0.3
			c0,0,0-0.1,0-0.1c0,0,0,0,0,0l0,0c0,0,0,0,0,0c0,0,0,0,0,0c0,0,0,0,0,0l0,0l0,0c0.1,0.1,0.2,0.2,0.2,0.3c0.1,0.2,0.3,0.4,0.4,0.6
			c0.2,0.4,0.4,0.8,0.6,1.2h0c-0.2-0.4-0.4-0.8-0.6-1.2c-0.1-0.2-0.2-0.4-0.4-0.6c-0.1-0.1-0.1-0.2-0.2-0.3l0,0l0,0c0,0,0,0,0,0
			c0,0,0,0,0,0c0,0-0.1,0-0.1,0.1c0,0.1,0,0.2,0,0.3c0,0.1,0,0.2,0,0.3c0,0.2,0.1,0.4,0.1,0.7C17.5,19.2,17.6,19.6,17.7,20.1
			L17.7,20.1z"/>
	</g>
	<g>
		<ellipse class="st0" cx="35.8" cy="19.1" rx="0.5" ry="0.5"/>
		<path class="st0" d="M35.8,19.6c-0.3,0-0.5-0.2-0.5-0.5s0.2-0.5,0.5-0.5s0.5,0.2,0.5,0.5S36.1,19.6,35.8,19.6z M35.8,18.7
			c-0.2,0-0.4,0.2-0.4,0.4s0.2,0.4,0.4,0.4s0.4-0.2,0.4-0.4S36,18.7,35.8,18.7z"/>
	</g>
	<g>
		<path class="st0" d="M36.8,18.8c0,0.1,0.1,0.2,0.1,0.4c0,0.6-0.5,1.1-1.1,1.1c-0.6,0-1.1-0.5-1.1-1.1c0-0.1,0-0.3,0.1-0.4"/>
		<path class="st0" d="M35.7,20.3c-0.6,0-1.1-0.5-1.1-1.1c0-0.1,0-0.3,0.1-0.4l0,0c0,0.1-0.1,0.2-0.1,0.4
			C34.6,19.8,35.1,20.2,35.7,20.3C35.7,20.2,35.7,20.2,35.7,20.3c0.3-0.1,0.6-0.2,0.8-0.4c0.2-0.2,0.3-0.5,0.3-0.8
			c0-0.1,0-0.2-0.1-0.4l0,0c0,0.1,0.1,0.2,0.1,0.4c0,0.3-0.1,0.6-0.3,0.8S36,20.3,35.7,20.3C35.7,20.3,35.7,20.3,35.7,20.3z"/>
	</g>
	<g>
		<path class="st0" d="M33.2,20L33.2,20c0.5,0.2,1,0.4,1.5,0.5c1.1,0.3,2.6,0.3,3.2-1.1c-0.3-0.2-0.7-0.4-1.1-0.6
			c0.2,0.6-0.1,1.2-0.7,1.4c-0.6,0.2-1.2-0.1-1.4-0.7c0-0.1,0-0.2-0.1-0.3c0-0.1,0-0.2,0.1-0.4C34.2,19,33.7,19.3,33.2,20z"/>
	</g>
	<g>
		<path class="st0" d="M33.2,20c0.4,0.2,0.8,0.3,1.2,0.4c0.4,0.1,0.9,0.2,1.3,0.2c0.4,0,0.9-0.1,1.3-0.3c0.1-0.1,0.2-0.1,0.3-0.2
			c0.1-0.1,0.2-0.1,0.2-0.2c0.1-0.2,0.3-0.4,0.3-0.6l0,0c-0.1-0.1-0.2-0.1-0.3-0.2c-0.1-0.1-0.2-0.1-0.3-0.1
			c-0.2-0.1-0.4-0.2-0.6-0.2l0,0c0.2,0.5,0,1.1-0.6,1.4c-0.3,0.2-0.7,0.2-1,0c-0.5-0.3-0.7-0.8-0.5-1.4l0,0
			c-0.3,0.1-0.6,0.3-0.8,0.5c-0.1,0.1-0.2,0.2-0.3,0.3C33.4,19.7,33.3,19.8,33.2,20z M33.2,20c0.1-0.1,0.2-0.3,0.3-0.4
			c0.1-0.1,0.2-0.2,0.3-0.3c0.2-0.2,0.5-0.4,0.8-0.5l0,0l0,0c-0.1,0.3-0.1,0.7,0.1,1c0.1,0.1,0.2,0.3,0.4,0.3c0.3,0.2,0.7,0.2,1,0
			c0.2-0.1,0.3-0.2,0.4-0.3c0.2-0.3,0.3-0.6,0.1-1l0,0l0,0c0.2,0.1,0.4,0.2,0.6,0.2c0.1,0,0.2,0.1,0.3,0.2c0.1,0.1,0.2,0.1,0.3,0.2
			l0,0l0,0c-0.1,0.2-0.2,0.4-0.3,0.6c-0.1,0.1-0.2,0.2-0.2,0.2c-0.1,0.1-0.2,0.1-0.3,0.2c-0.4,0.2-0.8,0.3-1.3,0.3
			c-0.4,0-0.9-0.1-1.3-0.2c-0.2-0.1-0.4-0.1-0.6-0.2C33.6,20.1,33.4,20.1,33.2,20z"/>
	</g>
	<g>
		<path class="st0" d="M34.6,19.2c0,0.6,0.5,1.1,1.1,1.1s1.1-0.5,1.1-1.1c0-0.1,0-0.3-0.1-0.4c-0.6-0.2-1.3-0.3-2.1,0
			C34.6,18.9,34.6,19,34.6,19.2z"/>
		<path class="st0" d="M35.7,20.3C35.7,20.3,35.7,20.3,35.7,20.3c-0.6,0-1.1-0.5-1.1-1.1c0-0.1,0-0.3,0.1-0.4l0,0l0,0
			c0.6-0.3,1.4-0.3,2.1,0l0,0l0,0c0,0.1,0.1,0.3,0.1,0.4c0,0.3-0.1,0.6-0.3,0.8C36.3,20.2,36,20.3,35.7,20.3z M34.7,18.8
			c0,0.1-0.1,0.2-0.1,0.3l0,0c0,0.6,0.5,1.1,1.1,1.1c0,0,0,0,0,0c0.3,0,0.6-0.1,0.8-0.3c0.2-0.2,0.3-0.5,0.3-0.8
			c0-0.1,0-0.2-0.1-0.4C36,18.6,35.3,18.6,34.7,18.8z"/>
	</g>
	<g>
		<path class="st0" d="M42.5,22.1c0,0-0.2,4.3-0.5,4.5"/>
		<path class="st0" d="M41.9,26.6L41.9,26.6c0.2-0.2,0.4-3.3,0.5-4.5l0.1,0C42.5,22.3,42.2,26.4,41.9,26.6z"/>
	</g>
	<g>
		<path class="st0" d="M42.9,22.2c0,0,0.1-2.7,0.6-0.1c0,0-0.3,0.4-0.2,0.8c0,0,0.3,0.7-0.1,0.9s-0.7,0.2-0.4-0.4
			C43.1,22.7,42.9,22.2,42.9,22.2z"/>
	</g>
	<g>
		<path class="st0" d="M42.9,22.2c0-0.2,0-0.4,0-0.6c0-0.1,0-0.2,0-0.3c0-0.1,0-0.1,0-0.2c0,0,0-0.1,0-0.1c0,0,0-0.1,0.1-0.1
			c0,0,0,0,0.1,0c0,0,0,0,0,0c0,0,0,0,0,0.1c0,0,0,0.1,0.1,0.1c0,0.1,0.1,0.2,0.1,0.3c0,0.2,0.1,0.4,0.1,0.6v0l0,0
			c-0.1,0.1-0.1,0.2-0.2,0.4c0,0.1,0,0.1,0,0.2c0,0.1,0,0.1,0,0.2v0c0.1,0.1,0.1,0.3,0.1,0.4c0,0.1,0,0.1,0,0.2c0,0.1,0,0.1-0.1,0.2
			c0,0.1-0.1,0.1-0.2,0.1c-0.1,0-0.1,0.1-0.2,0.1c-0.1,0-0.1,0-0.2,0c0,0-0.1,0-0.1-0.1c0,0,0-0.1,0-0.1c0-0.1,0-0.1,0-0.2
			c0-0.1,0.1-0.1,0.1-0.2c0.1-0.1,0.1-0.2,0.1-0.4c0-0.1,0-0.3,0-0.4C42.9,22.4,42.9,22.3,42.9,22.2z M42.9,22.2
			C43,22.4,43,22.7,43,23c0,0.1-0.1,0.3-0.1,0.4c0,0.1-0.1,0.1-0.1,0.2c0,0.1,0,0.1,0,0.2c0,0,0,0.1,0,0.1c0,0,0,0,0.1,0
			c0.1,0,0.1,0,0.2,0c0.1,0,0.1,0,0.2-0.1c0,0,0.1,0,0.1,0c0,0,0,0,0.1-0.1c0-0.1,0.1-0.1,0.1-0.2c0-0.1,0-0.1,0-0.2
			c0-0.1-0.1-0.3-0.1-0.4l0,0l0,0c0-0.1,0-0.1,0-0.2c0-0.1,0-0.1,0.1-0.2c0-0.1,0.1-0.1,0.1-0.2c0-0.1,0.1-0.1,0.1-0.2v0
			c0-0.2-0.1-0.4-0.1-0.6c0-0.1-0.1-0.2-0.1-0.3c0,0,0-0.1-0.1-0.1c0,0,0,0,0-0.1c0,0,0,0,0,0c0,0,0,0,0,0c0,0,0,0,0,0.1
			c0,0,0,0.1,0,0.2c0,0.1,0,0.2-0.1,0.3C42.9,21.8,42.9,22,42.9,22.2L42.9,22.2z"/>
	</g>
	<g>
		<path class="st0" d="M42.7,21.6c0,0,1-4.6,1.2-3.2s0.2,1.6,0.2,1.6l-0.3,1"/>
	</g>
	<g>
		<path class="st0" d="M42.7,21.6c0.1-0.5,0.2-0.9,0.3-1.4c0.1-0.2,0.1-0.5,0.2-0.7l0.1-0.3l0.1-0.3c0-0.1,0.1-0.2,0.1-0.3
			c0-0.1,0.1-0.2,0.1-0.3c0,0,0-0.1,0.1-0.1c0,0,0.1,0,0.1-0.1h0l0,0c0,0,0,0,0,0c0,0,0,0,0,0c0,0,0,0,0,0c0,0,0,0.1,0,0.1
			c0,0.1,0,0.1,0,0.2l0,0.2c0,0.2,0.1,0.5,0.1,0.7c0,0.1,0,0.2,0,0.4c0,0.1,0,0.2,0,0.4v0c0,0.2-0.1,0.3-0.1,0.5
			c0,0.2-0.1,0.3-0.1,0.5h0c0-0.2,0.1-0.3,0.1-0.5c0-0.2,0.1-0.3,0.1-0.5v0c0-0.1,0-0.2,0-0.3c0-0.1,0-0.2,0-0.3
			c0-0.2-0.1-0.5-0.1-0.7l0-0.2c0-0.1,0-0.1,0-0.2c0,0,0-0.1,0-0.1c0,0,0,0,0,0c0,0,0,0-0.1,0c0,0,0,0-0.1,0.1
			c-0.1,0.1-0.1,0.2-0.2,0.3c0,0.1-0.1,0.2-0.1,0.3c-0.2,0.4-0.3,0.9-0.4,1.4L42.7,21.6L42.7,21.6z"/>
	</g>
	<g>
		<path class="st0" d="M43.6,19.1c0,0-0.3,2.4,0.1,2.4S43.6,23,43.6,23"/>
	</g>
	<g>
		<path class="st0" d="M43.6,19.1l-0.1,1c0,0.3-0.1,0.7,0,1c0,0.1,0,0.2,0.1,0.2c0,0,0,0.1,0.1,0.1c0,0,0,0,0,0l0,0c0,0,0,0,0.1,0
			c0,0,0.1,0.1,0.1,0.1c0,0,0,0.1,0,0.1c0,0.1,0,0.2,0,0.3c0,0.2,0,0.3-0.1,0.5c0,0.2-0.1,0.3-0.1,0.5h0c0.1-0.3,0.1-0.7,0.2-1
			c0-0.1,0-0.2,0-0.2c0,0,0-0.1,0-0.1c0,0,0-0.1-0.1-0.1c0,0,0,0,0,0l0,0c0,0,0,0,0,0c0,0-0.1-0.1-0.1-0.1c0-0.1,0-0.2,0-0.3
			c0-0.2,0-0.3,0-0.5c0-0.2,0-0.3,0-0.5C43.5,19.8,43.6,19.5,43.6,19.1L43.6,19.1z"/>
	</g>
	<g>
		<path class="st0" d="M22.8,19.3c0,0,1.7-1.9,5.3-0.5"/>
	</g>
	<g>
		<path class="st0" d="M22.8,19.3c0.1-0.1,0.2-0.2,0.3-0.2c0.1-0.1,0.2-0.1,0.3-0.2c0.2-0.1,0.4-0.2,0.6-0.3
			c0.2-0.1,0.4-0.2,0.7-0.2c0.2,0,0.5-0.1,0.7-0.1c0.2,0,0.5,0,0.7,0c0.2,0,0.5,0,0.7,0.1c0.5,0.1,0.9,0.3,1.3,0.5l0,0
			c-0.4-0.1-0.9-0.2-1.3-0.3c-0.5-0.1-0.9-0.1-1.4-0.1c-0.2,0-0.5,0-0.7,0.1c-0.2,0-0.4,0.1-0.7,0.2c-0.2,0.1-0.4,0.2-0.6,0.3
			c-0.1,0.1-0.2,0.1-0.3,0.2C23,19.2,22.9,19.2,22.8,19.3L22.8,19.3z"/>
	</g>
	<g>
		<path class="st0" d="M33.3,16.5c-0.1,0-0.3,0-0.4,0.1c-0.1,0.1-0.2,0.2-0.4,0.2c-0.2,0.2-0.7,0.6-0.3,0.9c0.2,0.2,0.6,0.2,0.9,0.1
			c0.1-0.1,0.3-0.1,0.4-0.2c0.1-0.1,0.3-0.1,0.5-0.1c0.1,0,0.2,0,0.3-0.1c0.2,0,0.4,0,0.5,0c0.5,0,0.9-0.1,1.4-0.1
			c1,0,1.9-0.1,2.9,0.1c0.3,0.1,0.7,0.1,1,0.3c0,0,0,0,0-0.1c0-0.1-0.1-0.3-0.2-0.4c-0.2-0.3-0.5-0.4-0.8-0.5
			c-0.6-0.2-1.2-0.3-1.9-0.4C35.9,16.3,34.6,16.3,33.3,16.5z"/>
	</g>
	<g>
		<path class="st0" d="M33.3,16.5C33.3,16.5,33.3,16.5,33.3,16.5L33.3,16.5L33.3,16.5z"/>
	</g>
	<g>
		<path class="st0" d="M33.5,16.5C33.5,16.5,33.5,16.5,33.5,16.5C33.5,16.5,33.5,16.5,33.5,16.5C33.4,16.5,33.4,16.5,33.5,16.5
			c-0.1,0-0.1,0-0.1,0C33.4,16.5,33.4,16.5,33.5,16.5C33.5,16.5,33.5,16.5,33.5,16.5z"/>
	</g>
	<g>
		<path class="st0" d="M35.9,16.3L35.9,16.3C35.9,16.3,35.9,16.3,35.9,16.3z"/>
	</g>
	<g>
		<path class="st0" d="M37.4,16.4C37.4,16.4,37.4,16.4,37.4,16.4C37.4,16.4,37.4,16.4,37.4,16.4z"/>
	</g>
	<g>
		<path class="st0" d="M37.6,16.5L37.6,16.5C37.6,16.5,37.6,16.5,37.6,16.5z"/>
	</g>
	<g>
		<path class="st0" d="M35.9,16.3L35.9,16.3C35.9,16.3,35.9,16.3,35.9,16.3z"/>
	</g>
	<g>
		<path class="st0" d="M33.8,16.4C33.8,16.4,33.8,16.4,33.8,16.4L33.8,16.4L33.8,16.4z"/>
	</g>
	<g>
		<path class="st0" d="M35.2,16.3L35.2,16.3C35.2,16.4,35.2,16.4,35.2,16.3L35.2,16.3z"/>
	</g>
	<g>
		<path class="st0" d="M34.7,16.4C34.7,16.4,34.7,16.4,34.7,16.4C34.7,16.4,34.7,16.4,34.7,16.4C34.7,16.4,34.7,16.4,34.7,16.4z"/>
	</g>
	<g>
		<path class="st0" d="M33.9,16.4L33.9,16.4L33.9,16.4z"/>
	</g>
	<g>
		<path class="st0" d="M35.6,16.3C35.6,16.3,35.6,16.3,35.6,16.3C35.6,16.3,35.6,16.3,35.6,16.3z"/>
	</g>
	<g>
		<path class="st0" d="M32.7,16.7L32.7,16.7C32.7,16.7,32.7,16.7,32.7,16.7z"/>
	</g>
	<g>
		<path class="st0" d="M33.3,16.5L33.3,16.5C33.3,16.5,33.3,16.5,33.3,16.5L33.3,16.5z"/>
	</g>
	<g>
		<path class="st0" d="M38.1,16.6L38.1,16.6C38.1,16.6,38.1,16.6,38.1,16.6z"/>
	</g>
	<g>
		<path class="st0" d="M38.2,17.3C38.2,17.3,38.1,17.3,38.2,17.3C38.2,17.3,38.2,17.3,38.2,17.3z"/>
	</g>
	<g>
		<path class="st0" d="M33.8,16.4L33.8,16.4C33.8,16.4,33.8,16.4,33.8,16.4z"/>
	</g>
	<g>
		<path class="st0" d="M38.2,17.3L38.2,17.3L38.2,17.3L38.2,17.3z"/>
	</g>
	<g>
		<path class="st0" d="M39.1,16.9C39.1,16.9,39.1,16.9,39.1,16.9C39.1,16.9,39.1,16.9,39.1,16.9z"/>
	</g>
	<g>
		<path class="st0" d="M38.4,16.6L38.4,16.6C38.4,16.6,38.4,16.6,38.4,16.6z"/>
	</g>
	<g>
		<path class="st0" d="M39.5,17C39.5,17.1,39.5,17.1,39.5,17L39.5,17C39.5,17.1,39.5,17.1,39.5,17z"/>
	</g>
	<g>
		<path class="st0" d="M39.8,17.3C39.8,17.3,39.8,17.3,39.8,17.3L39.8,17.3L39.8,17.3z"/>
	</g>
	<g>
		<path class="st0" d="M32.2,17.8C32.2,17.8,32.2,17.8,32.2,17.8C32.2,17.8,32.1,17.8,32.2,17.8z"/>
	</g>
	<g>
		<path class="st0" d="M33.8,16.4C33.8,16.4,33.8,16.4,33.8,16.4L33.8,16.4C33.8,16.4,33.8,16.4,33.8,16.4z"/>
	</g>
	<g>
		<path class="st0" d="M39.6,17C39.6,17,39.6,17,39.6,17C39.6,17,39.6,17,39.6,17z"/>
	</g>
	<g>
		<path class="st0" d="M35.2,17.5L35.2,17.5C35.2,17.5,35.2,17.5,35.2,17.5z"/>
	</g>
	<g>
		<path class="st0" d="M39.8,17.1C39.8,17.2,39.8,17.2,39.8,17.1C39.8,17.2,39.8,17.2,39.8,17.1L39.8,17.1z"/>
	</g>
	<g>
		<path class="st0" d="M32.2,17.8L32.2,17.8z"/>
	</g>
	<g>
		<path class="st0" d="M32.1,17.3C32.1,17.4,32.1,17.4,32.1,17.3c0,0.1,0,0.1,0,0.1s0,0,0,0c0,0,0,0.1,0,0.1c0,0,0,0,0,0.1
			c0,0,0,0,0,0c0,0,0,0,0,0l0,0c0,0,0,0,0,0.1c0,0,0,0,0,0.1c0,0,0,0,0,0c0,0,0,0,0,0c0,0,0,0,0,0c0,0,0.1,0,0,0c0,0,0,0,0,0l0,0
			c0,0,0,0,0,0c0.1,0,0.1,0.1,0.2,0.1c0,0-0.1-0.1-0.1,0c0,0,0,0-0.1,0c0,0.1,0,0,0,0c0,0,0.1,0,0.1,0.1c0,0,0,0,0,0s0,0,0.1,0
			c0,0,0,0,0,0c0,0,0.1,0,0.1,0c0,0,0.1,0,0.1,0c0,0,0.1,0,0.1,0c0,0,0,0,0,0c0.1,0,0.1,0,0.2,0c0,0-0.1,0-0.1,0c0.1,0,0,0,0.1,0
			l0,0c0.1,0,0.2-0.1,0.3-0.1c0,0,0,0,0,0c0.1,0,0.1-0.1,0.2-0.1c0,0,0.1,0,0.1,0c0,0,0.1,0,0.1,0c0,0,0,0,0,0c0,0,0,0,0,0
			c0,0,0,0,0,0c0,0,0,0,0,0c0.1,0,0.1,0,0.2,0c0.1,0,0.1,0,0.2,0l0,0c0.1,0,0.1-0.1,0.1,0l0,0c0,0,0.1,0,0.1,0l0.1,0
			c0.1,0,0.1,0,0.2,0c0,0,0.2,0,0.2,0c0.1,0,0.1,0,0.2,0c0,0,0.1,0,0.1,0v0l0.1,0l0,0l0,0c0,0,0,0,0,0c0.1,0,0.1,0,0.2,0l0.1,0
			c0,0,0,0,0,0c0.1,0,0,0,0.1,0c0,0,0,0,0,0c0.1,0,0.1,0,0.2,0l0,0c0.1,0,0.2,0,0.4,0c0,0,0,0,0,0l0,0c0,0,0,0,0,0c0,0,0,0,0,0
			l0.1,0c0,0,0,0,0,0c0,0,0.1,0,0.1,0l0,0c0.1,0,0.2,0,0.3,0c0,0,0,0,0.1,0c0.1,0,0.2,0,0.2,0c0.1,0,0,0,0,0c0,0,0.1,0,0,0
			c0.1,0,0.1,0,0.3,0c0,0,0,0,0,0c0,0,0.1,0,0.1,0h0c0.2,0,0.3,0,0.5,0h0l0.1,0c0.1,0,0,0,0,0c0.1,0,0.2,0,0.3,0
			c0.1,0,0.3,0,0.4,0.1l0,0c0,0,0,0,0.1,0c0,0,0,0,0,0c0.3,0,0.5,0.1,0.8,0.1c0.1,0,0.1,0,0.2,0l0,0c0.1,0,0.1,0,0.2,0.1
			c0,0,0.1,0,0.1,0l0,0c0,0,0,0,0,0l0,0l0,0l0,0l0,0l0,0l0,0l0,0c0,0,0,0,0,0c0,0,0,0,0,0l0,0l0,0c0,0,0,0,0,0c0,0,0,0,0,0
			c0,0,0-0.1,0-0.1c0,0,0,0,0,0c0,0,0,0,0,0c0,0,0,0,0,0c0,0,0,0,0,0c0,0,0,0,0-0.1c0,0,0,0,0,0c0,0-0.1-0.1-0.1-0.1
			c0-0.1-0.1-0.1-0.1-0.2c0,0-0.1-0.1-0.1-0.1c0,0-0.1-0.1-0.1-0.1c0,0,0,0,0,0c0,0-0.1-0.1-0.1,0c-0.1-0.1-0.2-0.1-0.2-0.1
			c-0.1-0.1-0.3-0.1-0.4-0.1c0,0,0.1,0.1,0.1,0c-0.1,0-0.2,0-0.3-0.1c0,0,0,0,0,0c-0.1,0-0.2-0.1-0.4-0.1c0,0,0,0,0,0
			c0,0-0.1,0-0.1,0h0c0,0-0.1,0-0.1,0c0,0-0.1,0,0-0.1c0,0,0,0,0,0c0,0,0,0,0,0c-0.1,0-0.1,0-0.1,0c0,0,0,0,0,0c0,0-0.1,0-0.1,0
			c0,0,0,0,0,0c-0.1,0-0.2,0-0.3,0c0,0,0,0,0,0h-0.1l0,0c-0.1,0-0.1,0-0.2,0l0,0l-0.1,0l0.1,0c-0.1,0,0,0-0.1,0c0,0-0.1,0-0.1,0l0,0
			c0,0-0.1,0-0.1,0c0,0,0,0,0,0c0,0-0.1,0-0.2,0c0,0,0,0,0,0l0,0c0,0,0,0,0,0c-0.1,0,0,0-0.1,0c0,0,0,0,0,0c-0.1,0-0.2,0-0.3,0
			c0,0,0.1,0,0,0c-0.1,0-0.3,0-0.4,0l0,0c0,0-0.1,0-0.1,0c0,0,0,0,0,0c-0.1,0-0.2,0-0.3,0l0,0c0,0-0.1,0-0.2,0c0,0,0,0,0,0
			c-0.2,0-0.3,0-0.4,0c0,0,0,0,0,0l-0.1,0c0,0,0,0,0,0c0,0-0.1,0-0.1,0c0.1,0,0,0,0,0c0,0,0,0,0,0c-0.1,0,0,0-0.1,0l0,0
			c0,0-0.1,0-0.1,0c0,0,0,0,0,0c0,0-0.1,0-0.1,0c0,0,0,0,0.1,0c0,0-0.1,0-0.1,0h0h-0.1l0,0c-0.1,0-0.1,0-0.2,0c0.1,0,0,0,0,0
			c0,0-0.1,0,0,0c0,0-0.1,0-0.1,0c0,0,0,0,0,0c0,0,0,0,0,0c-0.1,0-0.2,0-0.3,0c-0.1,0-0.1,0-0.2,0.1c0,0,0,0,0,0c0,0-0.1,0-0.1,0
			c0,0,0,0,0,0c0,0,0,0-0.1,0c0,0,0,0,0,0c0,0-0.1,0-0.1,0c0,0,0,0,0,0c0,0-0.1,0-0.1,0h0c0,0,0,0,0,0c0,0,0.1,0,0.1,0l0,0
			c0,0,0.1,0,0.2,0l0,0l0.1,0c0,0,0,0,0,0c0,0,0,0,0.1,0c0,0,0,0,0,0l0,0c0,0,0,0,0,0c0.1,0,0.1,0,0.2,0h0c0.1,0,0,0,0.1,0l0.1,0
			l0,0c0,0,0,0,0,0c0,0,0,0,0,0c0.1,0,0.2,0,0.2,0c0,0-0.1,0,0,0c0,0,0.1,0,0.1,0c0,0-0.1,0,0,0c0,0,0.1,0,0.1,0c0,0,0.1,0,0.2,0
			c0,0,0.1,0,0.2,0v0c0,0,0.1,0,0.1,0c0,0,0,0,0,0h0c0,0,0,0,0.1,0l0,0c0.1,0,0.1,0,0.2,0c0,0-0.1,0,0,0c0,0,0,0,0,0c0,0,0,0,0,0
			l0,0c0,0,0,0,0,0c0,0,0,0,0,0c0,0,0,0,0,0c0,0,0.1,0,0.1,0c0,0,0,0,0,0c0.1,0,0,0,0.1,0c0,0,0.1,0,0.1,0c0,0,0,0,0,0
			c0,0,0.2,0,0.1,0h0h0l0,0c0.1,0,0.2,0,0.3,0v0c0.1,0,0.1,0,0.2,0c0,0,0,0,0,0c0,0,0.1,0,0.1,0c0,0,0,0,0,0c0,0,0.1,0,0.1,0
			c0,0,0,0,0.1,0l0,0c0,0,0.1,0,0.1,0l0,0c0.1,0,0.2,0,0.3,0c0,0-0.1,0,0,0c0,0,0.1,0,0.1,0c0.1,0,0.1,0,0.2,0c0,0,0,0,0,0
			s0.1,0,0,0c0,0,0,0,0,0c0,0,0,0,0,0l0,0c0,0,0.1,0,0.1,0c0,0,0,0,0,0c0.1,0,0.1,0,0.2,0c0,0,0,0,0,0c0.1,0,0.1,0,0.1,0
			c0,0,0,0,0.1,0c0,0,0,0,0,0c0.1,0,0.1,0,0.2,0h0c0,0,0,0,0.1,0l0,0c0,0,0,0,0,0c0,0,0,0,0,0c0,0,0.1,0,0.1,0c-0.1,0,0,0-0.1,0
			c0,0,0,0,0.1,0c0,0,0,0,0,0c0.1,0,0,0,0.1,0c0,0,0,0,0,0c0,0,0,0,0,0c0,0,0.1,0,0.1,0l0,0c0,0,0.1,0,0.1,0c0,0,0,0,0,0
			c0,0,0.1,0,0.2,0c0,0,0,0,0,0c0.1,0,0.1,0,0.1,0c0,0,0,0,0,0c0,0-0.1,0-0.1,0l0.1,0c0,0-0.1,0-0.1,0c0,0,0,0,0,0c0,0,0.1,0,0.1,0
			l0,0c0.1,0,0.2,0,0.3,0.1l0,0c0,0,0.1,0,0.1,0c0,0,0,0,0,0c0,0,0.1,0,0.1,0l0,0c0.1,0,0.1,0,0.2,0.1c0,0,0,0-0.1,0c0,0,0,0,0.1,0
			c0,0,0.1,0,0.1,0.1c0,0,0,0,0,0c0,0,0,0,0,0s0,0,0,0c0.1,0.1,0.2,0.2,0.2,0.2c0,0,0.1,0.1,0.1,0.2c0,0,0,0,0,0c0,0,0,0,0,0.1
			c0,0,0,0,0,0.1c0,0,0,0,0,0c0,0,0,0,0,0c0,0,0,0,0,0c0,0,0,0,0,0c0,0,0,0,0,0c0,0,0,0,0,0c0,0,0,0,0,0c0,0,0,0,0,0c0,0,0,0,0,0
			c0,0,0,0,0,0l0,0l-0.1,0c0,0-0.1,0-0.1,0c0,0,0,0,0,0c0,0,0,0-0.1,0c0,0-0.1,0-0.1,0l0.1,0c0,0-0.1,0-0.1,0l0,0
			c-0.1,0-0.1,0-0.2,0l0,0c-0.1,0,0,0-0.1,0l0,0c0,0-0.1,0-0.2,0c0.1,0,0.1,0,0.2,0c0,0-0.1,0-0.1,0c0,0,0,0,0,0c-0.1,0-0.1,0-0.2,0
			c0,0-0.2,0-0.2-0.1c-0.1,0-0.3,0-0.4,0c0.1,0,0,0,0,0c0,0,0,0-0.1,0l-0.1,0c0,0,0,0,0,0c-0.1,0,0,0-0.1,0c0,0,0,0-0.1,0l0.1,0
			c-0.1,0-0.1,0-0.2,0l0,0c-0.1,0-0.2,0-0.3,0c0,0,0,0,0,0c-0.1,0-0.3,0-0.4,0l0,0c0,0,0,0-0.1,0c0,0,0,0,0,0c0,0-0.1,0-0.1,0l0,0
			c-0.1,0-0.2,0-0.3,0c0,0-0.1,0-0.2,0v0c-0.1,0-0.3,0-0.4,0c-0.1,0-0.3,0-0.4,0c0,0,0,0,0,0c0,0-0.1,0-0.1,0h0c0,0-0.1,0-0.1,0l0,0
			c-0.1,0-0.4,0-0.4,0c0,0-0.1,0-0.1,0v0c-0.1,0-0.2,0-0.3,0l0,0c-0.1,0-0.1,0-0.1,0.1l0,0c-0.1,0-0.2,0-0.3,0c0,0,0,0,0,0
			c0,0-0.1,0-0.1,0c0,0-0.1,0-0.1,0c0,0,0,0-0.1,0l-0.1,0l0,0c0,0-0.1,0-0.1,0c0,0,0,0,0,0c-0.1,0,0,0-0.1,0l0,0c0,0-0.1,0-0.1,0
			c0,0-0.1,0-0.1,0c0,0,0,0-0.1,0.1c0,0,0,0,0,0c-0.1,0-0.1,0.1-0.2,0.1c0,0,0,0,0,0c0.1,0,0.1-0.1,0.1-0.1c0,0-0.1,0,0,0
			c0,0-0.1,0.1-0.2,0.1c0,0,0,0,0,0l0,0c0,0,0,0,0,0c0,0,0,0,0,0c0,0-0.1,0-0.1,0c0,0,0,0,0,0c0,0,0,0,0,0c0,0,0,0,0,0l0,0
			c0,0,0,0,0.1,0c0,0,0,0-0.1,0c0,0,0,0,0,0c0,0-0.1,0-0.1,0c-0.1,0-0.2,0-0.3,0.1c0,0,0,0,0,0c0,0,0,0,0,0c-0.1,0-0.1,0-0.2,0
			c-0.1,0,0,0,0,0h0c-0.1,0-0.1-0.1-0.2-0.1l0,0c0,0,0,0,0,0c0,0,0,0,0-0.1c0,0,0,0,0-0.1c0,0,0,0,0,0c0,0,0,0,0,0l0,0
			C32.1,17.5,32.1,17.4,32.1,17.3c0.1,0,0.1,0,0.2-0.1c0.1-0.1,0.1-0.2,0.2-0.2c0,0,0.1,0,0.1-0.1l0,0l0-0.1
			c0.1-0.1,0.2-0.1,0.2-0.2h0c0,0,0.1-0.1,0.1-0.1c0,0,0,0,0,0l0,0c0,0,0.1,0,0.1-0.1c0.1,0,0,0,0.1,0c0,0,0.1-0.1,0.1-0.1
			c0,0,0,0,0,0l0,0c0,0,0-0.1-0.1-0.1l-0.1,0l0,0l0.1,0c0,0-0.1,0-0.1,0c0,0,0,0,0,0c0,0,0,0-0.1,0c0,0,0,0,0,0c0,0,0,0,0,0
			c0,0,0,0-0.1,0c0,0,0,0,0,0c0,0-0.1,0.1-0.1,0.1c0,0-0.1,0.1-0.1,0c0,0,0,0-0.1,0.1c0-0.1-0.1,0.1-0.1,0c0,0-0.1,0.1-0.2,0.2
			c0,0,0,0,0,0c0,0,0,0-0.1,0c0,0,0,0.1-0.1,0.1c-0.1,0,0,0,0,0c0,0-0.1,0.1,0,0.1c0,0,0,0-0.1,0C32.2,17.2,32.1,17.2,32.1,17.3
			C32.1,17.3,32.1,17.3,32.1,17.3C32.1,17.4,32.1,17.3,32.1,17.3z M33.2,17.8L33.2,17.8L33.2,17.8L33.2,17.8z M33.4,17.8L33.4,17.8
			C33.3,17.8,33.3,17.8,33.4,17.8C33.3,17.8,33.3,17.8,33.4,17.8L33.4,17.8z M33.1,17.8C33.1,17.8,33.1,17.8,33.1,17.8L33.1,17.8
			L33.1,17.8C33.1,17.8,33.1,17.8,33.1,17.8L33.1,17.8z"/>
	</g>
	<g>
		<path class="st0" d="M33,17.8L33,17.8L33,17.8L33,17.8L33,17.8z"/>
	</g>
	<g>
		<path class="st0" d="M35.9,16.3L35.9,16.3L35.9,16.3C35.9,16.3,35.9,16.3,35.9,16.3z"/>
	</g>
	<g>
		<polygon class="st0" points="35.1,17.5 35.1,17.5 35.1,17.5 		"/>
	</g>
	<g>
		<path class="st0" d="M35.1,16.3C35.1,16.3,35.1,16.3,35.1,16.3C35.1,16.3,35.1,16.3,35.1,16.3z"/>
	</g>
	<g>
		<path class="st0" d="M34.8,16.3L34.8,16.3C34.8,16.3,34.8,16.3,34.8,16.3z"/>
	</g>
	<g>
		<path class="st0" d="M34.6,16.3C34.6,16.3,34.6,16.3,34.6,16.3L34.6,16.3L34.6,16.3z"/>
	</g>
	<g>
		<path class="st0" d="M38.4,16.5L38.4,16.5C38.4,16.5,38.4,16.5,38.4,16.5z"/>
	</g>
	<g>
		<path class="st0" d="M37.3,16.3C37.3,16.3,37.3,16.3,37.3,16.3C37.3,16.3,37.3,16.3,37.3,16.3z"/>
	</g>
	<g>
		<path class="st0" d="M39.6,17L39.6,17L39.6,17L39.6,17z"/>
	</g>
	<g>
		<path class="st0" d="M37.3,16.4C37.3,16.3,37.3,16.3,37.3,16.4C37.3,16.3,37.3,16.4,37.3,16.4z"/>
	</g>
	<g>
		<path class="st0" d="M33.6,16.4L33.6,16.4L33.6,16.4z"/>
	</g>
	<g>
		<path class="st0" d="M33.6,16.4L33.6,16.4C33.6,16.4,33.6,16.4,33.6,16.4z"/>
	</g>
	<g>
		<path class="st0" d="M33.5,16.5L33.5,16.5C33.5,16.4,33.5,16.5,33.5,16.5z"/>
	</g>
	<g>
		<path class="st0" d="M33.9,16.4L33.9,16.4C33.9,16.4,33.9,16.4,33.9,16.4z"/>
	</g>
	<g>
		<path class="st0" d="M34,16.4C34,16.4,33.9,16.4,34,16.4L34,16.4C33.9,16.4,34,16.4,34,16.4z"/>
	</g>
	<g>
		<path class="st0" d="M34.4,16.4L34.4,16.4C34.3,16.4,34.3,16.4,34.4,16.4C34.4,16.4,34.3,16.4,34.4,16.4z"/>
	</g>
	<g>
		<path class="st0" d="M34.6,16.4C34.6,16.4,34.6,16.4,34.6,16.4C34.7,16.4,34.7,16.4,34.6,16.4z"/>
	</g>
	<g>
		<path class="st0" d="M36.4,16.3L36.4,16.3C36.5,16.4,36.4,16.4,36.4,16.3z"/>
	</g>
	<g>
		<polygon class="st0" points="36.8,16.3 36.7,16.3 36.7,16.3 		"/>
	</g>
	<g>
		<polygon class="st0" points="37,16.4 37,16.4 37,16.4 		"/>
	</g>
	<g>
		<path class="st0" d="M39.7,17.3L39.7,17.3C39.7,17.3,39.7,17.3,39.7,17.3z"/>
	</g>
	<g>
		<path class="st0" d="M39.3,17.4C39.3,17.4,39.3,17.4,39.3,17.4C39.3,17.4,39.3,17.4,39.3,17.4z"/>
	</g>
	<g>
		<polygon class="st0" points="35.4,17.3 35.5,17.3 35.4,17.3 		"/>
	</g>
	<g>
		<path class="st0" d="M27.8,16.6c0.1,0,0.3,0,0.4,0.1c0.1,0.1,0.2,0.2,0.4,0.2c0.2,0.2,0.7,0.6,0.3,0.9c-0.2,0.2-0.6,0.2-0.9,0.1
			c-0.1-0.1-0.3-0.1-0.4-0.2c-0.1-0.1-0.3-0.1-0.5-0.1c-0.1,0-0.2,0-0.3-0.1c-0.2,0-0.4,0-0.5,0c-0.5,0-0.9-0.1-1.4-0.1
			c-1,0-1.9-0.1-2.9,0.1c-0.3,0.1-0.7,0.1-1,0.3c0,0,0,0,0-0.1c0-0.1,0.1-0.3,0.2-0.4c0.2-0.3,0.5-0.4,0.8-0.5
			c0.6-0.2,1.2-0.3,1.9-0.4C25.2,16.3,26.5,16.3,27.8,16.6z"/>
	</g>
	<g>
		<path class="st0" d="M27.8,16.6C27.8,16.6,27.8,16.6,27.8,16.6L27.8,16.6L27.8,16.6z"/>
	</g>
	<g>
		<path class="st0" d="M27.6,16.6C27.6,16.6,27.6,16.6,27.6,16.6C27.6,16.6,27.6,16.6,27.6,16.6C27.7,16.6,27.7,16.6,27.6,16.6
			c0.1,0,0.1,0,0.1,0C27.7,16.6,27.7,16.6,27.6,16.6C27.6,16.6,27.6,16.6,27.6,16.6z"/>
	</g>
	<g>
		<path class="st0" d="M25.2,16.3L25.2,16.3L25.2,16.3z"/>
	</g>
	<g>
		<path class="st0" d="M23.7,16.4C23.7,16.4,23.7,16.4,23.7,16.4C23.7,16.4,23.7,16.4,23.7,16.4z"/>
	</g>
	<g>
		<path class="st0" d="M23.4,16.4L23.4,16.4C23.5,16.4,23.4,16.4,23.4,16.4z"/>
	</g>
	<g>
		<path class="st0" d="M25.2,16.3L25.2,16.3C25.2,16.3,25.2,16.3,25.2,16.3z"/>
	</g>
	<g>
		<path class="st0" d="M27.3,16.6C27.3,16.6,27.3,16.6,27.3,16.6L27.3,16.6L27.3,16.6z"/>
	</g>
	<g>
		<path class="st0" d="M25.9,16.3L25.9,16.3C25.9,16.3,25.9,16.3,25.9,16.3L25.9,16.3z"/>
	</g>
	<g>
		<path class="st0" d="M26.4,16.4C26.4,16.4,26.4,16.4,26.4,16.4C26.4,16.4,26.4,16.4,26.4,16.4C26.4,16.4,26.4,16.4,26.4,16.4z"/>
	</g>
	<g>
		<path class="st0" d="M27.2,16.5L27.2,16.5z"/>
	</g>
	<g>
		<path class="st0" d="M25.5,16.3C25.5,16.3,25.5,16.3,25.5,16.3C25.5,16.3,25.5,16.3,25.5,16.3z"/>
	</g>
	<g>
		<path class="st0" d="M28.3,16.9L28.3,16.9C28.3,16.9,28.3,16.9,28.3,16.9z"/>
	</g>
	<g>
		<path class="st0" d="M27.8,16.6L27.8,16.6C27.8,16.6,27.8,16.6,27.8,16.6L27.8,16.6z"/>
	</g>
	<g>
		<path class="st0" d="M23,16.5L23,16.5C23,16.5,23,16.5,23,16.5z"/>
	</g>
	<g>
		<path class="st0" d="M22.9,17.5C22.9,17.5,23,17.5,22.9,17.5C22.9,17.4,22.9,17.5,22.9,17.5z"/>
	</g>
	<g>
		<path class="st0" d="M27.3,16.6L27.3,16.6C27.3,16.6,27.3,16.6,27.3,16.6z"/>
	</g>
	<g>
		<path class="st0" d="M22.9,17.4L22.9,17.4L22.9,17.4z"/>
	</g>
	<g>
		<path class="st0" d="M21.9,16.8C21.9,16.8,21.9,16.8,21.9,16.8C21.9,16.8,21.9,16.8,21.9,16.8z"/>
	</g>
	<g>
		<path class="st0" d="M22.7,16.6L22.7,16.6C22.7,16.6,22.7,16.6,22.7,16.6z"/>
	</g>
	<g>
		<path class="st0" d="M21.6,17.1C21.5,17.1,21.5,17.1,21.6,17.1L21.6,17.1C21.5,17.1,21.5,17.1,21.6,17.1z"/>
	</g>
	<g>
		<path class="st0" d="M21.2,17.4L21.2,17.4L21.2,17.4L21.2,17.4z"/>
	</g>
	<g>
		<path class="st0" d="M28.8,17.8C28.8,17.8,28.8,17.8,28.8,17.8C28.8,17.8,28.9,17.8,28.8,17.8z"/>
	</g>
	<g>
		<path class="st0" d="M27.3,16.6C27.3,16.6,27.3,16.6,27.3,16.6L27.3,16.6C27.3,16.6,27.3,16.6,27.3,16.6z"/>
	</g>
	<g>
		<path class="st0" d="M21.6,17.2C21.6,17.2,21.6,17.2,21.6,17.2L21.6,17.2z"/>
	</g>
	<g>
		<path class="st0" d="M25.9,17.4L25.9,17.4C25.9,17.4,25.9,17.4,25.9,17.4z"/>
	</g>
	<g>
		<path class="st0" d="M21.4,17.3C21.4,17.3,21.4,17.3,21.4,17.3C21.4,17.3,21.4,17.3,21.4,17.3L21.4,17.3z"/>
	</g>
	<g>
		<path class="st0" d="M28.8,17.8L28.8,17.8z"/>
	</g>
	<g>
		<path class="st0" d="M28.9,17.5C28.9,17.5,28.9,17.5,28.9,17.5C28.9,17.5,28.9,17.5,28.9,17.5C28.9,17.5,28.9,17.5,28.9,17.5
			c0,0.1,0.1,0.1,0.1,0.1c0,0,0,0,0,0c0,0,0,0,0,0c0,0,0,0,0,0c0,0,0,0,0,0c0,0,0,0,0,0c0,0,0,0,0,0c0,0,0,0,0,0c0,0,0,0,0,0
			c0,0,0,0,0,0c0,0,0,0,0,0c0,0,0,0,0,0l0,0c0,0,0,0,0,0c0,0-0.1,0.1-0.1,0.1c0,0,0.1-0.1,0,0c0,0,0,0,0.1,0c-0.1,0,0,0,0,0l-0.1,0
			c0,0,0,0,0,0c0,0,0,0,0,0c0,0,0,0,0,0c0,0-0.1,0-0.1,0c0,0-0.1,0-0.1,0c0,0-0.1,0-0.1,0l0,0c-0.1,0-0.1,0-0.1,0c0,0,0.1,0,0.1,0
			c-0.1,0,0,0-0.1,0l0,0c-0.1,0-0.2-0.1-0.3-0.1c0,0,0,0,0,0c-0.1,0-0.1-0.1-0.2-0.1l-0.1-0.1c0,0-0.1,0-0.1-0.1c0,0,0,0-0.1,0
			c0,0,0,0,0,0c-0.1,0,0,0,0,0c0,0,0,0,0,0c0,0-0.1,0-0.2,0c-0.1,0-0.1,0-0.2,0h0c-0.1,0-0.1,0-0.2,0h0c0,0-0.1,0-0.1,0l-0.1,0
			c-0.1,0-0.1,0-0.2,0c0,0-0.2,0-0.2,0c-0.1,0-0.1,0-0.2,0c0,0-0.1,0-0.1,0v0l-0.1,0l0,0h0c0,0,0,0,0,0c-0.1,0-0.1,0-0.2,0l-0.1,0
			c0,0,0,0,0,0c-0.1,0,0,0-0.1,0c0,0,0,0,0,0c-0.1,0-0.1,0-0.2,0l0,0c-0.1,0-0.2,0-0.4,0c0,0,0,0,0,0l0,0c0,0,0,0,0,0c0,0,0,0,0,0
			H25c0,0,0,0,0,0c0,0-0.1,0-0.1,0l0,0c-0.1,0-0.2,0-0.3,0c0,0,0,0-0.1,0c-0.1,0-0.2,0-0.2,0c-0.1,0,0,0,0,0c0,0-0.1,0,0,0
			c-0.1,0-0.1,0-0.3,0c0,0,0,0,0,0c0,0-0.1,0-0.1,0h0c-0.2,0-0.4,0-0.5,0h0l-0.1,0c-0.1,0,0,0,0,0c-0.1,0-0.2,0-0.3,0
			c-0.1,0-0.3,0-0.4,0l0,0c0,0,0,0-0.1,0c0,0,0,0,0,0c-0.3,0-0.5,0-0.8,0.1c-0.1,0,0,0.1-0.2,0.1l0,0l-0.2,0.1c0,0-0.1,0-0.1,0l0,0
			l0,0l0,0c0,0,0,0,0,0c0,0,0,0,0,0c0,0,0,0,0,0c0,0,0,0,0,0s0,0,0,0c0,0,0,0,0,0l0,0l0,0l0,0c0,0,0,0,0,0c0,0,0,0,0,0
			c0,0,0.1-0.1,0-0.1c0,0,0.1-0.1,0.1-0.1c0,0,0.1-0.1,0.1-0.1c0,0,0.1-0.1,0.1-0.1c0,0,0,0,0,0c0,0,0.1-0.1,0.1-0.1
			c0.1,0,0.1-0.1,0.2-0.1c0.1-0.1,0.2-0.1,0.4-0.2c0,0-0.1,0.1-0.1,0.1c0.1-0.1,0.2-0.1,0.3-0.1c0,0,0,0,0,0c0.1,0,0.2-0.1,0.3-0.1
			c0,0,0,0,0,0c0,0,0.1,0,0,0l0,0c0,0,0.1-0.1,0.1-0.1c0,0,0.1,0,0.1,0c0,0,0,0,0,0c0,0,0,0,0,0c0.1,0,0,0,0.1,0c0,0,0,0,0,0
			c0,0,0.1,0,0.1,0c0,0,0,0,0,0c0.1,0,0.2-0.1,0.3-0.1c0,0,0,0,0,0l0.1,0l0,0c0,0,0.1,0,0.1,0l0,0l0.1,0h-0.1c0.1,0,0,0,0.1,0
			c0,0,0.1,0,0.1,0l0,0c0,0,0.1,0,0.1,0c0,0,0,0,0,0c0,0,0.1,0,0.2,0c0,0,0,0,0,0l0,0c0,0,0,0,0,0c0.1,0,0,0,0.1,0c0,0,0,0,0,0
			c0.1,0,0.2,0,0.3,0c0,0-0.1,0,0,0c0.1,0,0.2,0,0.4,0h0c0,0,0.1,0,0.1,0c0,0,0,0,0,0c0.1,0,0.2,0,0.3,0l0,0c0,0,0.1,0,0.2,0
			c0,0,0,0,0,0c0.2,0,0.3,0,0.4,0c0,0,0,0,0,0l0.1,0c0,0,0,0,0,0c0,0,0.1,0,0.1,0c-0.1,0,0,0,0,0c0,0,0,0,0,0c0.1,0,0,0,0.1,0l0,0
			c0,0,0.1,0,0.1,0c0,0,0,0,0,0c0,0,0.1,0,0.1,0c0,0-0.1,0-0.1,0c0,0,0.1,0,0.1,0h0l0.1,0l0,0c0.1,0,0.1,0,0.2,0c-0.1,0,0,0,0,0
			c0,0,0.1,0,0,0c0,0,0.1,0,0.1,0c0,0,0,0,0,0c0,0,0,0,0,0c0.1,0,0.2,0,0.3,0c0.1,0,0.1,0,0.2,0c0,0,0,0,0,0c0,0,0.1,0,0.1,0
			c0,0,0,0,0,0c0,0,0,0,0.1,0c0,0,0,0,0,0c0,0,0.1,0,0.1,0c0,0,0,0,0,0c0,0,0.1,0,0.1,0l0,0c0,0,0,0,0,0c0,0-0.1,0-0.1,0h0
			c0,0-0.1,0-0.2,0l0,0l-0.1,0c0,0,0,0,0,0c0,0,0,0-0.1,0c0,0,0,0,0,0h0c0,0,0,0,0,0c-0.1,0-0.1,0-0.2,0h0c-0.1,0,0,0-0.1,0l-0.1,0
			l0,0c0,0,0,0,0,0c0,0,0,0,0,0c-0.1,0-0.2,0-0.2,0c0,0,0.1,0,0,0c0,0-0.1,0-0.1,0c0,0,0.1,0,0,0c0,0-0.1,0-0.1,0c0,0-0.1,0-0.2,0
			c-0.1,0-0.1,0-0.2,0v0c0,0-0.1,0-0.1,0c0,0,0,0,0,0h0c0,0,0,0-0.1,0l0,0c-0.1,0-0.1,0-0.2,0c0,0,0.1,0,0,0c0,0,0,0,0,0
			c0,0,0,0,0,0l0,0c0,0,0,0,0,0c0,0,0,0,0,0c0,0,0,0,0,0c0,0-0.1,0-0.1,0c0,0,0,0,0,0c-0.1,0,0,0-0.1,0c0,0-0.1,0-0.1,0c0,0,0,0,0,0
			c0,0-0.2,0-0.1,0h0h0l0,0c-0.1,0-0.2,0-0.3,0v0c-0.1,0-0.1,0-0.2,0c0,0,0,0,0,0c0,0-0.1,0-0.1,0c0,0,0,0,0,0c0,0-0.1,0-0.1,0
			c0,0,0,0-0.1,0l0,0c0,0-0.1,0-0.1,0l0,0c-0.1,0-0.2,0.1-0.3,0c0,0,0.1,0,0,0c0,0-0.1,0-0.1,0c-0.1,0-0.1,0-0.2,0c0,0,0,0,0,0
			c-0.1,0-0.1,0,0,0c0,0,0,0,0,0c0,0,0,0,0,0l0,0c0,0-0.1,0-0.1,0c0,0,0,0,0,0c-0.1,0-0.1,0-0.2,0c0,0,0,0,0,0c-0.1,0,0,0-0.1,0
			c0,0,0,0-0.1,0c0,0,0,0,0,0c-0.1,0-0.1,0-0.2,0l0,0c0,0,0,0-0.1,0l0,0c0,0,0,0,0,0c0,0,0,0,0,0c0,0-0.1,0-0.1,0c0.1,0,0,0,0.1,0
			c0,0,0,0-0.1,0c0,0,0,0,0,0c-0.1,0,0,0-0.1,0c0,0,0,0,0,0c0,0,0,0,0,0c0,0-0.1,0-0.1,0l0,0c0,0,0,0-0.1,0c0,0,0,0,0,0
			c0,0-0.1,0-0.2,0c0,0,0,0,0,0c-0.1,0-0.1,0-0.1,0c0,0,0,0,0,0c0,0,0.1,0,0.1,0c0,0,0,0-0.1,0c0,0,0.1,0,0.1,0c0,0,0,0,0,0
			c-0.1,0-0.1,0-0.2,0l0,0c-0.1,0-0.1,0.1-0.3,0.1l0,0c0,0-0.1,0-0.1,0c0,0,0,0,0,0c0,0-0.1,0-0.1,0.1l-0.1,0
			c-0.1,0-0.1,0.1-0.2,0.1c0,0,0,0,0,0c0,0-0.1,0,0,0c0,0-0.1,0.1-0.1,0.1c0,0,0,0,0,0c0,0,0,0,0,0s0,0,0,0c-0.1,0-0.2,0.2-0.3,0.2
			c0,0.1-0.1,0.1-0.1,0.2c0,0,0,0,0,0c0,0,0,0,0,0.1c0,0,0,0.1,0,0.1c0,0,0,0,0,0c0,0,0,0,0,0c0,0,0,0.1,0,0.1c0,0,0,0,0,0
			c0,0,0,0,0,0c0,0,0,0,0,0c0,0,0,0,0,0c0,0,0,0,0,0c0,0,0,0,0.1,0c0,0,0.1,0,0.1-0.1c0,0,0,0,0,0l0,0l0,0c0,0,0,0,0,0
			c0,0,0.1,0,0.1,0c0,0,0,0,0,0c0,0,0,0,0,0c0,0,0.1,0,0.1,0l-0.1,0c0,0,0.1,0,0.1,0v0c0.1,0,0.1,0,0.2-0.1l0,0c0.1,0,0,0,0.1,0l0,0
			c0.1,0,0.1,0,0.2-0.1c-0.1,0-0.1,0-0.2,0.1c0,0,0.1,0,0.1,0c0,0,0,0,0,0c0.1,0,0.1,0,0.2,0c0,0,0.2,0,0.2,0c0.1,0,0.3,0,0.4,0
			c-0.1,0,0,0,0,0c0,0,0,0,0.1,0l0.1,0c0,0,0,0,0,0c0.1,0,0,0,0.1,0c0,0,0,0,0.1,0l-0.1,0c0.1,0,0.1,0,0.2,0l0,0c0.1,0,0.2,0,0.3,0
			c0,0,0,0,0,0c0.1,0,0.3,0,0.4,0l0,0c0,0,0,0,0.1,0c0,0,0,0,0,0c0,0,0.1,0,0.1,0l0,0c0.1,0,0.2,0,0.3,0c0,0,0.1,0,0.2,0v0
			c0.2,0,0.3,0,0.4,0c0.1,0,0.3,0,0.4,0.1c0,0,0,0,0,0s0.1,0,0.1,0h0c0,0,0.1,0,0.1,0l0,0c0.1,0,0.4,0,0.4,0c0,0,0.1,0,0.1,0l0,0
			c0.1,0,0.1,0,0.3,0l0,0c0.1,0,0.1,0,0.1,0l0,0c0.1,0,0.2,0,0.3,0c0,0,0,0,0,0c0,0,0.1,0,0.1,0c0,0,0.1,0,0.1,0c0,0,0,0,0.1,0
			c0,0,0.1,0,0.1,0l0,0c0,0,0.1,0,0.1,0c0,0,0,0,0,0c0.1,0,0,0,0.1,0l0,0c0,0,0.1,0,0.1,0c0,0,0.1,0,0.1,0.1c0,0,0,0,0.1,0
			c0,0,0,0,0,0c0.1,0.1,0.1,0.1,0.2,0.1c0,0,0,0,0,0c-0.1,0-0.1-0.1-0.1-0.1c0,0,0,0,0,0c0.1,0,0.1,0,0.2,0.1c0,0,0,0,0,0h0
			c0,0,0,0,0,0c0,0,0,0,0,0c0,0,0.1,0,0.1,0c0,0,0,0,0,0c0,0,0,0,0,0l0,0l0,0c0,0,0,0-0.1,0c0,0,0.1,0,0.1,0c0,0,0,0,0,0
			c0,0,0.1,0.1,0.1,0.1c0.1,0,0.2,0,0.3,0c0,0,0,0,0,0c0,0,0,0,0,0c0.1,0,0.2,0,0.2-0.1c0.1,0,0,0,0.1,0l0,0c0.1,0,0.2-0.1,0.2-0.2
			l0-0.1c0,0,0,0,0-0.1c0,0,0,0,0-0.1s0,0,0-0.1c0,0,0,0,0,0c0,0,0,0,0,0c0,0,0,0,0,0c0,0,0-0.1,0-0.1c0-0.1-0.1-0.1-0.1-0.2
			c-0.1-0.1-0.2-0.2-0.2-0.3c0,0-0.1,0-0.1-0.1v0l-0.1,0c-0.1,0-0.1-0.1-0.2-0.2l0,0c0,0-0.1-0.1-0.1-0.1c0,0,0,0,0,0l0,0
			c0,0-0.1,0-0.1,0c-0.1,0,0,0-0.1-0.1c0,0-0.1,0-0.1,0c0,0,0,0,0,0l0,0c0,0,0,0,0,0.1h0.1l0,0l-0.1,0c0,0,0,0,0.1,0c0,0,0,0,0,0
			c0,0,0,0,0.1,0c0,0,0,0,0,0c0,0,0,0,0,0c0,0,0,0,0,0c0,0,0,0,0,0c0,0,0.1,0,0.1,0c0,0,0.1,0.1,0.1,0.1c0,0,0.1,0,0.1,0
			c-0.1,0,0.1,0.1,0.1,0.1c0,0,0.1,0.1,0.2,0.1c0,0,0,0,0,0c0,0,0,0,0.1,0.1c0,0,0.1,0,0.1,0.1c0,0.1,0,0,0,0c0,0,0.1,0.1,0.1,0
			c0,0,0,0,0,0.1C28.8,17.4,28.8,17.4,28.9,17.5C28.9,17.5,28.9,17.4,28.9,17.5C28.9,17.5,28.9,17.5,28.9,17.5z M27.9,17.8
			L27.9,17.8L27.9,17.8L27.9,17.8z M27.8,17.8L27.8,17.8C27.8,17.8,27.8,17.8,27.8,17.8C27.8,17.8,27.8,17.8,27.8,17.8L27.8,17.8z
			 M28,18C28,18,27.9,18,28,18C28,18,28,18,28,18L28,18C28,18,28,18,28,18L28,18z"/>
	</g>
	<g>
		<path class="st0" d="M28,18L28,18L28,18L28,18L28,18z"/>
	</g>
	<g>
		<path class="st0" d="M25.2,16.4L25.2,16.4C25.2,16.4,25.2,16.4,25.2,16.4L25.2,16.4z"/>
	</g>
	<g>
		<polygon class="st0" points="26,17.4 26,17.4 26,17.4 		"/>
	</g>
	<g>
		<path class="st0" d="M25.9,16.4C25.9,16.4,25.9,16.4,25.9,16.4C25.9,16.4,25.9,16.4,25.9,16.4z"/>
	</g>
	<g>
		<path class="st0" d="M26.2,16.4L26.2,16.4C26.3,16.4,26.3,16.4,26.2,16.4z"/>
	</g>
	<g>
		<path class="st0" d="M26.5,16.5C26.5,16.5,26.5,16.5,26.5,16.5L26.5,16.5L26.5,16.5z"/>
	</g>
	<g>
		<path class="st0" d="M22.7,16.7L22.7,16.7C22.7,16.7,22.7,16.7,22.7,16.7z"/>
	</g>
	<g>
		<path class="st0" d="M23.8,16.5L23.8,16.5C23.8,16.5,23.8,16.5,23.8,16.5z"/>
	</g>
	<g>
		<polygon class="st0" points="21.6,17.2 21.6,17.2 21.6,17.2 		"/>
	</g>
	<g>
		<path class="st0" d="M23.8,16.5C23.8,16.5,23.8,16.5,23.8,16.5C23.8,16.5,23.8,16.5,23.8,16.5z"/>
	</g>
	<g>
		<path class="st0" d="M27.5,16.6L27.5,16.6L27.5,16.6L27.5,16.6z"/>
	</g>
	<g>
		<path class="st0" d="M27.5,16.6L27.5,16.6C27.5,16.6,27.5,16.6,27.5,16.6z"/>
	</g>
	<g>
		<path class="st0" d="M27.6,16.6L27.6,16.6C27.5,16.6,27.5,16.6,27.6,16.6z"/>
	</g>
	<g>
		<path class="st0" d="M27.2,16.5L27.2,16.5C27.2,16.6,27.2,16.5,27.2,16.5z"/>
	</g>
	<g>
		<path class="st0" d="M27.1,16.5C27.1,16.5,27.2,16.6,27.1,16.5L27.1,16.5C27.2,16.6,27.1,16.5,27.1,16.5z"/>
	</g>
	<g>
		<path class="st0" d="M26.7,16.4L26.7,16.4C26.8,16.4,26.8,16.4,26.7,16.4C26.7,16.4,26.8,16.4,26.7,16.4z"/>
	</g>
	<g>
		<path class="st0" d="M26.5,16.4C26.5,16.4,26.5,16.4,26.5,16.4C26.4,16.4,26.4,16.4,26.5,16.4z"/>
	</g>
	<g>
		<path class="st0" d="M24.7,16.4L24.7,16.4C24.6,16.3,24.7,16.3,24.7,16.4z"/>
	</g>
	<g>
		<polygon class="st0" points="24.3,16.4 24.4,16.4 24.4,16.4 		"/>
	</g>
	<g>
		<polygon class="st0" points="24.1,16.4 24.1,16.4 24.1,16.4 		"/>
	</g>
	<g>
		<path class="st0" d="M21.3,17.3L21.3,17.3C21.3,17.3,21.3,17.2,21.3,17.3z"/>
	</g>
	<g>
		<path class="st0" d="M21.8,17.6C21.8,17.6,21.8,17.6,21.8,17.6C21.8,17.6,21.8,17.6,21.8,17.6z"/>
	</g>
	<g>
		<polygon class="st0" points="25.7,17.5 25.6,17.5 25.7,17.5 		"/>
	</g>
	<g>
		<path class="st0" d="M38.5,19.2c0,0-1.7-1.9-5.3-0.5"/>
	</g>
	<g>
		<path class="st0" d="M38.5,19.2c-0.1-0.1-0.2-0.2-0.3-0.2c-0.1-0.1-0.2-0.1-0.3-0.2c-0.2-0.1-0.4-0.2-0.6-0.3
			c-0.2-0.1-0.4-0.1-0.7-0.2c-0.2,0-0.5-0.1-0.7-0.1c-0.5,0-0.9,0-1.4,0.1c-0.5,0.1-0.9,0.2-1.3,0.3l0,0c0.4-0.2,0.9-0.4,1.3-0.5
			c0.2-0.1,0.5-0.1,0.7-0.1c0.2,0,0.5,0,0.7,0c0.2,0,0.5,0,0.7,0.1c0.2,0.1,0.5,0.1,0.7,0.2c0.2,0.1,0.4,0.2,0.6,0.3
			c0.1,0.1,0.2,0.1,0.3,0.2C38.3,19,38.4,19.1,38.5,19.2L38.5,19.2z"/>
	</g>
	<g>
		<ellipse class="st0" cx="25.9" cy="19.4" rx="0.1" ry="0.1"/>
		<path class="st0" d="M25.9,19.6c-0.1,0-0.2-0.1-0.2-0.2s0.1-0.2,0.2-0.2s0.2,0.1,0.2,0.2S26,19.6,25.9,19.6z M25.9,19.3
			c-0.1,0-0.1,0.1-0.1,0.1s0.1,0.1,0.1,0.1s0.1-0.1,0.1-0.1S26,19.3,25.9,19.3z"/>
	</g>
	<g>
		<ellipse class="st0" cx="36" cy="19.4" rx="0.1" ry="0.1"/>
		<path class="st0" d="M36,19.5c-0.1,0-0.2-0.1-0.2-0.2s0.1-0.2,0.2-0.2s0.2,0.1,0.2,0.2S36.1,19.5,36,19.5z M36,19.2
			c-0.1,0-0.1,0.1-0.1,0.1s0.1,0.1,0.1,0.1s0.1-0.1,0.1-0.1S36,19.2,36,19.2z"/>
	</g>
	<g id="Cilueta-2">
		<path class="st0" d="M44.6,18.3c0,0.3-0.1,0.5-0.2,0.8c-0.1,0.2-0.1,0.4-0.1,0.6c-0.1,0.5-0.2,1-0.3,1.5c-0.2,1-0.4,2-0.5,2.9
			c0,0.2-0.1,0.5-0.1,0.7c0,1.4-0.9,2.7-1.8,2.2c-0.7,3.4-2,6.3-3,7.2c-1.3,1.1-4.9,4.3-7.1,4.4c-2.2,0.1-5.3-2.3-7.8-4.4
			c-1.5-1.2-2.3-4.6-2.8-7.2c-1.4,0.6-1.8-1.9-1.8-1.9c0-1-0.6-2.1-0.6-2.1C18,22.5,18,21.4,18,21.4c-1.4-3.7-0.2-4.4-0.2-4.4
			c0.4-0.1,0.8,0.3,1.2,0.9c0.3,0.5,0.5,1.1,0.7,1.7c0.2,0.7,0.4,1.5,0.5,1.9c0-0.7-0.1-1.4-0.1-1.9c0-0.4,0-0.7,0-0.8
			c0.1-0.2,0.2-1.7,0.2-1.7s0.2-0.8,0.2-1c0-0.2,0.1-1.1,0.1-1.1l0.6-1.3l-0.3-0.3l0.8-1.1l-1.1,0.5l0.8-0.9l0-0.1h0.2l0-0.8l0.8-1
			l-0.2-0.2l1-0.6L22.9,9l0.9-0.5l0.7-0.2l-0.2-0.2l1.4,0.1l-0.1-0.4l1.2,0.4l-0.3-0.5L28,7.9V7.2c0,0,0.8,0.9,0.8,0.7
			c0-0.3,2,0.6,2,0.6s0-1,0.1-1.3c0.1-0.2,0.6,1.3,0.6,1.4c0-0.1-0.3-1.3-0.1-0.9c0.2,0.4,1.9,0.5,1.6,0.3c-0.3-0.1,0.1-1,0.1-1
			s0.3,0.7,1,1c0.8,0.3,3.1,0.1,3.1,0.1l0.6,0.1l-1-1.5l1.5,1.5c1-0.4,2.4,1.9,2.4,1.9l-0.5-0.1l0.5,0.6l0.1,0.3l-0.5-0.3l0.1,0.7
			l-0.1,0c0,0.2,0.2,0.6,0.5,0.9c0.2,0.2,0.4,0.5,0.6,0.7l-0.5-0.3l0.3,0.7l0.1,0.2L41,13.8l0.3,0.5l-0.4,0.1l0.7,1.2L41,15.2
			l1.1,2.3L42,19.8l-0.1,0l0,0l0,2.1c0.2-0.3,0.2-1.1,0.4-1.7c0-0.1,0.1-0.3,0.1-0.4c0.2-0.6,0.4-1.3,0.5-1.7c0-0.2,0.1-0.4,0.2-0.7
			c0.1-0.2,0.3-0.4,0.5-0.5c0.2-0.1,0.4,0,0.6,0.2c0.3,0.2,0.4,0.4,0.5,0.8c0,0,0,0,0,0.1C44.6,18.1,44.6,18.2,44.6,18.3z"/>
		<path class="st3" d="M31.3,38.7c-2.2,0-5.2-2.3-7.8-4.4c-1.5-1.2-2.4-4.6-2.9-7.2c-0.3,0.1-0.6,0.1-0.8,0c-0.8-0.4-1-1.9-1-2
			c0-0.9-0.5-2-0.6-2.1c-0.4-0.5-0.5-1.5-0.5-1.6c-1.4-3.7-0.3-4.4-0.2-4.4c0.4-0.1,0.8,0.2,1.2,0.9c0.2,0.4,0.5,1,0.7,1.7
			c0.2,0.5,0.3,1,0.4,1.4c0-0.5,0-1-0.1-1.4c0-0.7,0-0.8,0-0.8c0.1-0.1,0.2-1.1,0.2-1.6c0.1-0.2,0.2-0.8,0.2-1c0-0.2,0.1-1,0.1-1.1
			l0,0l0.6-1.3l-0.3-0.3l0.7-1l-1.2,0.5l0.9-1.1l0-0.1h0.3l0-0.8l0,0l0.8-1l-0.2-0.2l1-0.6L22.8,9l1-0.5l0.7-0.1l-0.2-0.3l1.4,0.1
			l-0.1-0.4l1.2,0.3l-0.3-0.5l1.4,0.3V7.1L28,7.2c0.3,0.3,0.6,0.7,0.7,0.7c0,0,0-0.1,0-0.1c0.2-0.1,1.5,0.4,2,0.6c0-0.3,0-1,0.1-1.2
			c0,0,0.1-0.1,0.1,0c0.1,0,0.2,0.2,0.3,0.6c0-0.1,0-0.1,0-0.1c0.1,0,0.1,0.1,0.1,0.1c0.2,0.3,1.2,0.4,1.5,0.4
			C32.7,7.9,33,7.2,33,7.1L33.1,7l0,0.1c0,0,0.3,0.7,1,1c0.8,0.3,3,0.1,3.1,0.1l0.5,0.1l-1-1.4l0.1-0.1l1.4,1.5c1-0.4,2.4,1.9,2.5,2
			l0.1,0.1l-0.4-0.1l0.4,0.5l0.2,0.4l-0.5-0.3l0.1,0.7l-0.1,0c0,0.2,0.1,0.5,0.4,0.8c0.2,0.2,0.4,0.5,0.6,0.7l0.2,0.2L41,13l0.4,0.8
			l-0.4,0.1l0.3,0.5L41,14.5l0.8,1.3l-0.6-0.5l1,2.1L42,19.8l-0.1,0.1l0,1.8C42,21.5,42,21.3,42,21c0-0.3,0.1-0.5,0.2-0.8
			c0-0.1,0.1-0.3,0.1-0.4l0-0.1c0.2-0.6,0.4-1.2,0.4-1.6c0-0.2,0.1-0.5,0.2-0.7c0.1-0.3,0.3-0.4,0.5-0.5c0.2-0.1,0.5,0.1,0.6,0.2
			c0.2,0.2,0.4,0.4,0.5,0.8c0,0,0,0,0,0.1c0,0.1,0,0.2,0,0.4v0c0,0.2-0.1,0.4-0.1,0.5c0,0.1-0.1,0.2-0.1,0.3
			c-0.1,0.2-0.1,0.4-0.1,0.6c-0.1,0.5-0.2,1-0.3,1.5c-0.2,0.9-0.4,1.9-0.5,2.9c0,0.2-0.1,0.5-0.1,0.7c0,1-0.5,1.9-1,2.2
			c-0.3,0.2-0.5,0.2-0.8,0c-0.7,3.2-1.9,6.3-3,7.1c-0.1,0.1-0.3,0.3-0.5,0.4C36.4,36.1,33.4,38.6,31.3,38.7
			C31.4,38.7,31.4,38.7,31.3,38.7z M20.8,26.9L20.8,26.9c0.5,2.7,1.4,6.1,2.8,7.3c2.6,2.1,5.5,4.4,7.7,4.4c0,0,0,0,0.1,0
			c2,0,5-2.6,6.6-3.9c0.2-0.2,0.4-0.3,0.5-0.4c1-0.9,2.3-3.9,3-7.1l0-0.1l0.1,0c0.2,0.1,0.5,0.1,0.8,0c0.5-0.3,1-1.2,1-2.1
			c0-0.3,0-0.5,0.1-0.7c0.1-1,0.3-2.1,0.5-3c0.1-0.5,0.2-1,0.3-1.5c0-0.2,0.1-0.4,0.1-0.6c0-0.1,0.1-0.2,0.1-0.3
			c0.1-0.2,0.1-0.3,0.1-0.5l0,0c0-0.1,0-0.2,0-0.3c0,0,0,0,0-0.1c-0.1-0.3-0.2-0.6-0.5-0.7c-0.1-0.1-0.3-0.2-0.5-0.1
			c-0.2,0-0.3,0.2-0.5,0.4c-0.1,0.2-0.1,0.4-0.2,0.6c0,0.4-0.3,1.1-0.4,1.6l0,0.1c-0.1,0.2-0.1,0.3-0.1,0.4
			c-0.1,0.2-0.1,0.5-0.2,0.8c-0.1,0.4-0.1,0.8-0.3,0.9l-0.1,0.1l0-2.3l0.1-0.1l0.1-2.2L40.8,15l0.6,0.4l-0.6-1l0.4-0.1l-0.3-0.5
			l0.4-0.1l-0.5-1l0.4,0.2c-0.1-0.2-0.3-0.3-0.4-0.5c-0.3-0.4-0.5-0.8-0.5-0.9l0,0l0.1,0l-0.1-0.8l0.4,0.2l-0.1-0.1L40.1,10l0.5,0.1
			c-0.3-0.5-1.5-2.1-2.3-1.8l0,0l-1-1l0.7,1l-0.7-0.1c-0.1,0-2.3,0.2-3.1-0.1c-0.6-0.2-0.9-0.7-1-0.9C32.9,7.6,32.8,8,33,8.1
			c0,0,0.1,0,0.1,0.1c0,0.1-0.1,0.1-0.1,0.1c-0.3,0-1.4,0-1.6-0.4c0,0.1,0.1,0.4,0.2,0.8l0,0c0,0,0,0,0,0l-0.1,0
			C31.2,8,31,7.5,30.9,7.3c-0.1,0.2-0.1,0.9-0.1,1.2l0,0.1l-0.1,0c-0.8-0.4-1.8-0.8-1.9-0.7c0,0.1,0,0.1-0.1,0.1c0,0,0,0,0,0
			c-0.1,0-0.4-0.3-0.7-0.6V8l-1.4-0.3L27,8.2l-1.3-0.4l0.1,0.4l-1.4-0.1l0.1,0.2l-0.8,0.2L23,9l0.2,0.2l-1,0.6l0.2,0.2l-0.9,1.1
			l0,0.9h-0.2l0,0.1l-0.6,0.8l1.1-0.5L21,13.6l0.3,0.3l0,0l-0.6,1.3c0,0.1-0.1,0.9-0.1,1.1c0,0.2-0.2,0.9-0.2,1
			c0,0.1-0.1,1.5-0.2,1.7c0,0,0,0.1,0,0.7c0,0.6,0,1.4,0.1,1.9l-0.1,0c-0.1-0.5-0.3-1.2-0.5-1.9c-0.2-0.7-0.5-1.3-0.7-1.7
			c-0.4-0.7-0.8-1-1.1-0.9c0,0-1.1,0.7,0.3,4.3l0,0c0,0,0,1.1,0.4,1.5l0,0c0,0,0.6,1.2,0.6,2.1c0,0,0.2,1.5,0.9,1.9
			C20.2,27.1,20.4,27.1,20.8,26.9L20.8,26.9z"/>
	</g>
	<g id="Cabello-2">
		<path class="st3" d="M43,19v0.1c-0.1,0.2-0.1,0.4-0.2,0.6c0,0.4-0.3,1.1-0.5,1.7c-0.1,0.2-0.1,0.3-0.1,0.4
			c-0.2,0.6-0.2,1.4-0.4,1.7l0-2.1l0,0l0.1,0l0.1-2.3L41,16.8l0.6,0.5l-0.7-1.2l0.4-0.1L41,15.4l0.4-0.1l-0.1-0.2l-0.3-0.7l0.5,0.3
			c-0.2-0.2-0.4-0.5-0.6-0.7c-0.3-0.3-0.5-0.7-0.5-0.9l0.1,0l-0.1-0.7l0.5,0.3l0.2,0.1l-0.3-0.4l-0.5-0.6l0.5,0.1
			c0,0-1.4-2.3-2.4-1.9l-1.5-1.5l1,1.5l-0.6-0.1c0,0-2.3,0.2-3.1-0.1c-0.8-0.3-1-1-1-1s-0.4,0.9-0.1,1c0.3,0.1-1.4,0.1-1.6-0.3
			c-0.2-0.4,0.1,0.8,0.1,0.9c0-0.1-0.5-1.6-0.6-1.4c-0.1,0.2-0.1,1.3-0.1,1.3s-2-0.9-2-0.6c0,0.3-0.8-0.7-0.8-0.7v0.7l-1.4-0.3
			l0.3,0.5l-1.2-0.3l0.1,0.4l-1.4-0.1l0.2,0.2l-0.7,0.2l-0.9,0.5l0.2,0.2l-1,0.6l0.2,0.2l-0.8,1l0,0.8h-0.2l0,0.1l-0.8,0.9l1.1-0.5
			l-0.8,1.1l0.3,0.3l-0.6,1.3c0,0-0.1,0.9-0.1,1.1s-0.2,1-0.2,1s-0.1,1.5-0.2,1.7c0,0,0,0.3,0,0.8c0,0.5,0,1.3,0.1,1.9
			c-0.1-0.5-0.3-1.2-0.5-1.9c-0.2-0.6-0.4-1.2-0.7-1.7c-0.2-1.1-1.9-13.9,8-16L27,3.2c0,0,0.1,0.1,0.2,0.2s0-0.9,0-0.9L27.9,3
			c0,0,0.5-0.8,1.2-0.1c0.6,0.6,0.5-0.4,0.3-0.7c0.3,0.2,0.8,0.7,0.9,0.9c0.2,0.3,0.3-0.6,1.4-0.5c1,0.1,1.8,0.3,2.2,0.5
			s1.3,0.6,1.5,0.8c0.2,0.1,1,0.5,1,0.5l0,0.4C36.4,4.7,43.4,4.9,43,19z"/>
	</g>
	<g id="Labios-2">
		<path class="st3" d="M30.9,32.3c-1.3,0-2.8-0.4-4.5-1.8l0,0l0.1,0c0.9-0.2,1.8-0.5,2.6-0.8c0.1,0,0.2-0.1,0.3-0.1l0,0
			c0.1,0,0.2,0,0.3,0c0,0,0,0,0,0c0.2,0,0.3,0,0.5,0.1l0,0c0,0,0,0,0,0c0,0,0.1,0.1,0.1,0.1c0.2,0.1,0.4,0.1,0.6,0.1c0,0,0,0,0.1,0
			c0.2,0,0.4,0,0.5-0.1c0.1,0,0.1,0,0.1-0.1c0.1,0,0.1,0,0.2,0c0.1,0,0.2,0,0.4,0c0,0,0,0,0,0c0.1,0,0.1,0,0.2,0l0.1,0
			c0.1,0,0.2,0.1,0.4,0.1c1.2,0.4,2,0.6,2.4,0.7l0,0l0,0c0,0-0.9,1.1-2.5,1.6C32.2,32.1,31.6,32.3,30.9,32.3z M26.5,30.4
			c2.6,2.1,4.8,2,6.2,1.5c1.4-0.5,2.3-1.4,2.4-1.6c-0.4-0.1-1.1-0.3-2.3-0.6c-0.2-0.1-0.3-0.1-0.4-0.1l-0.1,0c-0.1,0-0.1,0-0.2,0
			c-0.1,0-0.2,0-0.4,0c0,0-0.1,0-0.1,0c0,0-0.1,0.1-0.1,0.1c-0.2,0.1-0.4,0.1-0.5,0.1c0,0,0,0-0.1,0c-0.2,0-0.4,0-0.6-0.1
			c-0.1,0-0.1,0-0.1-0.1c0,0,0,0,0,0c-0.1-0.1-0.3-0.1-0.4-0.1c0,0,0,0,0,0c-0.1,0-0.2,0-0.3,0l0,0c-0.1,0-0.2,0.1-0.3,0.1
			C28.2,30,27.4,30.2,26.5,30.4z"/>
	</g>
	<g>
		<path class="st3" d="M26.7,30.5c0.3,0,0.6,0,0.9,0c0.2,0,0.3,0,0.5,0c0.1,0,0.2,0,0.2,0c0,0,0.1,0,0.1,0c0,0,0.1,0,0.1,0h0
			c0.5-0.1,0.9-0.1,1.4-0.1h0l1.2,0.1l0.6,0l0.6,0l1.2,0l1.2,0l-1.2,0.1l-1.2,0.1l-0.6,0l-0.6,0L30,30.4h0c-0.5,0-0.9,0.1-1.4,0.1h0
			h0c0,0-0.1,0-0.1,0c0,0-0.1,0-0.1,0c-0.1,0-0.2,0-0.2,0c-0.2,0-0.3,0-0.5,0C27.3,30.5,27,30.5,26.7,30.5z"/>
	</g>
	<g id="Barba-2">
		<path class="st3" d="M40.6,30.4c0,0-1.2,7.8-8.8,8.7h-0.1l-0.4,0l-0.7,0h-0.1c-7.6-0.9-8.8-8.7-8.8-8.7l4.6,4.9
			c3.3,2.5,3.6-0.8,3.6-0.8S29.7,33,31.1,33v0c1.3,0.1,1.2,1.4,1.2,1.4s0.3,3.3,3.6,0.8L40.6,30.4z"/>
	</g>
	<g>
		<line class="st2" x1="22.8" y1="39.5" x2="15.3" y2="41.1"/>
	</g>
	<g>
		<path class="st3" d="M22.8,39.5c-0.6,0.2-1.2,0.3-1.9,0.5l-1.9,0.4l-0.9,0.2c-0.3,0.1-0.6,0.1-0.9,0.2l-0.5,0.1
			c-0.2,0-0.3,0.1-0.5,0.1c-0.3,0-0.6,0.1-0.9,0.1l0,0c0.3-0.1,0.6-0.2,0.9-0.3c0.2,0,0.3-0.1,0.5-0.1l0.5-0.1
			c0.3-0.1,0.6-0.1,0.9-0.2l0.9-0.2l1.9-0.4C21.5,39.7,22.2,39.6,22.8,39.5L22.8,39.5z"/>
	</g>
	<g>
		<path class="st3" d="M46.5,40.8c-0.5-0.1-1.1-0.2-1.6-0.3l-1.6-0.3c-0.3,0-0.5-0.1-0.8-0.1c-0.3,0-0.5-0.1-0.8-0.2l-0.4-0.1
			c-0.1,0-0.3-0.1-0.4-0.1c-0.3-0.1-0.5-0.1-0.8-0.2l0,0c0.3,0,0.6,0,0.8,0.1c0.1,0,0.3,0,0.4,0.1l0.4,0.1c0.3,0,0.5,0.1,0.8,0.2
			c0.3,0.1,0.5,0.1,0.8,0.2l1.6,0.4C45.4,40.5,45.9,40.7,46.5,40.8L46.5,40.8z"/>
	</g>
	<g>
		<path class="st3" d="M31.1,48l-8.4-8.4l0-0.1l0.1-7.4l3.6,3.9l3.9,1.4l5.1-0.7l4.9-5.2l0,8l0,0L31.1,48z M22.9,39.5l8.2,8.2
			l8.8-8.2l0-7.2L35.4,37l0,0l-5.2,0.7l0,0l-4-1.5L23,32.8L22.9,39.5z"/>
	</g>
	<g>
		<path class="st3" d="M28.9,25.8c0.1,0,0.2-0.1,0.3-0.1c0,0,0.1,0,0.1,0c0,0,0.1,0,0.1,0c0.2,0.1,0.3,0.2,0.5,0.3
			c0.1,0.1,0.1,0.1,0.2,0.2s0.1,0.1,0.2,0.2c0.1,0.1,0.3,0.3,0.4,0.4l0,0c0.2,0,0.4,0,0.6,0l0,0c0.1-0.2,0.2-0.3,0.4-0.4
			c0.1-0.1,0.3-0.3,0.4-0.4c0.1-0.1,0.2-0.1,0.2-0.1c0.1,0,0.2-0.1,0.3-0.1c0.1,0,0.2,0,0.3,0.1c0.1,0.1,0.1,0.1,0.2,0.2
			c0-0.1-0.1-0.2-0.2-0.2c-0.1-0.1-0.2-0.1-0.3-0.1c-0.1,0-0.2,0-0.3,0.1c-0.1,0-0.2,0.1-0.2,0.1c-0.1,0.1-0.1,0.1-0.2,0.2
			c-0.1,0.1-0.1,0.1-0.2,0.2c-0.1,0.1-0.2,0.3-0.4,0.4l0,0h0c-0.2,0-0.4,0-0.6,0h0l0,0c-0.1-0.1-0.2-0.3-0.4-0.4
			c-0.1-0.1-0.1-0.1-0.2-0.2s-0.1-0.1-0.2-0.2c-0.1-0.1-0.3-0.2-0.5-0.3c0,0-0.1,0-0.1,0c0,0-0.1,0-0.1,0c0,0-0.1,0-0.1,0
			C29,25.8,29,25.8,28.9,25.8z"/>
	</g>
	<g>
		<path class="st3" d="M33.3,24.3c0.2,0.2,0.3,0.4,0.4,0.6c0.1,0.2,0.2,0.4,0.2,0.7c0,0.1,0,0.2,0,0.3c0,0.1-0.1,0.2-0.1,0.3
			c-0.1,0.2-0.2,0.4-0.4,0.5l0,0c0.1-0.2,0.3-0.4,0.4-0.6c0-0.1,0.1-0.2,0.1-0.3c0-0.1,0-0.2,0-0.3c0-0.2-0.1-0.4-0.2-0.6
			C33.5,24.6,33.4,24.4,33.3,24.3L33.3,24.3z"/>
	</g>
	<g>
		<path class="st3" d="M28.8,26.7c-0.2-0.2-0.3-0.3-0.5-0.6c-0.1-0.2-0.2-0.4-0.2-0.7c0-0.1,0-0.2,0-0.4c0-0.1,0.1-0.2,0.1-0.4
			c0.1-0.2,0.3-0.4,0.4-0.6l0,0c-0.2,0.2-0.3,0.4-0.4,0.6c0,0.1-0.1,0.2-0.1,0.3c0,0.1,0,0.2,0,0.4c0,0.2,0.1,0.5,0.2,0.7
			C28.5,26.4,28.7,26.6,28.8,26.7L28.8,26.7z"/>
	</g>
	<g>
		<circle class="st3" cx="26" cy="19.4" r="0.5"/>
	</g>
	<g>
		<path class="st4" d="M28.4,20.2c-0.2,0.1-0.4,0.2-0.6,0.3s-0.4,0.1-0.6,0.2c-0.4,0.1-0.8,0.2-1.3,0.2c-0.4,0-0.9-0.1-1.2-0.3
			c-0.1-0.1-0.2-0.1-0.3-0.2c-0.1-0.1-0.2-0.1-0.2-0.2c-0.1-0.2-0.2-0.4-0.3-0.6l0,0l0,0c0.1-0.1,0.2-0.1,0.3-0.2
			c0.1-0.1,0.2-0.1,0.3-0.1c0.2-0.1,0.4-0.2,0.6-0.2l0,0l0,0c-0.2,0.5,0.1,1.1,0.7,1.3c0.5,0.2,1.1-0.1,1.3-0.7
			c0.1-0.2,0.1-0.5,0-0.7l0,0l0,0c0.3,0.1,0.6,0.3,0.8,0.5c0.1,0.1,0.2,0.2,0.3,0.3C28.2,19.9,28.3,20,28.4,20.2z M28.4,20.2
			c-0.1-0.1-0.2-0.2-0.3-0.3c-0.1-0.1-0.2-0.2-0.3-0.3c-0.2-0.2-0.5-0.4-0.8-0.5l0,0c0.1,0.3,0.1,0.7-0.1,1
			c-0.1,0.1-0.2,0.3-0.4,0.3c-0.3,0.2-0.7,0.2-1,0C25,20.1,24.8,19.5,25,19l0,0c-0.2,0.1-0.4,0.1-0.6,0.2c-0.1,0-0.2,0.1-0.3,0.1
			S24,19.5,24,19.6l0,0c0.1,0.2,0.2,0.4,0.3,0.5c0.1,0.2,0.3,0.3,0.5,0.4c0.4,0.2,0.8,0.3,1.2,0.3c0.4,0,0.8-0.1,1.3-0.2
			C27.6,20.5,28,20.3,28.4,20.2L28.4,20.2z"/>
	</g>
	<g>
		<path class="st4" d="M26,20.5c-0.3,0-0.6-0.1-0.8-0.3c-0.2-0.2-0.3-0.5-0.3-0.8c0-0.1,0-0.2,0.1-0.4l0,0l0,0c0.7-0.2,1.4-0.2,2,0
			l0,0l0,0c0,0.1,0.1,0.2,0.1,0.4c0,0.3-0.1,0.6-0.3,0.8C26.6,20.4,26.3,20.5,26,20.5C26,20.5,26,20.5,26,20.5z M25,19
			c0,0.1-0.1,0.2-0.1,0.3c0,0.6,0.5,1,1,1c0,0,0,0,0,0c0.3,0,0.5-0.1,0.7-0.3s0.3-0.5,0.3-0.7l0,0c0-0.1,0-0.2-0.1-0.3
			C26.4,18.8,25.7,18.8,25,19z"/>
	</g>
	<g>
		<path class="st3" d="M20.8,26.5c-0.1-0.3-0.2-0.5-0.2-0.8c-0.1-0.3-0.1-0.5-0.1-0.8c0-0.1,0-0.3-0.1-0.4c0-0.1,0-0.3,0-0.4
			c0-0.3,0-0.6-0.1-0.8v0l-0.1-0.2c0-0.1-0.1-0.1-0.1-0.2c-0.1-0.1-0.1-0.2-0.1-0.4c0-0.1,0-0.3,0-0.4c0-0.1,0.1-0.3,0.2-0.3l0,0
			c-0.1-0.3-0.2-0.5-0.3-0.8c-0.1-0.1-0.1-0.2-0.2-0.4c0-0.1-0.1-0.1-0.1-0.2c0-0.1-0.1-0.1-0.1-0.2c0,0,0,0,0,0c0,0,0,0,0,0
			c0,0,0,0.1,0,0.1c0,0.1,0,0.1,0,0.2c0,0.1,0,0.3,0,0.4c0,0.1,0,0.3,0,0.4c0,0.1,0,0.3,0.1,0.4h0c0-0.1,0-0.3-0.1-0.4
			s0-0.3-0.1-0.4s0-0.3,0-0.4c0-0.1,0-0.1,0-0.2c0,0,0-0.1,0-0.1c0,0,0,0,0,0c0,0,0,0,0,0c0,0,0,0,0.1,0c0.1,0,0.1,0.1,0.1,0.2
			c0,0.1,0.1,0.1,0.1,0.2c0.1,0.1,0.1,0.2,0.2,0.4c0.1,0.3,0.2,0.5,0.3,0.8l0,0l0,0c-0.1,0-0.1,0.1-0.1,0.1c0,0,0,0,0,0c0,0,0,0,0,0
			l0,0l0,0c0,0.1,0,0.3,0,0.4c0,0.1,0.1,0.2,0.1,0.4c0.1,0.1,0.1,0.2,0.2,0.3l0,0l0,0c0,0.3,0,0.6,0.1,0.8c0,0.1,0,0.3,0.1,0.4
			c0,0.1,0,0.3,0.1,0.4c0,0.3,0.1,0.5,0.1,0.8c0,0.1,0,0.1,0,0.2c0,0.1,0,0.1,0,0.2c0,0.1,0,0.1,0.1,0.2L20.8,26.5L20.8,26.5z"/>
	</g>
	<g>
		<path class="st3" d="M20.2,23.5c-0.1,0-0.3,0-0.4-0.1c0,0-0.1,0-0.1-0.1c0,0-0.1,0-0.1-0.1l0,0c0,0,0,0,0,0c0,0,0,0-0.1-0.1
			c0,0,0-0.1-0.1-0.1c0,0,0-0.1-0.1-0.1l0,0l0,0c0,0,0-0.1,0-0.1c0-0.1,0-0.1,0-0.2s0-0.1,0-0.2h0c0,0.1,0,0.1,0.1,0.2l0.1,0.2
			c0,0.1,0.1,0.2,0.2,0.4c0,0,0,0.1,0.1,0.1c0,0,0,0,0,0l0,0l0,0c0,0,0,0,0,0l0,0c0,0,0,0,0,0l0,0l0,0c0,0,0.1,0,0.1,0
			C20.1,23.4,20.2,23.5,20.2,23.5L20.2,23.5z"/>
	</g>
	<g>
		<path class="st3" d="M19.5,23.8c-0.1,0-0.2,0-0.2-0.1c0,0-0.1-0.1-0.1-0.1l-0.1-0.1c-0.1-0.1-0.2-0.3-0.2-0.4
			c-0.1-0.2-0.1-0.3-0.1-0.5c0-0.2-0.1-0.3-0.1-0.5c0-0.1,0-0.2,0-0.2s0-0.2,0-0.2l0-0.2c0-0.1,0-0.2,0-0.2c0-0.3,0-0.6,0-1v0
			c0-0.2-0.1-0.3-0.1-0.5c0-0.2-0.1-0.3-0.1-0.5c0-0.2,0-0.3,0-0.5c0-0.2,0-0.3,0-0.5h0c0,0.2,0,0.3,0,0.5c0,0.2,0,0.3,0,0.5
			c0,0.2,0,0.3,0.1,0.5c0,0.2,0.1,0.3,0.1,0.5v0v0c0,0.3,0,0.6,0,1c0,0.1,0,0.2,0,0.2l0,0.2c0,0.1,0,0.2,0,0.2c0,0.1,0,0.2,0,0.2
			c0,0.2,0.1,0.3,0.1,0.5c0,0.2,0.1,0.3,0.1,0.5c0.1,0.2,0.1,0.3,0.2,0.4l0.1,0.1c0,0,0.1,0.1,0.1,0.1
			C19.4,23.8,19.4,23.8,19.5,23.8L19.5,23.8z"/>
	</g>
	<g>
		<path class="st3" d="M18.2,20.2c-0.1-0.4-0.2-0.9-0.3-1.3c0-0.2-0.1-0.4-0.1-0.7c0-0.1,0-0.2,0-0.3c0-0.1,0-0.2,0-0.3c0,0,0,0,0,0
			c0,0,0,0,0,0c0,0,0.1,0,0.1,0c0,0,0,0,0,0c0,0,0,0,0,0c0,0,0,0,0.1,0.1c0.1,0.1,0.2,0.2,0.2,0.3c0.1,0.2,0.2,0.4,0.3,0.6
			c0.2,0.4,0.4,0.8,0.6,1.2h0c-0.2-0.4-0.4-0.8-0.6-1.2c-0.1-0.2-0.2-0.4-0.3-0.6c-0.1-0.1-0.1-0.2-0.2-0.3c0,0-0.1-0.1-0.1-0.1
			c0,0,0,0-0.1,0c0,0,0,0,0,0c0,0,0,0,0,0c0,0.1,0,0.1,0,0.2c0,0.1,0,0.1,0,0.2c0,0.1,0,0.2,0,0.3c0,0.2,0.1,0.4,0.1,0.7
			C18,19.3,18.1,19.8,18.2,20.2L18.2,20.2z"/>
	</g>
	<g>
		<circle class="st3" cx="35.7" cy="19.3" r="0.5"/>
	</g>
	<g>
		<path class="st2" d="M36.6,19c0.2,0.6-0.1,1.2-0.7,1.4c-0.6,0.2-1.2-0.1-1.4-0.7c-0.1-0.2-0.1-0.5,0-0.7"/>
	</g>
	<g>
		<path class="st4" d="M33.2,20.1c0.4,0.2,0.8,0.3,1.2,0.4c0.4,0.1,0.8,0.2,1.3,0.2c0.4,0,0.9-0.1,1.2-0.3c0.2-0.1,0.3-0.2,0.5-0.4
			c0.1-0.2,0.2-0.3,0.3-0.5l0,0c-0.1-0.1-0.2-0.1-0.2-0.2c-0.1-0.1-0.2-0.1-0.3-0.1C37,19.1,36.8,19,36.6,19l0,0
			c0.1,0.3,0.1,0.7-0.1,1c-0.1,0.1-0.2,0.3-0.4,0.3c-0.3,0.2-0.7,0.2-1,0c-0.2-0.1-0.3-0.2-0.4-0.3c-0.2-0.3-0.3-0.7-0.1-1l0,0
			c-0.3,0.1-0.5,0.3-0.8,0.5c-0.1,0.1-0.2,0.2-0.3,0.3C33.4,19.9,33.3,20,33.2,20.1z M33.2,20.1c0.1-0.1,0.2-0.2,0.3-0.4
			c0.1-0.1,0.2-0.2,0.3-0.3c0.2-0.2,0.5-0.4,0.8-0.5l0,0l0,0c-0.1,0.3-0.1,0.7,0.1,0.9c0.3,0.4,0.9,0.6,1.3,0.3
			c0.5-0.2,0.7-0.8,0.5-1.3l0,0l0,0c0.2,0.1,0.4,0.1,0.6,0.2c0.1,0,0.2,0.1,0.3,0.1c0.1,0.1,0.2,0.1,0.3,0.2l0,0l0,0
			c-0.1,0.2-0.2,0.4-0.3,0.6c-0.1,0.2-0.3,0.3-0.5,0.4c-0.4,0.2-0.8,0.3-1.2,0.3c-0.4,0-0.8-0.1-1.3-0.2c-0.2-0.1-0.4-0.1-0.6-0.2
			C33.6,20.3,33.4,20.2,33.2,20.1L33.2,20.1z"/>
	</g>
	<g>
		<path class="st4" d="M35.6,20.4C35.6,20.4,35.6,20.4,35.6,20.4c-0.3,0-0.6-0.1-0.8-0.3c-0.2-0.2-0.3-0.5-0.3-0.8
			c0-0.1,0-0.2,0.1-0.4l0,0l0,0c0.6-0.2,1.3-0.2,2,0l0,0l0,0c0,0.1,0.1,0.2,0.1,0.4c0,0.3-0.1,0.6-0.3,0.8S35.9,20.4,35.6,20.4z
			 M34.6,19c0,0.1-0.1,0.2-0.1,0.3l0,0c0,0.3,0.1,0.5,0.3,0.7c0.2,0.2,0.5,0.3,0.7,0.3c0,0,0,0,0,0c0.3,0,0.5-0.1,0.7-0.3
			c0.2-0.2,0.3-0.5,0.3-0.7c0-0.1,0-0.2-0.1-0.3C35.9,18.7,35.2,18.7,34.6,19z"/>
	</g>
	<g>
		<path class="st3" d="M42.1,22.2c0,0-0.2,4.1-0.5,4.4"/>
	</g>
	<g>
		<path class="st3" d="M42.5,22.3c0-0.2,0-0.4,0-0.6c0-0.1,0-0.2,0-0.3c0-0.1,0-0.1,0-0.2c0,0,0-0.1,0-0.1c0,0,0-0.1,0.1-0.1
			c0,0,0,0,0.1,0c0,0,0,0,0,0c0,0,0,0,0,0.1c0,0,0,0.1,0.1,0.1c0,0.1,0.1,0.2,0.1,0.3c0,0.2,0.1,0.4,0.1,0.6v0l0,0
			c-0.1,0.1-0.1,0.2-0.2,0.4c0,0.1,0,0.1,0,0.2c0,0.1,0,0.1,0,0.2v0c0.1,0.1,0.1,0.2,0.1,0.4c0,0.1,0,0.1,0,0.2c0,0.1,0,0.1-0.1,0.2
			c0,0.1-0.1,0.1-0.2,0.1c-0.1,0-0.1,0-0.2,0.1c-0.1,0-0.1,0-0.2,0c0,0-0.1,0-0.1-0.1c0,0,0-0.1,0-0.1c0-0.1,0-0.1,0-0.2
			c0-0.1,0.1-0.1,0.1-0.2c0.1-0.1,0.1-0.2,0.1-0.4c0-0.1,0-0.3,0-0.4C42.6,22.5,42.5,22.4,42.5,22.3z M42.5,22.3
			c0.1,0.2,0.1,0.5,0.1,0.8c0,0.1-0.1,0.3-0.1,0.4c-0.1,0.1-0.1,0.2-0.1,0.4c0,0,0,0.1,0,0.1c0,0,0,0,0.1,0c0.1,0,0.1,0,0.2,0
			c0.1,0,0.1,0,0.2-0.1c0,0,0.1,0,0.1,0c0,0,0,0,0.1-0.1c0-0.1,0.1-0.1,0.1-0.2c0-0.1,0-0.1,0-0.2c0-0.1-0.1-0.3-0.1-0.4l0,0l0,0
			c0-0.1,0-0.1,0-0.2c0-0.1,0-0.1,0.1-0.2c0-0.1,0.1-0.1,0.1-0.2c0-0.1,0.1-0.1,0.1-0.2v0c0-0.2-0.1-0.4-0.1-0.6
			c0-0.1-0.1-0.2-0.1-0.3c0,0,0-0.1-0.1-0.1c0,0,0,0,0-0.1c0,0,0,0,0,0c0,0,0,0,0,0c0,0,0,0,0,0.1c0,0,0,0.1,0,0.1
			c0,0.1,0,0.2-0.1,0.3C42.5,21.8,42.5,22.1,42.5,22.3L42.5,22.3z"/>
	</g>
	<g>
		<path class="st3" d="M42.3,21.6c0.1-0.4,0.2-0.9,0.3-1.3c0.1-0.2,0.1-0.4,0.2-0.7l0.1-0.3L43,19c0-0.1,0.1-0.2,0.1-0.3
			c0-0.1,0.1-0.2,0.1-0.3c0,0,0,0,0.1-0.1c0,0,0,0,0.1-0.1c0,0,0,0,0.1,0c0,0,0,0,0,0c0,0,0,0.1,0,0.1c0,0.1,0,0.1,0,0.2l0,0.2
			c0,0.2,0.1,0.4,0.1,0.7c0,0.1,0,0.2,0,0.3c0,0.1,0,0.2,0,0.3v0c0,0.2-0.1,0.3-0.1,0.5c0,0.2-0.1,0.3-0.1,0.5h0
			c0-0.2,0.1-0.3,0.1-0.5c0-0.2,0.1-0.3,0.1-0.5v0c0-0.1,0-0.2,0-0.3c0-0.1,0-0.2,0-0.3c0-0.2-0.1-0.4-0.1-0.7l0-0.2
			c0-0.1,0-0.1,0-0.2c0,0,0-0.1,0-0.1c0,0,0,0,0,0c0,0,0,0-0.1,0c0,0,0,0,0,0.1c-0.1,0.1-0.1,0.2-0.1,0.3c0,0.1-0.1,0.2-0.1,0.3
			c-0.1,0.4-0.2,0.9-0.4,1.3L42.3,21.6L42.3,21.6z"/>
	</g>
	<g>
		<path class="st3" d="M43.2,19.3c0,0.3-0.1,0.7-0.1,1c0,0.3-0.1,0.7,0,1c0,0.1,0,0.2,0.1,0.2c0,0,0,0.1,0.1,0.1c0,0,0,0,0,0h0
			c0,0,0,0,0.1,0c0,0,0.1,0.1,0.1,0.1c0,0,0,0.1,0,0.1c0,0.1,0,0.2,0,0.3c0,0.2,0,0.3-0.1,0.5c0,0.2-0.1,0.3-0.1,0.5h0
			c0.1-0.3,0.1-0.6,0.2-1c0-0.1,0-0.2,0-0.2c0,0,0-0.1,0-0.1c0,0,0-0.1-0.1-0.1c0,0,0,0,0,0c0,0,0,0,0,0c0,0,0,0,0,0
			c0,0-0.1-0.1-0.1-0.1c0-0.1,0-0.2,0-0.2c0-0.2,0-0.3,0-0.5s0-0.3,0-0.5C43.1,19.9,43.1,19.6,43.2,19.3L43.2,19.3z"/>
	</g>
	<g>
		<path class="st3" d="M23.2,19.5c0.2-0.2,0.3-0.3,0.5-0.4c0.2-0.1,0.4-0.2,0.6-0.3c0.2-0.1,0.4-0.2,0.6-0.2c0.2,0,0.4-0.1,0.7-0.1
			l0.2,0l0.2,0c0.1,0,0.1,0,0.2,0s0.1,0,0.2,0c0.2,0,0.5,0,0.7,0.1c0.4,0.1,0.9,0.2,1.3,0.5l0,0c-0.4-0.1-0.9-0.2-1.3-0.3
			c-0.4-0.1-0.9-0.1-1.3-0.1c-0.2,0-0.4,0-0.7,0.1c-0.2,0-0.4,0.1-0.6,0.2c-0.2,0.1-0.4,0.2-0.6,0.3C23.6,19.2,23.4,19.3,23.2,19.5
			L23.2,19.5z"/>
	</g>
	<g>
		<path class="st3" d="M33.3,16.8c-0.1,0-0.2,0-0.4,0.1c-0.1,0.1-0.2,0.2-0.3,0.2c-0.2,0.2-0.6,0.6-0.3,0.9c0.2,0.2,0.6,0.2,0.9,0.1
			c0.1-0.1,0.2-0.1,0.4-0.2c0.1-0.1,0.3-0.1,0.4-0.1c0.1,0,0.2,0,0.3-0.1c0.2,0,0.3,0,0.5,0c0.4,0,0.9-0.1,1.3-0.1
			c0.9,0,1.9-0.1,2.8,0.1c0.3,0,0.7,0.1,0.9,0.3c0,0,0,0,0,0c0-0.1-0.1-0.3-0.2-0.4c-0.2-0.2-0.5-0.4-0.8-0.5
			c-0.6-0.2-1.2-0.3-1.8-0.4C35.8,16.5,34.5,16.5,33.3,16.8z"/>
	</g>
	<g>
		<path class="st5" d="M33.3,16.7C33.3,16.7,33.3,16.7,33.3,16.7L33.3,16.7L33.3,16.7z"/>
	</g>
	<g>
		<path class="st5" d="M33.4,16.7C33.5,16.7,33.5,16.7,33.4,16.7C33.4,16.7,33.4,16.7,33.4,16.7C33.4,16.7,33.4,16.7,33.4,16.7
			c-0.1,0-0.1,0-0.1,0C33.4,16.7,33.4,16.7,33.4,16.7C33.4,16.7,33.4,16.7,33.4,16.7z"/>
	</g>
	<g>
		<path class="st5" d="M35.8,16.6L35.8,16.6C35.8,16.6,35.8,16.6,35.8,16.6z"/>
	</g>
	<g>
		<path class="st5" d="M37.2,16.6C37.2,16.6,37.2,16.6,37.2,16.6C37.2,16.6,37.2,16.6,37.2,16.6z"/>
	</g>
	<g>
		<path class="st5" d="M37.5,16.7L37.5,16.7C37.4,16.7,37.5,16.7,37.5,16.7z"/>
	</g>
	<g>
		<path class="st5" d="M35.8,16.6L35.8,16.6C35.8,16.6,35.8,16.6,35.8,16.6z"/>
	</g>
	<g>
		<path class="st5" d="M33.7,16.6C33.7,16.6,33.7,16.6,33.7,16.6L33.7,16.6C33.7,16.6,33.7,16.6,33.7,16.6z"/>
	</g>
	<g>
		<path class="st5" d="M35.1,16.6L35.1,16.6L35.1,16.6L35.1,16.6z"/>
	</g>
	<g>
		<path class="st5" d="M34.6,16.6C34.6,16.6,34.6,16.6,34.6,16.6C34.6,16.6,34.6,16.6,34.6,16.6C34.6,16.6,34.6,16.6,34.6,16.6z"/>
	</g>
	<g>
		<path class="st5" d="M33.9,16.7L33.9,16.7L33.9,16.7z"/>
	</g>
	<g>
		<path class="st5" d="M35.5,16.6C35.5,16.6,35.5,16.6,35.5,16.6C35.5,16.6,35.5,16.6,35.5,16.6z"/>
	</g>
	<g>
		<path class="st5" d="M32.7,16.9L32.7,16.9C32.7,16.9,32.7,16.9,32.7,16.9z"/>
	</g>
	<g>
		<path class="st5" d="M33.3,16.8L33.3,16.8C33.3,16.8,33.3,16.8,33.3,16.8L33.3,16.8z"/>
	</g>
	<g>
		<path class="st5" d="M37.9,16.8L37.9,16.8C37.9,16.8,37.9,16.8,37.9,16.8z"/>
	</g>
	<g>
		<path class="st5" d="M38,17.5C38,17.5,37.9,17.5,38,17.5C38,17.5,38,17.5,38,17.5z"/>
	</g>
	<g>
		<path class="st5" d="M33.8,16.6L33.8,16.6C33.8,16.6,33.8,16.6,33.8,16.6z"/>
	</g>
	<g>
		<path class="st5" d="M38,17.5L38,17.5L38,17.5L38,17.5z"/>
	</g>
	<g>
		<path class="st5" d="M38.9,17.1C38.9,17.1,38.9,17.1,38.9,17.1C38.9,17.1,38.9,17.1,38.9,17.1z"/>
	</g>
	<g>
		<path class="st5" d="M38.2,16.8L38.2,16.8C38.2,16.8,38.2,16.8,38.2,16.8z"/>
	</g>
	<g>
		<path class="st5" d="M39.2,17.3C39.2,17.3,39.2,17.3,39.2,17.3L39.2,17.3C39.2,17.3,39.2,17.3,39.2,17.3z"/>
	</g>
	<g>
		<path class="st5" d="M39.5,17.5C39.5,17.5,39.5,17.5,39.5,17.5L39.5,17.5L39.5,17.5z"/>
	</g>
	<g>
		<path class="st5" d="M32.2,18C32.2,18,32.2,18,32.2,18C32.2,18,32.1,18,32.2,18z"/>
	</g>
	<g>
		<path class="st5" d="M33.7,16.6C33.7,16.6,33.7,16.6,33.7,16.6L33.7,16.6C33.7,16.6,33.7,16.6,33.7,16.6
			C33.7,16.6,33.7,16.6,33.7,16.6z"/>
	</g>
	<g>
		<path class="st5" d="M39.3,17.2C39.3,17.2,39.4,17.2,39.3,17.2C39.4,17.2,39.3,17.2,39.3,17.2z"/>
	</g>
	<g>
		<path class="st5" d="M35.1,17.7L35.1,17.7C35.1,17.7,35.1,17.7,35.1,17.7z"/>
	</g>
	<g>
		<path class="st5" d="M39.5,17.4C39.5,17.4,39.5,17.4,39.5,17.4C39.6,17.4,39.6,17.4,39.5,17.4L39.5,17.4z"/>
	</g>
	<g>
		<path class="st5" d="M32.2,18"/>
	</g>
	<g>
		<path class="st5" d="M32.1,17.5C32.1,17.6,32.1,17.6,32.1,17.5c0,0.1,0,0.1,0,0.1c0,0,0,0,0,0c0,0,0,0.1,0,0.1c0,0,0,0,0,0.1
			c0,0,0,0,0,0c0,0,0,0.1,0,0.1c0,0,0,0,0,0.1c0,0,0,0,0,0c0,0,0,0,0,0c0,0,0,0,0,0c0,0,0,0,0,0c0,0,0,0,0,0l0,0c0,0,0,0,0,0
			c0.1,0,0.1,0.1,0.2,0.1c0,0,0,0,0,0s0,0,0,0c0,0,0,0-0.1,0c0,0,0,0,0,0c0,0,0,0,0,0c0,0,0,0,0.1,0l0,0c0,0,0,0,0,0c0,0,0,0,0.1,0
			c0,0,0,0,0,0c0,0,0.1,0,0.1,0c0,0,0.1,0,0.1,0c0,0,0.1,0,0.1,0l0,0c0.1,0,0,0,0.1,0c0,0-0.1,0-0.1,0c0.1,0,0,0,0.1,0l0,0
			c0.1,0,0.2-0.1,0.3-0.1c0,0,0,0,0,0c0.1,0,0.1-0.1,0.2-0.1c0,0,0.1,0,0.1,0c0,0,0.1,0,0.1,0c0,0,0,0,0,0c0,0,0,0,0,0c0,0,0,0,0,0
			c0,0,0,0,0,0c0.1,0,0.1,0,0.2,0c0,0,0.1,0,0.1,0c0,0,0.1,0,0.1,0l0,0c0.1,0,0.1,0,0.1,0l0,0c0,0,0.1,0,0.1,0l0.1,0
			c0.1,0,0.1,0,0.2,0c0,0,0.2,0,0.2,0c0.1,0,0.1,0,0.2,0c0,0,0,0,0.1,0v0l0.1,0l0,0l0,0c0,0,0,0,0,0c0,0,0.1,0,0.1,0l0.1,0
			c0,0,0,0,0,0c0.1,0,0,0,0.1,0c0,0,0,0,0,0c0.1,0,0.1,0,0.2,0l0,0c0.1,0,0.2,0,0.3,0c0,0,0,0,0,0l0,0c0,0,0,0,0,0c0,0,0,0,0,0
			l0.1,0c0,0,0,0,0,0c0,0,0.1,0,0.1,0l0,0c0.1,0,0.2,0,0.3,0c0,0,0,0,0.1,0c0.1,0,0.2,0,0.2,0c0.1,0,0,0,0,0c0,0,0.1,0,0,0
			c0.1,0,0.1,0,0.3,0c0,0,0,0,0,0c0,0,0.1,0,0.1,0h0c0.1,0,0.3,0,0.5,0h0l0.1,0c0.1,0,0,0,0,0c0.1,0,0.2,0,0.3,0
			c0.1,0,0.3,0,0.4,0.1l0,0c0,0,0,0,0.1,0c0,0,0,0,0,0c0.2,0,0.5,0.1,0.7,0.1c0.1,0,0.1,0,0.2,0l0,0c0.1,0,0.1,0,0.2,0.1
			c0,0,0.1,0,0.1,0l0,0l0,0l0,0l0,0c0,0,0.1,0,0.1,0l0,0l0,0c0,0,0,0,0,0c0,0,0,0,0,0c0,0,0,0,0,0c0,0,0,0,0,0l0,0c0,0,0,0,0,0l0,0
			c0,0,0,0,0-0.1c0,0,0,0,0,0c0,0,0,0,0,0c0,0,0,0,0-0.1c0,0,0,0,0,0c0,0,0,0,0,0c0,0,0,0,0,0c0,0-0.1-0.1-0.1-0.1
			c0-0.1-0.1-0.1-0.1-0.1c0,0-0.1-0.1-0.1-0.1c0,0-0.1-0.1-0.1-0.1c0,0,0,0,0,0c0,0-0.1-0.1-0.1,0c-0.1-0.1-0.2-0.1-0.2-0.1
			c-0.1-0.1-0.3-0.1-0.4-0.1c0,0,0.1,0,0.1,0c-0.1,0-0.2,0-0.3-0.1c0,0,0,0,0,0c-0.1,0-0.2-0.1-0.3-0.1c0,0,0,0,0,0c0,0,0,0,0,0h0
			c0,0-0.1,0-0.1,0c0,0-0.1,0,0-0.1c0,0,0,0,0,0c0,0,0,0,0,0c-0.1,0-0.1,0-0.1,0c0,0,0,0,0,0c0,0-0.1,0-0.1,0c0,0,0,0,0,0
			c-0.1,0-0.2,0-0.3,0c0,0,0,0,0,0h-0.1l0,0c-0.1,0-0.1,0-0.1,0l0,0l-0.1,0l0.1,0c-0.1,0,0,0-0.1,0c0,0-0.1,0-0.1,0l0,0
			c0,0-0.1,0-0.1,0c0,0,0,0,0,0c0,0-0.1,0-0.2,0c0,0,0,0,0,0l0,0c0,0,0,0,0,0c-0.1,0,0,0-0.1,0c0,0,0,0,0,0c-0.1,0-0.2,0-0.3,0
			c0,0,0.1,0,0,0c-0.1,0-0.2,0-0.4,0l0,0c0,0-0.1,0-0.1,0c0,0,0,0,0,0c-0.1,0-0.2,0-0.3,0l0,0c0,0-0.1,0-0.2,0c0,0,0,0,0,0
			c-0.2,0-0.3,0-0.4,0c0,0,0,0,0,0l-0.1,0c0,0,0,0,0,0c0,0,0,0-0.1,0c0.1,0,0,0,0,0c0,0,0,0,0,0c-0.1,0,0,0-0.1,0l0,0
			c0,0-0.1,0-0.1,0c0,0,0,0,0,0c0,0-0.1,0-0.1,0c0,0,0,0,0.1,0c0,0-0.1,0-0.1,0h0h-0.1l0,0c-0.1,0-0.1,0-0.2,0c0.1,0,0,0,0,0
			c0,0-0.1,0,0,0c0,0-0.1,0-0.1,0c0,0,0,0,0,0c0,0,0,0,0,0c-0.1,0-0.2,0-0.3,0c-0.1,0-0.1,0-0.2,0.1c0,0,0,0,0,0c0,0-0.1,0-0.1,0
			c0,0,0,0,0,0c0,0,0,0-0.1,0c0,0,0,0,0,0c0,0-0.1,0-0.1,0c0,0,0,0,0,0c0,0-0.1,0-0.1,0h0c0,0,0,0,0,0c0,0,0.1,0,0.1,0l0,0
			c0,0,0.1,0,0.2,0l0,0l0.1,0c0,0,0,0,0,0c0,0,0,0,0.1,0c0,0,0,0,0,0l0,0c0,0,0,0,0,0c0.1,0,0.1,0,0.2,0h0c0.1,0,0,0,0.1,0l0.1,0
			l0,0c0,0,0,0,0,0c0,0,0,0,0,0c0.1,0,0.1,0,0.2,0c0,0-0.1,0,0,0c0,0,0.1,0,0.1,0c0,0-0.1,0,0,0c0,0,0.1,0,0.1,0c0,0,0.1,0,0.2,0
			c0,0,0.1,0,0.2,0v0c0,0,0.1,0,0.1,0c0,0,0,0,0,0h0c0,0,0,0,0.1,0l0,0c0.1,0,0.1,0,0.2,0c0,0-0.1,0,0,0c0,0,0,0,0,0c0,0,0,0,0,0
			l0,0c0,0,0,0,0,0c0,0,0,0,0,0c0,0,0,0,0,0c0,0,0.1,0,0.1,0c0,0,0,0,0,0c0.1,0,0,0,0.1,0c0,0,0.1,0,0.1,0c0,0,0,0,0,0
			c0,0,0.1,0,0.1,0h0h0c0.1,0,0.2,0,0.3,0v0c0.1,0,0.1,0,0.2,0c0,0,0,0,0,0c0,0,0.1,0,0.1,0c0,0,0,0,0,0c0,0,0.1,0,0.1,0
			c0,0,0,0,0.1,0l0,0c0,0,0.1,0,0.1,0l0,0c0.1,0,0.2,0,0.3,0c0,0-0.1,0,0,0c0,0,0.1,0,0.1,0c0.1,0,0.1,0,0.2,0c0,0,0,0,0,0
			c0.1,0,0.1,0,0,0c0,0,0,0,0,0c0,0,0,0,0,0l0,0c0,0,0.1,0,0.1,0c0,0,0,0,0,0c0.1,0,0.1,0,0.2,0c0,0,0,0,0,0c0.1,0,0,0,0.1,0
			c0,0,0,0,0.1,0c0,0,0,0,0,0c0.1,0,0.1,0,0.2,0h0c0,0,0,0,0.1,0l0,0c0,0,0,0,0,0c0,0,0,0,0,0c0,0,0.1,0,0.1,0c-0.1,0,0,0-0.1,0
			c0,0,0,0,0.1,0c0,0,0,0,0,0c0.1,0,0,0,0.1,0c0,0,0,0,0,0c0,0,0,0,0,0c0,0,0.1,0,0.1,0l0,0c0,0,0.1,0,0.1,0c0,0,0,0,0,0
			c0,0,0.1,0,0.2,0c0,0,0,0,0,0c0.1,0,0.1,0,0.1,0c0,0,0,0,0,0c0,0-0.1,0-0.1,0c0,0,0.1,0,0.1,0c0,0-0.1,0-0.1,0c0,0,0,0,0,0
			c0,0,0.1,0,0.1,0l0,0c0.1,0,0.1,0,0.2,0.1l0,0c0,0,0.1,0,0.1,0c0,0,0,0,0,0c0,0,0.1,0,0.1,0l0,0c0.1,0,0.1,0,0.2,0.1
			c0,0,0,0-0.1,0c0,0,0,0,0,0c0,0,0.1,0,0.1,0.1c0,0,0,0,0,0c0,0,0,0,0,0s0,0,0,0c0,0,0.1,0.1,0.1,0.1c0,0,0.1,0.1,0.1,0.1
			c0,0,0.1,0.1,0.1,0.2c0,0,0,0,0,0c0,0,0,0,0,0.1c0,0,0,0,0,0c0,0,0,0,0,0c0,0,0,0,0,0c0,0,0,0,0,0c0,0,0,0,0,0c0,0,0,0,0,0
			s0,0,0,0c0,0,0,0,0,0c0,0,0,0,0,0c0,0,0,0,0,0c0,0,0,0,0,0c0,0,0,0,0,0l0,0l-0.1,0c0,0-0.1,0-0.1,0c0,0,0,0,0,0c0,0,0,0-0.1,0
			c0,0-0.1,0-0.1,0l0.1,0c0,0-0.1,0-0.1,0l0,0c-0.1,0-0.1,0-0.2,0l0,0c-0.1,0,0,0-0.1,0l0,0c0,0-0.1,0-0.2,0c0.1,0,0.1,0,0.2,0
			c0,0-0.1,0-0.1,0c0,0,0,0,0,0c-0.1,0-0.1,0-0.2,0c0,0-0.2,0-0.2-0.1c-0.1,0-0.2,0-0.4,0c0,0,0,0,0,0c0,0,0,0,0,0l-0.1,0
			c0,0,0,0,0,0c-0.1,0,0,0-0.1,0c0,0,0,0-0.1,0l0.1,0c-0.1,0-0.1,0-0.2,0l0,0c-0.1,0-0.2,0-0.3,0c0,0,0,0,0,0c-0.1,0-0.3,0-0.4,0
			l0,0c0,0,0,0-0.1,0c0,0,0,0,0,0c0,0-0.1,0-0.1,0l0,0c-0.1,0-0.2,0-0.3,0c0,0-0.1,0-0.1,0v0c-0.1,0-0.3,0-0.4,0c-0.1,0-0.3,0-0.4,0
			c0,0,0,0,0,0c0,0-0.1,0-0.1,0h0c0,0-0.1,0-0.1,0l0,0c-0.1,0-0.3,0-0.4,0c0,0-0.1,0-0.1,0v0c-0.1,0-0.2,0-0.2,0l0,0
			c-0.1,0-0.1,0-0.1,0.1l0,0c-0.1,0-0.2,0-0.3,0c0,0,0,0,0,0c0,0-0.1,0-0.1,0c0,0-0.1,0-0.1,0c0,0,0,0-0.1,0l0,0l0,0l0,0
			c0,0-0.1,0-0.1,0c0,0,0,0,0,0c-0.1,0,0,0-0.1,0l0,0c0,0-0.1,0-0.1,0c0,0-0.1,0-0.1,0c0,0,0,0-0.1,0.1c0,0,0,0,0,0
			c-0.1,0-0.1,0.1-0.2,0.1c0,0,0,0,0,0c0.1,0,0.1-0.1,0.1-0.1c0,0-0.1,0,0,0c0,0-0.1,0.1-0.1,0.1c0,0,0,0,0,0l0,0c0,0,0,0,0,0
			c0,0,0,0,0,0c0,0-0.1,0-0.1,0c0,0,0,0,0,0c0,0,0,0,0,0l0,0l0,0c0,0,0,0,0.1,0c0,0,0,0-0.1,0c0,0,0,0,0,0c0,0-0.1,0-0.1,0
			c-0.1,0-0.2,0-0.3,0.1c0,0,0,0,0,0c0,0,0,0,0,0c-0.1,0-0.1,0-0.2,0c-0.1,0,0,0,0,0h0c-0.1,0-0.1-0.1-0.2-0.1c0,0,0,0,0,0
			c0,0,0,0,0,0c0,0,0,0,0-0.1c0,0,0,0,0-0.1c0,0,0,0,0,0C32.2,17.7,32.2,17.7,32.1,17.5c0.1,0,0.1,0,0.2,0c0.1-0.1,0.1-0.2,0.2-0.2
			c0,0,0.1,0,0.1-0.1l0,0l0-0.1c0.1-0.1,0.2-0.1,0.2-0.1h0c0,0,0.1-0.1,0.1-0.1c0,0,0,0,0,0l0,0c0,0,0.1,0,0.1-0.1c0.1,0,0,0,0.1,0
			c0,0,0.1,0,0.1-0.1c0,0,0,0,0,0l0,0c0,0,0-0.1-0.1-0.1l-0.1,0l0,0l0.1,0c0,0-0.1,0-0.1,0c0,0,0,0,0,0c0,0,0,0-0.1,0c0,0,0,0,0,0
			c0,0,0,0,0,0c0,0,0,0-0.1,0c0,0,0,0,0,0c0,0-0.1,0.1-0.1,0.1c0,0-0.1,0.1-0.1,0c0,0,0,0-0.1,0.1c0-0.1-0.1,0.1-0.1,0
			c0,0-0.1,0.1-0.2,0.2c0,0,0,0,0,0c0,0,0,0-0.1,0c0,0,0,0.1,0,0.1c-0.1,0,0,0,0,0c0,0,0,0.1,0,0.1c0,0,0,0-0.1,0
			C32.2,17.4,32.2,17.5,32.1,17.5C32.1,17.5,32.1,17.5,32.1,17.5C32.1,17.6,32.1,17.5,32.1,17.5z M33.2,18L33.2,18L33.2,18L33.2,18z
			 M33.3,18L33.3,18C33.3,18,33.3,18,33.3,18C33.3,18,33.3,18,33.3,18L33.3,18z M33,18C33.1,18,33.1,18,33,18L33,18L33,18
			C33,18,33,18,33,18L33,18z"/>
	</g>
	<g>
		<path class="st5" d="M33,18L33,18L33,18L33,18L33,18z"/>
	</g>
	<g>
		<path class="st5" d="M35.7,16.5L35.7,16.5C35.7,16.5,35.7,16.5,35.7,16.5L35.7,16.5z"/>
	</g>
	<g>
		<polygon class="st5" points="35,17.7 35,17.7 35,17.7 		"/>
	</g>
	<g>
		<path class="st5" d="M35.1,16.5C35.1,16.5,35,16.5,35.1,16.5C35,16.5,35.1,16.5,35.1,16.5z"/>
	</g>
	<g>
		<path class="st5" d="M34.8,16.5L34.8,16.5L34.8,16.5z"/>
	</g>
	<g>
		<path class="st5" d="M34.5,16.5C34.5,16.5,34.5,16.5,34.5,16.5L34.5,16.5L34.5,16.5z"/>
	</g>
	<g>
		<path class="st5" d="M38.2,16.7L38.2,16.7C38.2,16.7,38.2,16.7,38.2,16.7z"/>
	</g>
	<g>
		<path class="st5" d="M37.1,16.6C37.1,16.6,37.1,16.6,37.1,16.6C37.1,16.6,37.1,16.6,37.1,16.6z"/>
	</g>
	<g>
		<polygon class="st5" points="39.3,17.2 39.3,17.2 39.3,17.2 		"/>
	</g>
	<g>
		<path class="st5" d="M37.2,16.6C37.2,16.6,37.1,16.6,37.2,16.6C37.1,16.6,37.2,16.6,37.2,16.6z"/>
	</g>
	<g>
		<path class="st5" d="M33.5,16.7L33.5,16.7C33.5,16.7,33.5,16.7,33.5,16.7L33.5,16.7z"/>
	</g>
	<g>
		<path class="st5" d="M33.5,16.7L33.5,16.7C33.5,16.7,33.5,16.7,33.5,16.7z"/>
	</g>
	<g>
		<path class="st5" d="M33.5,16.7L33.5,16.7C33.5,16.7,33.5,16.7,33.5,16.7z"/>
	</g>
	<g>
		<path class="st5" d="M33.8,16.6L33.8,16.6C33.8,16.6,33.8,16.6,33.8,16.6z"/>
	</g>
	<g>
		<path class="st5" d="M33.9,16.6C33.9,16.6,33.9,16.6,33.9,16.6L33.9,16.6C33.9,16.6,33.9,16.6,33.9,16.6z"/>
	</g>
	<g>
		<path class="st5" d="M34.3,16.6L34.3,16.6C34.3,16.6,34.3,16.6,34.3,16.6C34.3,16.6,34.2,16.6,34.3,16.6z"/>
	</g>
	<g>
		<path class="st5" d="M34.6,16.6C34.5,16.6,34.6,16.6,34.6,16.6C34.6,16.6,34.6,16.6,34.6,16.6z"/>
	</g>
	<g>
		<path class="st5" d="M36.3,16.6L36.3,16.6C36.3,16.6,36.3,16.6,36.3,16.6z"/>
	</g>
	<g>
		<polygon class="st5" points="36.6,16.5 36.6,16.5 36.6,16.5 		"/>
	</g>
	<g>
		<polygon class="st5" points="36.8,16.6 36.8,16.6 36.8,16.6 		"/>
	</g>
	<g>
		<path class="st5" d="M39.5,17.5L39.5,17.5C39.5,17.5,39.5,17.5,39.5,17.5z"/>
	</g>
	<g>
		<path class="st5" d="M39.1,17.6C39.1,17.6,39,17.6,39.1,17.6C39,17.6,39.1,17.6,39.1,17.6z"/>
	</g>
	<g>
		<polygon class="st5" points="35.3,17.5 35.3,17.5 35.3,17.5 		"/>
	</g>
	<g>
		<path class="st3" d="M28,16.8c0.1,0,0.2,0,0.4,0.1c0.1,0.1,0.2,0.2,0.3,0.2c0.2,0.2,0.6,0.6,0.3,0.9c-0.2,0.2-0.6,0.2-0.9,0.1
			c-0.1-0.1-0.2-0.1-0.4-0.2c-0.1-0.1-0.3-0.1-0.4-0.1c-0.1,0-0.2,0-0.3-0.1c-0.2,0-0.3,0-0.5,0c-0.4,0-0.9-0.1-1.3-0.1
			c-0.9,0-1.9-0.1-2.8,0.1c-0.3,0-0.7,0.1-0.9,0.3c0,0,0,0,0,0c0-0.1,0.1-0.3,0.2-0.4c0.2-0.2,0.5-0.4,0.8-0.5
			c0.6-0.2,1.2-0.3,1.8-0.4C25.5,16.5,26.8,16.6,28,16.8z"/>
	</g>
	<g>
		<path class="st5" d="M28,16.9C28,16.9,28,16.9,28,16.9L28,16.9L28,16.9z"/>
	</g>
	<g>
		<path class="st5" d="M27.8,16.8C27.8,16.8,27.8,16.8,27.8,16.8C27.8,16.8,27.8,16.8,27.8,16.8C27.9,16.8,27.9,16.8,27.8,16.8
			c0.1,0,0.1,0,0.1,0C27.9,16.8,27.9,16.8,27.8,16.8C27.8,16.8,27.8,16.8,27.8,16.8z"/>
	</g>
	<g>
		<path class="st5" d="M25.5,16.6L25.5,16.6L25.5,16.6z"/>
	</g>
	<g>
		<path class="st5" d="M24,16.6C24,16.6,24,16.6,24,16.6C24,16.6,24,16.6,24,16.6z"/>
	</g>
	<g>
		<path class="st5" d="M23.8,16.7L23.8,16.7C23.8,16.7,23.8,16.7,23.8,16.7z"/>
	</g>
	<g>
		<path class="st5" d="M25.5,16.6L25.5,16.6C25.4,16.6,25.5,16.6,25.5,16.6z"/>
	</g>
	<g>
		<path class="st5" d="M27.5,16.8C27.5,16.8,27.5,16.8,27.5,16.8L27.5,16.8L27.5,16.8z"/>
	</g>
	<g>
		<path class="st5" d="M26.1,16.6L26.1,16.6C26.1,16.6,26.1,16.6,26.1,16.6L26.1,16.6z"/>
	</g>
	<g>
		<path class="st5" d="M26.6,16.6C26.6,16.6,26.6,16.6,26.6,16.6C26.6,16.6,26.6,16.6,26.6,16.6C26.6,16.6,26.6,16.6,26.6,16.6z"/>
	</g>
	<g>
		<path class="st5" d="M27.4,16.7L27.4,16.7z"/>
	</g>
	<g>
		<path class="st5" d="M25.8,16.6C25.8,16.6,25.8,16.6,25.8,16.6C25.8,16.6,25.8,16.6,25.8,16.6z"/>
	</g>
	<g>
		<path class="st5" d="M28.5,17.1L28.5,17.1C28.5,17.1,28.4,17.1,28.5,17.1z"/>
	</g>
	<g>
		<path class="st5" d="M28,16.8L28,16.8C28,16.8,28,16.8,28,16.8L28,16.8z"/>
	</g>
	<g>
		<path class="st5" d="M23.3,16.7L23.3,16.7C23.3,16.7,23.3,16.7,23.3,16.7z"/>
	</g>
	<g>
		<path class="st5" d="M23.3,17.7C23.2,17.7,23.4,17.7,23.3,17.7C23.3,17.6,23.2,17.7,23.3,17.7z"/>
	</g>
	<g>
		<path class="st5" d="M27.5,16.8L27.5,16.8C27.5,16.8,27.5,16.8,27.5,16.8z"/>
	</g>
	<g>
		<path class="st5" d="M23.3,17.6L23.3,17.6L23.3,17.6L23.3,17.6z"/>
	</g>
	<g>
		<path class="st5" d="M22.3,17C22.3,17,22.3,17,22.3,17C22.3,17,22.3,17,22.3,17z"/>
	</g>
	<g>
		<path class="st5" d="M23.1,16.8L23.1,16.8C23.1,16.8,23.1,16.8,23.1,16.8z"/>
	</g>
	<g>
		<path class="st5" d="M22,17.3C22,17.3,21.9,17.3,22,17.3L22,17.3C21.9,17.3,22,17.3,22,17.3z"/>
	</g>
	<g>
		<path class="st5" d="M21.6,17.6L21.6,17.6L21.6,17.6L21.6,17.6z"/>
	</g>
	<g>
		<path class="st5" d="M29,18C29,18,29,18,29,18C29,18,29,18,29,18z"/>
	</g>
	<g>
		<path class="st5" d="M27.5,16.8C27.5,16.8,27.5,16.8,27.5,16.8L27.5,16.8C27.5,16.8,27.5,16.8,27.5,16.8z"/>
	</g>
	<g>
		<path class="st5" d="M22,17.4C22,17.4,22,17.4,22,17.4C22,17.4,22,17.4,22,17.4z"/>
	</g>
	<g>
		<path class="st5" d="M26.1,17.6L26.1,17.6C26.1,17.6,26.1,17.6,26.1,17.6z"/>
	</g>
	<g>
		<path class="st5" d="M21.8,17.5C21.8,17.5,21.8,17.5,21.8,17.5C21.8,17.5,21.8,17.6,21.8,17.5L21.8,17.5z"/>
	</g>
	<g>
		<path class="st5" d="M29,18"/>
	</g>
	<g>
		<path class="st5" d="M29,17.7C29,17.7,29,17.7,29,17.7C29.1,17.7,29,17.7,29,17.7C29,17.7,29,17.7,29,17.7c0,0.1,0.1,0.1,0.1,0.1
			c0,0,0,0,0,0c0,0,0,0,0,0c0,0,0,0.1,0,0.1c0,0,0,0,0,0c0,0,0,0,0,0c0,0,0,0,0,0c0,0,0,0,0,0c0,0,0,0,0,0c0,0,0,0,0,0l0,0
			c0,0,0,0,0,0c0,0-0.1,0.1-0.1,0.1c0,0,0,0,0,0s0,0,0,0c0,0,0,0,0.1,0c0,0,0,0,0,0c0,0,0,0,0,0c0,0,0,0,0,0l0,0c0,0,0,0,0,0
			c0,0,0,0,0,0c0,0,0,0,0,0c0,0-0.1,0-0.1,0c0,0-0.1,0-0.1,0c0,0-0.1,0-0.1,0l0,0c-0.1,0-0.1,0-0.1,0c0,0,0.1,0,0.1,0
			c-0.1,0,0,0-0.1,0l0,0c-0.1,0-0.2,0-0.3-0.1c0,0,0,0,0,0c-0.1,0-0.1-0.1-0.2-0.1c0,0-0.1,0-0.1-0.1c0,0-0.1,0-0.1-0.1
			c0,0,0,0-0.1,0s0,0,0,0c-0.1,0,0,0,0,0c0,0,0,0,0,0c0,0-0.1,0-0.2,0c0,0-0.1,0-0.1,0c0,0,0,0-0.1,0h0c-0.1,0-0.1,0-0.1,0h0
			c0,0-0.1,0-0.1,0l-0.1,0c-0.1,0-0.1,0-0.2,0c0,0-0.2,0-0.2,0c-0.1,0-0.1,0-0.2,0c0,0-0.1,0-0.1,0v0l-0.1,0l0,0h0c0,0,0,0,0,0
			c-0.1,0-0.1,0-0.1,0l-0.1,0c0,0,0,0,0,0c-0.1,0,0,0-0.1,0c0,0,0,0,0,0c-0.1,0-0.1,0-0.2,0l0,0c-0.1,0-0.2,0-0.3,0c0,0,0,0,0,0l0,0
			c0,0,0,0,0,0c0,0,0,0,0,0l-0.1,0c0,0,0,0,0,0c0,0-0.1,0-0.1,0l0,0c-0.1,0-0.2,0-0.3,0c0,0,0,0-0.1,0c-0.1,0-0.2,0-0.2,0
			c-0.1,0,0,0,0,0c0,0-0.1,0,0,0c-0.1,0-0.1,0-0.3,0c0,0,0,0,0,0c0,0-0.1,0-0.1,0h0c-0.1,0-0.3,0-0.5,0h0l-0.1,0c-0.1,0,0,0,0,0
			c-0.1,0-0.2,0-0.3,0c-0.1,0-0.3,0-0.4,0l0,0c0,0,0,0-0.1,0c0,0,0,0,0,0c-0.2,0-0.5,0-0.8,0.1c-0.1,0,0,0.1-0.2,0.1l0,0
			c-0.1,0-0.1,0-0.2,0.1c0,0-0.1,0-0.1,0l0,0l0,0l0,0c0,0,0,0,0,0c0,0,0,0,0,0c0,0,0,0,0,0c0,0,0,0,0,0c0,0,0,0,0,0c0,0,0,0,0,0
			c0,0,0,0,0,0l0,0c0,0,0,0,0,0c0,0,0,0,0,0c0,0,0.1-0.1,0-0.1c0,0,0.1-0.1,0.1-0.1c0,0,0.1-0.1,0.1-0.1c0,0,0.1-0.1,0.1-0.1
			c0,0,0,0,0,0c0,0,0.1-0.1,0.1-0.1c0.1,0,0.1-0.1,0.2-0.1c0.1-0.1,0.2-0.1,0.4-0.2c0,0-0.1,0.1-0.1,0.1c0.1-0.1,0.2-0.1,0.3-0.1
			c0,0,0,0,0,0c0.1,0,0.2-0.1,0.3-0.1c0,0,0,0,0,0c0,0,0,0,0,0l0,0c0,0,0.1-0.1,0.1-0.1c0,0,0.1,0,0.1,0c0,0,0,0,0,0c0,0,0,0,0,0
			c0.1,0,0,0,0.1,0c0,0,0,0,0,0c0,0,0.1,0,0.1,0c0,0,0,0,0,0c0.1,0,0.2-0.1,0.3-0.1c0,0,0,0,0,0l0.1,0l0,0c0,0,0.1,0,0.1,0l0,0
			l0.1,0H24c0.1,0,0,0,0.1,0c0,0,0.1,0,0.1,0l0,0c0,0,0.1,0,0.1,0c0,0,0,0,0,0c0,0,0.1,0,0.2,0c0,0,0,0,0,0l0,0c0,0,0,0,0,0
			c0.1,0,0,0,0.1,0c0,0,0,0,0,0c0.1,0,0.2,0,0.3,0c0,0-0.1,0,0,0c0.1,0,0.2,0,0.4,0h0c0,0,0.1,0,0.1,0c0,0,0,0,0,0
			c0.1,0,0.2,0,0.3,0l0,0c0,0,0.1,0,0.2,0c0,0,0,0,0,0c0.2,0,0.3,0,0.4,0c0,0,0,0,0,0l0.1,0c0,0,0,0,0,0c0,0,0.1,0,0.1,0
			c-0.1,0,0,0,0,0c0,0,0,0,0,0c0.1,0,0,0,0.1,0l0,0c0,0,0.1,0,0.1,0c0,0,0,0,0,0c0,0,0.1,0,0.1,0c0,0,0,0-0.1,0c0,0,0.1,0,0.1,0h0
			l0.1,0l0,0c0.1,0,0.1,0,0.2,0c-0.1,0,0,0,0,0c0,0,0,0,0,0c0,0,0.1,0,0.1,0c0,0,0,0,0,0c0,0,0,0,0,0c0.1,0,0.2,0,0.3,0
			c0.1,0,0.1,0,0.2,0c0,0,0,0,0,0c0,0,0.1,0,0.1,0c0,0,0,0,0,0c0,0,0,0,0.1,0c0,0,0,0,0,0c0,0,0.1,0,0.1,0c0,0,0,0,0,0
			c0,0,0.1,0,0.1,0l0,0c0,0,0,0,0,0c0,0-0.1,0-0.1,0h0c0,0-0.1,0-0.2,0l0,0l-0.1,0c0,0,0,0,0,0c0,0,0,0-0.1,0c0,0,0,0,0,0h0
			c0,0,0,0,0,0c-0.1,0-0.1,0-0.2,0h0c-0.1,0,0,0-0.1,0l0,0l0,0c0,0,0,0,0,0c0,0,0,0,0,0c-0.1,0-0.1,0-0.2,0c0,0,0.1,0,0,0
			c0,0-0.1,0-0.1,0c0,0,0.1,0,0,0c0,0-0.1,0-0.1,0c0,0-0.1,0-0.2,0c-0.1,0-0.1,0-0.2,0v0c0,0-0.1,0-0.1,0c0,0,0,0,0,0h0
			c0,0,0,0-0.1,0l0,0c-0.1,0-0.1,0-0.2,0c0,0,0.1,0,0,0c0,0,0,0,0,0c0,0,0,0,0,0l0,0c0,0,0,0,0,0c0,0,0,0,0,0c0,0,0,0,0,0
			c0,0-0.1,0-0.1,0c0,0,0,0,0,0c-0.1,0,0,0-0.1,0c0,0-0.1,0-0.1,0c0,0,0,0,0,0c0,0-0.1,0-0.1,0h0h0c-0.1,0-0.2,0-0.3,0v0
			c-0.1,0-0.1,0-0.2,0c0,0,0,0,0,0c0,0-0.1,0-0.1,0c0,0,0,0,0,0c0,0-0.1,0-0.1,0c0,0,0,0-0.1,0l0,0c0,0-0.1,0-0.1,0l0,0
			c-0.1,0-0.2,0.1-0.3,0c0,0,0.1,0,0,0c0,0-0.1,0-0.1,0c-0.1,0-0.1,0-0.2,0c0,0,0,0,0,0c-0.1,0-0.1,0,0,0c0,0,0,0,0,0c0,0,0,0,0,0
			l0,0c0,0-0.1,0-0.1,0c0,0,0,0,0,0c-0.1,0-0.1,0-0.2,0c0,0,0,0,0,0c-0.1,0,0,0-0.1,0c0,0,0,0-0.1,0c0,0,0,0,0,0c-0.1,0-0.1,0-0.2,0
			l0,0c0,0,0,0-0.1,0l0,0c0,0,0,0,0,0c0,0,0,0,0,0c0,0-0.1,0-0.1,0c0.1,0,0,0,0.1,0c0,0,0,0-0.1,0c0,0,0,0,0,0c-0.1,0,0,0-0.1,0
			c0,0,0,0,0,0c0,0,0,0,0,0c-0.1,0-0.1,0-0.1,0l0,0c0,0,0,0-0.1,0c0,0,0,0,0,0c0,0-0.1,0-0.2,0c0,0,0,0,0,0c-0.1,0-0.1,0-0.1,0
			c0,0,0,0,0,0c0,0,0.1,0,0.1,0c0,0,0,0-0.1,0c0,0,0.1,0,0.1,0c0,0,0,0,0,0c-0.1,0-0.1,0-0.1,0l0,0c-0.1,0-0.1,0.1-0.2,0.1l0,0
			c0,0-0.1,0-0.1,0c0,0,0,0,0,0c0,0-0.1,0-0.1,0.1l-0.1,0c-0.1,0-0.1,0.1-0.2,0.1c0,0,0,0,0,0c0,0,0,0,0,0c0,0-0.1,0.1-0.1,0.1
			c0,0,0,0,0,0c0,0,0,0,0,0s0,0,0,0c-0.1,0-0.1,0.1-0.1,0.1c0,0-0.1,0.1-0.1,0.1c0,0.1-0.1,0.1-0.1,0.2c0,0,0,0,0,0c0,0,0,0,0,0.1
			c0,0,0,0,0,0c0,0,0,0,0,0.1c0,0,0,0,0,0c0,0,0,0,0,0c0,0,0,0.1,0,0.1l0,0c0,0,0,0,0,0c0,0,0,0,0,0c0,0,0,0,0,0c0,0,0,0,0,0
			c0,0,0,0,0,0h0c0,0,0,0,0,0l0,0c0,0,0.1,0,0.1-0.1c0,0,0,0,0,0l0,0l0,0c0,0,0,0,0,0c0,0,0.1,0,0.1,0c0,0,0,0,0,0c0,0,0,0,0,0
			c0,0,0.1,0,0.1,0l-0.1,0c0,0,0.1,0,0.1,0v0c0.1,0,0.1,0,0.2-0.1l0,0c0,0,0,0,0.1,0l0,0c0.1,0,0.1,0,0.2-0.1c0,0-0.1,0-0.2,0.1
			c0,0,0.1,0,0.1,0c0,0,0,0,0,0c0.1,0,0.1,0,0.2,0c0,0,0.2,0,0.2,0c0.1,0,0.2,0,0.4,0c-0.1,0,0,0,0,0c0,0,0,0,0,0l0.1,0c0,0,0,0,0,0
			c0.1,0,0,0,0.1,0c0,0,0,0,0.1,0l-0.1,0c0.1,0,0.1,0,0.2,0l0,0c0.1,0,0.2,0,0.2,0c0,0,0,0,0,0c0.1,0,0.3,0,0.4,0l0,0c0,0,0,0,0.1,0
			c0,0,0,0,0,0c0,0,0.1,0,0.1,0l0,0c0.1,0,0.2,0,0.3,0c0,0,0.1,0,0.1,0v0c0.1,0,0.2,0,0.4,0c0.1,0,0.3,0,0.4,0.1c0,0,0,0,0,0
			c0,0,0.1,0,0.1,0h0c0,0,0.1,0,0.1,0l0,0c0.1,0,0.3,0,0.4,0c0,0,0.1,0,0.1,0v0c0.1,0,0.1,0,0.2,0l0,0c0.1,0,0.1,0,0.1,0l0,0
			c0.1,0,0.2,0,0.3,0c0,0,0,0,0,0c0,0,0.1,0,0.1,0c0,0,0.1,0,0.1,0c0,0,0,0,0.1,0c0,0,0,0,0.1,0h0.1l0,0c0,0,0.1,0,0.1,0
			c0,0,0,0,0,0c0.1,0,0,0,0.1,0l0,0c0,0,0.1,0,0.1,0c0,0,0.1,0,0.1,0.1c0,0,0,0,0.1,0c0,0,0,0,0,0c0.1,0.1,0.1,0.1,0.2,0.1
			c0,0,0,0,0,0c-0.1,0-0.1-0.1-0.1-0.1c0,0,0,0,0,0c0.1,0,0.1,0,0.2,0.1c0,0,0,0,0,0h0c0,0,0,0,0,0c0,0,0,0,0,0c0,0,0.1,0,0.1,0
			c0,0,0,0,0,0c0,0,0,0,0,0l0,0h0c0,0,0,0-0.1,0c0,0,0.1,0,0.1,0c0,0,0,0,0,0c0,0,0.1,0.1,0.1,0.1c0.1,0,0.2,0,0.3,0c0,0,0,0,0,0
			c0,0,0,0,0,0l0,0c0,0,0,0,0.1,0c0,0,0.1,0,0.1,0c0.1,0,0,0,0.1,0l0,0c0.1,0,0.2-0.1,0.2-0.2l0-0.1c0,0,0,0,0-0.1s0,0,0-0.1
			c0,0,0,0,0-0.1c0,0,0,0,0,0c0,0,0,0,0,0c0,0,0,0,0,0c0,0,0-0.1,0-0.1c0-0.1-0.1-0.1-0.1-0.2c-0.1-0.1-0.2-0.2-0.2-0.3
			c0,0-0.1,0-0.1-0.1v0l-0.1,0c-0.1,0-0.1-0.1-0.2-0.2l0,0c0,0-0.1-0.1-0.1-0.1c0,0,0,0,0,0v0c0,0-0.1,0-0.1,0c-0.1,0,0,0-0.1-0.1
			c0,0-0.1,0-0.1,0c0,0,0,0,0,0l0,0c0,0,0,0,0,0.1h0.1l0,0l-0.1,0c0,0,0,0,0.1,0c0,0,0,0,0,0c0,0,0,0,0.1,0c0,0,0,0,0,0c0,0,0,0,0,0
			c0,0,0,0,0,0c0,0,0,0,0,0c0,0,0.1,0,0.1,0c0,0,0.1,0.1,0.1,0.1c0,0,0.1,0,0.1,0c-0.1,0,0.1,0.1,0.1,0.1c0,0,0.1,0.1,0.2,0.1
			c0,0,0,0,0,0c0,0,0,0,0,0.1c0,0,0.1,0,0.1,0c0,0.1,0,0,0,0c0,0,0.1,0.1,0.1,0C29,17.6,29,17.5,29,17.7C29,17.6,29,17.6,29,17.7
			C29,17.7,29,17.6,29,17.7C29,17.7,29,17.7,29,17.7z M28.1,18L28.1,18L28.1,18L28.1,18z M28,18C28,18,28,18,28,18
			C28,18,28,18,28,18C28,18,28,18,28,18L28,18z M28.2,18.2C28.1,18.2,28.1,18.2,28.2,18.2L28.2,18.2L28.2,18.2
			C28.2,18.2,28.2,18.2,28.2,18.2L28.2,18.2z"/>
	</g>
	<g>
		<path class="st5" d="M28.2,18.2L28.2,18.2L28.2,18.2L28.2,18.2L28.2,18.2z"/>
	</g>
	<g>
		<path class="st5" d="M25.5,16.6L25.5,16.6L25.5,16.6L25.5,16.6z"/>
	</g>
	<g>
		<polygon class="st5" points="26.3,17.6 26.3,17.6 26.3,17.6 		"/>
	</g>
	<g>
		<path class="st5" d="M26.2,16.6C26.2,16.6,26.2,16.6,26.2,16.6C26.2,16.6,26.2,16.6,26.2,16.6z"/>
	</g>
	<g>
		<path class="st5" d="M26.5,16.7L26.5,16.7C26.5,16.7,26.5,16.7,26.5,16.7z"/>
	</g>
	<g>
		<path class="st5" d="M26.7,16.7C26.7,16.7,26.7,16.7,26.7,16.7L26.7,16.7L26.7,16.7z"/>
	</g>
	<g>
		<path class="st5" d="M23.1,16.9L23.1,16.9C23.1,16.9,23.1,16.9,23.1,16.9z"/>
	</g>
	<g>
		<path class="st5" d="M24.2,16.7C24.2,16.7,24.1,16.7,24.2,16.7C24.1,16.7,24.2,16.7,24.2,16.7z"/>
	</g>
	<g>
		<polygon class="st5" points="22,17.4 22,17.4 22,17.4 		"/>
	</g>
	<g>
		<path class="st5" d="M24.1,16.7C24.1,16.7,24.1,16.7,24.1,16.7C24.1,16.7,24.1,16.7,24.1,16.7z"/>
	</g>
	<g>
		<path class="st5" d="M27.7,16.8L27.7,16.8L27.7,16.8L27.7,16.8z"/>
	</g>
	<g>
		<path class="st5" d="M27.7,16.8L27.7,16.8C27.7,16.8,27.7,16.8,27.7,16.8z"/>
	</g>
	<g>
		<path class="st5" d="M27.7,16.8L27.7,16.8C27.7,16.8,27.7,16.8,27.7,16.8z"/>
	</g>
	<g>
		<path class="st5" d="M27.4,16.8L27.4,16.8C27.4,16.8,27.4,16.8,27.4,16.8z"/>
	</g>
	<g>
		<path class="st5" d="M27.3,16.8C27.3,16.8,27.4,16.8,27.3,16.8L27.3,16.8C27.4,16.8,27.3,16.7,27.3,16.8z"/>
	</g>
	<g>
		<path class="st5" d="M26.9,16.6L26.9,16.6C27,16.6,27,16.6,26.9,16.6C26.9,16.6,27,16.7,26.9,16.6z"/>
	</g>
	<g>
		<path class="st5" d="M26.7,16.6C26.7,16.6,26.7,16.6,26.7,16.6C26.7,16.6,26.7,16.6,26.7,16.6z"/>
	</g>
	<g>
		<path class="st5" d="M25,16.6L25,16.6C24.9,16.6,25,16.6,25,16.6z"/>
	</g>
	<g>
		<polygon class="st5" points="24.6,16.7 24.7,16.7 24.7,16.7 		"/>
	</g>
	<g>
		<polygon class="st5" points="24.4,16.6 24.4,16.6 24.4,16.6 		"/>
	</g>
	<g>
		<path class="st5" d="M21.7,17.5L21.7,17.5C21.7,17.5,21.7,17.5,21.7,17.5z"/>
	</g>
	<g>
		<path class="st5" d="M22.2,17.8C22.2,17.8,22.2,17.8,22.2,17.8C22.2,17.8,22.2,17.8,22.2,17.8z"/>
	</g>
	<g>
		<polygon class="st5" points="25.9,17.7 25.9,17.7 25.9,17.7 		"/>
	</g>
	<g>
		<path class="st3" d="M38.3,19.4c-0.2-0.2-0.3-0.3-0.5-0.4c-0.2-0.1-0.4-0.2-0.6-0.3c-0.2-0.1-0.4-0.1-0.6-0.2
			c-0.2,0-0.4-0.1-0.7-0.1c-0.4,0-0.9,0-1.3,0.1c-0.4,0.1-0.9,0.2-1.3,0.3l0,0c0.4-0.2,0.8-0.4,1.3-0.5c0.2,0,0.4-0.1,0.7-0.1
			c0.1,0,0.1,0,0.2,0s0.1,0,0.2,0h0.2l0.2,0c0.2,0,0.5,0,0.7,0.1c0.2,0,0.4,0.1,0.6,0.2c0.2,0.1,0.4,0.2,0.6,0.3
			C38,19,38.1,19.2,38.3,19.4L38.3,19.4z"/>
	</g>
	<g>
		<circle class="st0" cx="26.2" cy="19.6" r="0.1"/>
		<path class="st3" d="M26.2,19.7c-0.1,0-0.2-0.1-0.2-0.2c0-0.1,0.1-0.2,0.2-0.2c0.1,0,0.2,0.1,0.2,0.2
			C26.3,19.7,26.3,19.7,26.2,19.7z M26.2,19.4c-0.1,0-0.1,0.1-0.1,0.1s0.1,0.1,0.1,0.1s0.1-0.1,0.1-0.1S26.2,19.4,26.2,19.4z"/>
	</g>
	<g>
		<circle class="st0" cx="35.8" cy="19.5" r="0.1"/>
		<path class="st3" d="M35.8,19.7c-0.1,0-0.2-0.1-0.2-0.2c0-0.1,0.1-0.2,0.2-0.2c0.1,0,0.2,0.1,0.2,0.2C36,19.6,35.9,19.7,35.8,19.7
			z M35.8,19.4c-0.1,0-0.1,0.1-0.1,0.1s0.1,0.1,0.1,0.1s0.1-0.1,0.1-0.1S35.9,19.4,35.8,19.4z"/>
	</g>
</g>
</svg>
