<?xml version="1.0" encoding="utf-8"?>
<!-- Generator: Adobe Illustrator 26.2.1, SVG Export Plug-In . SVG Version: 6.00 Build 0)  -->
<svg version="1.1" id="Layer_1" xmlns="http://www.w3.org/2000/svg" xmlns:xlink="http://www.w3.org/1999/xlink" x="0px" y="0px"
	 viewBox="0 0 52.5 54.5" style="enable-background:new 0 0 52.5 54.5;" xml:space="preserve">
<style type="text/css">
	.st0{opacity:0.3;}
	.st1{fill:#EDAA25;}
</style>
<g class="st0">
	<path class="st1" d="M52.3,37.2v12c-0.9,0.4-1.8,0.8-2.6,1.1c-2.2,0.9-4.3,2.5-6,4.2H25.9c0.2-1.8,1-3.5,1.2-5.3
		c0.3-2.5,0.1-5.1-0.1-7.6c-0.3-3.6,1.2-6.7,5-7.2c1-0.1,2.2-0.2,3.1,0c2.1,0.6,4,2.2,6.1,2.9c1,0.3,2,0.7,3,0.7
		c1.1,0.1,2.1-0.1,3.3,0C49.3,38.3,50.8,37.8,52.3,37.2z"/>
	<path class="st1" d="M52.3,9v20.8c-1.3,0.7-2.8,0.9-4.2,0.4c-3.4-1.2-6-4.5-7.8-9.2c-2.4-6.1,1-12.5,5.6-13.5C48,7,50.3,7.6,52.3,9
		z"/>
	<path class="st1" d="M20.2,54.5H5.9c-0.9-0.8-1.5-1.9-1.9-3c-1.6-4.6-2.5-9,0.6-11.6c2.4-1.9,5.6-1,8.7,0.6c3.2,1.6,5.6,4.6,6.5,8
		C20.5,50.8,20.7,52.8,20.2,54.5z"/>
	<path class="st1" d="M32.8,6.8c-4.7-5.7-11.3-7.9-14.9-5s-2.6,9.9,2,15.5c3.3,4,8,5.4,11.4,5.5c2.1,0.1,3.9-1.4,4.3-3.4
		C36.6,15.8,36.4,11.1,32.8,6.8z"/>
	<path class="st1" d="M4,30.5c-4.7-5.7-5.6-12.6-2-15.5s10.2-0.7,14.9,5c3.3,4,3.7,8.9,3.2,12.3c-0.3,2-2.1,3.5-4.2,3.6
		C12.1,35.9,7.6,34.8,4,30.5z"/>
</g>
</svg>
