<?xml version="1.0" encoding="utf-8"?>
<!-- Generator: Adobe Illustrator 26.2.1, SVG Export Plug-In . SVG Version: 6.00 Build 0)  -->
<svg version="1.1" id="Layer_1" xmlns="http://www.w3.org/2000/svg" xmlns:xlink="http://www.w3.org/1999/xlink" x="0px" y="0px"
	 viewBox="0 0 52.5 60.5" style="enable-background:new 0 0 52.5 60.5;" xml:space="preserve">
<style type="text/css">
	.st0{opacity:0.3;}
	.st1{fill:#EDAA25;}
</style>
<g class="st0">
	<path class="st1" d="M24.3,60.5H6.1c-0.2-0.3-0.4-0.5-0.7-0.8C3.9,58,2,56.4,0,55.2V41.1c0.2,0,0.3,0,0.5,0c1.3-0.1,2.4,0.1,3.6,0
		c1.1-0.1,2.3-0.5,3.3-0.8c2.3-0.8,4.4-2.6,6.6-3.2c1-0.3,2.4-0.2,3.4,0c4.1,0.6,5.8,4,5.4,7.9c-0.2,2.7-0.4,5.5-0.1,8.3
		c0.2,2,1.1,3.9,1.4,5.9C24.2,59.5,24.3,60,24.3,60.5z"/>
	<path class="st1" d="M8.4,22.4c-2,5-4.7,8.6-8.4,9.9V7.5c0.8-0.1,1.5,0,2.3,0.1C7.3,8.8,11,15.7,8.4,22.4z"/>
	<path class="st1" d="M43.7,60.5c0.3-0.2,0.6-0.4,0.9-0.6c1.6-1,2.7-2.6,3.4-4.3c1.8-5,2.7-9.9-0.7-12.6c-2.6-2.1-6.1-1.1-9.5,0.6
		c-3.5,1.8-6.1,5-7.1,8.8c-0.9,3.3-1.1,6,0.4,8.1H43.7z"/>
	<path class="st1" d="M16.5,6.8c5.1-6.2,12.3-8.6,16.2-5.5s2.9,10.7-2.2,16.9c-3.6,4.3-8.7,5.9-12.4,6c-2.3,0.1-4.2-1.5-4.7-3.7
		C12.4,16.7,12.6,11.6,16.5,6.8z"/>
	<path class="st1" d="M48,32.7c5.1-6.2,6.1-13.8,2.2-16.9S39.1,15,34,21.2c-3.6,4.3-4.1,9.7-3.5,13.4c0.4,2.2,2.3,3.9,4.5,3.9
		C39.1,38.6,44,37.4,48,32.7z"/>
</g>
</svg>
